M48
;Layer_Color=9474304
;FILE_FORMAT=2:4
INCH,TZ
;TYPE=PLATED
T1F00S00C0.0118
T2F00S00C0.0320
T3F00S00C0.0340
T4F00S00C0.0354
T5F00S00C0.0402
T6F00S00C0.0500
T7F00S00C0.0512
%
T01
X28031Y12323
X32520Y14331
X24961Y13740
X24567Y13976
Y11693
X24961Y11417
X25433Y10394
X22992
X21654Y11496
X21969Y12047
X20236Y10630
X19252Y10945
X18740Y10315
X17480Y10157
X17559Y7283
X14803Y7520
X11654Y7559
X10906Y10157
X12551Y11271
X13442Y11280
X13976Y12638
X16220Y15472
X16929Y15551
X16890Y15945
X16220Y16575
X20551Y14252
X22992Y6496
X5906Y5472
Y9685
X3898Y16575
X3346Y21339
X2559
X1772
Y23150
X2559
X3346
X8504Y22441
X9488Y22402
X7165Y25709
X8567Y29189
X14685Y29469
Y28661
Y30276
X16639Y31755
X18425Y29567
X21063Y28189
X19252Y19961
X17323Y19370
X11063Y24764
T02
X12740Y8937
X13740
T03
X16441Y8740
X18441
T04
X27701Y10748
X28701
X29701
X30701
X29032Y14094
Y15094
X28031
X27032
X26031
Y14094
X27032
X28031
X34724Y12953
X20252Y2992
X19252
X18252
X17252
X10906Y14433
Y15433
Y16433
X6220Y15898
Y14898
Y13898
Y12898
Y11898
X4520Y9724
X3520
X2520
X1520
X6220Y16898
Y17898
Y18898
X10063
X11063
X10906Y17433
X10512Y22740
Y23740
X12165Y28189
Y29189
X21063Y20402
Y19402
Y18402
Y17402
T05
X2756Y3409
Y4409
Y5409
Y6409
T06
X4057Y31969
X6057
X10557
X12557
T07
X1575Y30205
Y32205
M30
