M48
;Layer_Color=9474304
;FILE_FORMAT=2:4
INCH,TZ
;TYPE=PLATED
T1F00S00C0.0118
T2F00S00C0.0320
T3F00S00C0.0340
T4F00S00C0.0354
T5F00S00C0.0450
T6F00S00C0.0500
T7F00S00C0.0512
%
T01
X19193Y3150
X21100Y5143
X23800
X24419Y5025
Y4631
X32850Y1319
X34981Y3450
X36150Y8550
X36850Y8950
X36500Y9350
X35100
X35097Y8959
Y8566
Y8172
X34981Y7781
X31275Y11881
X28913
X28519
X28000Y13900
X24900Y14050
Y14800
X25500Y14750
X25750Y15450
X24900Y15550
X23000
Y14800
Y14050
X23450Y17150
X21050Y19250
Y20150
X22650Y10500
X24419Y9356
Y8962
Y7387
Y6994
X24000Y7100
X23650
X23300
X22950
X22600
X22250
X21900
X21550
X21200
X20850
X20500
X20150
X19800
X19900Y6100
X20250
X20550
X20900
X21250
X21600
X21900
X22250
X22600
X22950
X23300
X23650
X24000
X24419Y6206
Y5813
Y5419
X25550Y6200
X25700Y6450
Y6750
X25600Y7000
X25599Y10501
X25494Y12000
X25750Y12300
X33700Y19400
X34300Y18850
X17050Y18650
X14000Y18350
X10684Y18063
X10950Y20800
X14272Y13950
X13850Y13100
X14850Y9550
X12750
X12591Y6905
X12946
X13300
X13654
X14009
X14363
X14717
X15072
X15426
X15780
X16135
X16489
X16843
X17198
X17552
X17906
X18261
X18615
X18900Y7050
X19200Y7100
X19500
X19550Y6100
X19200
X18808Y6295
X18453
X18099
X17745
X17390
X17036
X16682
X16327
X15973
X15619
X15264
X14910
X14556
X14201
X13847
X13493
X13138
X12784
X12430
X12075
X11721
X11367
X11013
X10658
X10304
X9950
X9595
X9241
X8887
X8532
X8178
X7824
X7469
X7115
X6761
X6406
X6052
X5698
X5343
X4989
X4635
X4280
X4442Y6905
X4796
X5150
X5505
X5859
X6213
X6568
X6922
X7276
X7631
X7985
X8339
X8694
X9048
X9402
X9757
X10111
X10465
X10820
X11174
X11528
X11883
X12237
X4087
X4650Y12150
X5900Y14450
X17050Y14850
X18550Y15250
X19450
X3650Y14800
X3733Y6905
X3379
X3024
X2670
X2400Y6900
X2211Y7067
X1983Y7153
X1699Y7138
X1468Y6987
X1350Y6750
Y6450
X1500Y6200
X1750Y6050
X2050
X2285Y6172
X2509Y6295
X2863
X3217
X3572
X3926
X3800Y25800
X3000
Y27700
X3800
X4600
Y25800
X8517Y27448
X9450Y27450
X11600Y29250
X7600Y30200
X10950Y24050
X15650Y22700
X16350Y22750
X18750Y35000
X20750Y33650
X21375Y33025
X21200Y30234
X20723Y30018
X20300Y30250
X19832Y30018
X21682
X25800Y21200
X28459Y23650
X32200Y21200
X36531Y23700
Y25700
T02
X20100Y10750
X21100
X28700Y17150
X29700
X30700
X19100Y10750
X12350Y21950
Y22950
T03
X12150Y17100
Y19100
T04
X25450Y18000
Y19000
Y20000
X11700Y14550
X10700
X9700
X8700
X5150Y13950
Y12950
X4150
Y13950
X4000Y10500
X11300Y11500
X12300
X13300
X14300
X3000Y10500
X2000
X1000
X2150Y12950
X3150
Y13950
X2150
X11200Y25550
X12200
X13800Y24750
X14800
X15800
X16800
X18300
X19300
X11100Y27350
Y28350
X12200Y33050
Y34050
X20300Y24750
X21550
X22550
X23550
X24550
T05
X900Y5600
X2900
Y7600
X900
X1900Y6600
T06
X4400Y37770
X6400
X10900
X12900
T07
X1650Y35770
Y37770
M30
