G04*
G04 #@! TF.GenerationSoftware,Altium Limited,Altium Designer,22.2.1 (43)*
G04*
G04 Layer_Physical_Order=2*
G04 Layer_Color=10275833*
%FSLAX24Y24*%
%MOIN*%
G70*
G04*
G04 #@! TF.SameCoordinates,347B6F40-84C8-4AAD-98B2-BBB097A6B523*
G04*
G04*
G04 #@! TF.FilePolarity,Positive*
G04*
G01*
G75*
%ADD12C,0.0079*%
%ADD58C,0.0394*%
%ADD60C,0.0236*%
%ADD63C,0.0591*%
%ADD64R,0.0591X0.0591*%
%ADD65R,0.0591X0.0591*%
%ADD66R,0.0709X0.0709*%
%ADD67C,0.0709*%
%ADD68O,0.1000X0.1200*%
%ADD69R,0.0984X0.0984*%
%ADD70C,0.0750*%
%ADD71C,0.0787*%
%ADD72C,0.0236*%
G36*
X10810Y23992D02*
X10823Y23945D01*
X10843Y23894D01*
X10873Y23839D01*
X10910Y23780D01*
X10956Y23716D01*
X11073Y23575D01*
X11223Y23416D01*
X10915Y23168D01*
X10831Y23249D01*
X10682Y23376D01*
X10617Y23422D01*
X10558Y23456D01*
X10505Y23478D01*
X10459Y23488D01*
X10419Y23486D01*
X10386Y23473D01*
X10359Y23447D01*
X10806Y24034D01*
X10810Y23992D01*
D02*
G37*
G36*
X35884Y22139D02*
X35884Y22089D01*
X11412D01*
Y23228D01*
X11402Y23300D01*
X11374Y23367D01*
X11343Y23408D01*
X11343Y23408D01*
X11344Y23413D01*
X11341Y23432D01*
X11339Y23450D01*
X11337Y23455D01*
X11336Y23460D01*
X11326Y23475D01*
X11317Y23492D01*
X11313Y23495D01*
X11311Y23499D01*
X11163Y23655D01*
X11052Y23789D01*
X11010Y23847D01*
X10977Y23900D01*
X10953Y23946D01*
X10937Y23984D01*
X10929Y24014D01*
X10926Y24046D01*
X10925Y24048D01*
X10925Y24050D01*
X10918Y24071D01*
X10912Y24091D01*
X10911Y24093D01*
X10910Y24095D01*
X10896Y24111D01*
X10882Y24127D01*
X10880Y24128D01*
X10879Y24130D01*
X10860Y24139D01*
X10841Y24149D01*
X10839Y24150D01*
X10837Y24151D01*
X10815Y24152D01*
X10794Y24154D01*
X10792Y24153D01*
X10790Y24154D01*
X10770Y24147D01*
X10749Y24140D01*
X10747Y24139D01*
X10745Y24138D01*
X10729Y24124D01*
X10717Y24114D01*
X10138D01*
Y23366D01*
X10270D01*
X10271Y23365D01*
X10279Y23359D01*
X10286Y23352D01*
X10298Y23345D01*
X10309Y23338D01*
X10319Y23335D01*
X10328Y23331D01*
X10341Y23330D01*
X10355Y23327D01*
X10365Y23329D01*
X10375Y23328D01*
X10388Y23332D01*
X10401Y23335D01*
X10410Y23340D01*
X10419Y23343D01*
X10429Y23352D01*
X10441Y23360D01*
X10448Y23366D01*
X10453D01*
X10469Y23363D01*
X10504Y23348D01*
X10552Y23320D01*
X10608Y23281D01*
X10750Y23160D01*
X10832Y23081D01*
X10845Y23072D01*
X10846Y23072D01*
X10842Y23037D01*
X10793Y23018D01*
X10755Y23056D01*
X10664Y23108D01*
X10564Y23135D01*
X10562D01*
Y22740D01*
Y22345D01*
X10564D01*
X10664Y22372D01*
X10755Y22424D01*
X10806Y22475D01*
X10856Y22454D01*
Y22089D01*
X100D01*
Y33797D01*
X35884D01*
X35884Y22139D01*
D02*
G37*
G36*
X11331Y19511D02*
X11352Y19196D01*
X11357Y19192D01*
X10769D01*
X10801Y19196D01*
X10829Y19207D01*
X10855Y19227D01*
X10876Y19255D01*
X10895Y19290D01*
X10910Y19333D01*
X10922Y19385D01*
X10930Y19444D01*
X10935Y19511D01*
X10937Y19585D01*
X11331D01*
X11331Y19511D01*
D02*
G37*
G36*
X35884Y100D02*
X100D01*
Y21969D01*
X10856D01*
Y19674D01*
X10854Y19672D01*
X10853Y19671D01*
X10852Y19671D01*
X10839Y19652D01*
X10827Y19634D01*
X10826Y19633D01*
X10826Y19632D01*
X10821Y19610D01*
X10816Y19588D01*
X10815Y19516D01*
X10810Y19457D01*
X10803Y19407D01*
X10794Y19367D01*
X10784Y19338D01*
X10775Y19321D01*
X10769Y19313D01*
X10769Y19313D01*
X10754Y19311D01*
X10739Y19306D01*
X10723Y19303D01*
X10717Y19299D01*
X10710Y19296D01*
X10697Y19286D01*
X10684Y19277D01*
X10680Y19271D01*
X10674Y19266D01*
X10667Y19251D01*
X10658Y19238D01*
X10656Y19230D01*
X10653Y19224D01*
X10652Y19208D01*
X10648Y19192D01*
X10650Y19184D01*
X10649Y19177D01*
X10654Y19162D01*
X10658Y19146D01*
X10662Y19139D01*
X10664Y19132D01*
X10675Y19120D01*
X10684Y19107D01*
X10689Y19103D01*
Y18524D01*
X11437D01*
Y19103D01*
X11442Y19107D01*
X11446Y19113D01*
X11452Y19118D01*
X11459Y19132D01*
X11468Y19146D01*
X11470Y19153D01*
X11473Y19159D01*
X11474Y19176D01*
X11477Y19192D01*
X11476Y19199D01*
X11477Y19206D01*
X11472Y19222D01*
X11471Y19226D01*
X11451Y19515D01*
X11451Y19586D01*
X11446Y19609D01*
X11442Y19632D01*
X11442Y19632D01*
X11442Y19632D01*
X11429Y19651D01*
X11416Y19671D01*
X11416Y19671D01*
X11415Y19671D01*
X11412Y19673D01*
Y21969D01*
X35884D01*
X35884Y100D01*
D02*
G37*
%LPC*%
G36*
X16689Y31970D02*
Y31805D01*
X16855D01*
X16824Y31878D01*
X16763Y31940D01*
X16689Y31970D01*
D02*
G37*
G36*
X16589D02*
X16516Y31940D01*
X16454Y31878D01*
X16424Y31805D01*
X16589D01*
Y31970D01*
D02*
G37*
G36*
X2146Y32776D02*
X1004D01*
Y31634D01*
X2146D01*
Y32776D01*
D02*
G37*
G36*
X16855Y31705D02*
X16689D01*
Y31539D01*
X16763Y31570D01*
X16824Y31631D01*
X16855Y31705D01*
D02*
G37*
G36*
X16589D02*
X16424D01*
X16454Y31631D01*
X16516Y31570D01*
X16589Y31539D01*
Y31705D01*
D02*
G37*
G36*
X12557Y32652D02*
X12406Y32632D01*
X12265Y32574D01*
X12144Y32481D01*
X12052Y32360D01*
X11993Y32220D01*
X11973Y32069D01*
Y31869D01*
X11993Y31717D01*
X12052Y31577D01*
X12144Y31456D01*
X12265Y31363D01*
X12406Y31305D01*
X12557Y31285D01*
X12708Y31305D01*
X12849Y31363D01*
X12970Y31456D01*
X13063Y31577D01*
X13121Y31717D01*
X13141Y31869D01*
Y32069D01*
X13121Y32220D01*
X13063Y32360D01*
X12970Y32481D01*
X12849Y32574D01*
X12708Y32632D01*
X12557Y32652D01*
D02*
G37*
G36*
X10557D02*
X10406Y32632D01*
X10265Y32574D01*
X10144Y32481D01*
X10052Y32360D01*
X9993Y32220D01*
X9973Y32069D01*
Y31869D01*
X9993Y31717D01*
X10052Y31577D01*
X10144Y31456D01*
X10265Y31363D01*
X10406Y31305D01*
X10557Y31285D01*
X10708Y31305D01*
X10849Y31363D01*
X10970Y31456D01*
X11063Y31577D01*
X11121Y31717D01*
X11141Y31869D01*
Y32069D01*
X11121Y32220D01*
X11063Y32360D01*
X10970Y32481D01*
X10849Y32574D01*
X10708Y32632D01*
X10557Y32652D01*
D02*
G37*
G36*
X6057D02*
X5906Y32632D01*
X5765Y32574D01*
X5644Y32481D01*
X5552Y32360D01*
X5493Y32220D01*
X5473Y32069D01*
Y31869D01*
X5493Y31717D01*
X5552Y31577D01*
X5644Y31456D01*
X5765Y31363D01*
X5906Y31305D01*
X6057Y31285D01*
X6208Y31305D01*
X6349Y31363D01*
X6470Y31456D01*
X6563Y31577D01*
X6621Y31717D01*
X6641Y31869D01*
Y32069D01*
X6621Y32220D01*
X6563Y32360D01*
X6470Y32481D01*
X6349Y32574D01*
X6208Y32632D01*
X6057Y32652D01*
D02*
G37*
G36*
X4057D02*
X3906Y32632D01*
X3765Y32574D01*
X3644Y32481D01*
X3552Y32360D01*
X3493Y32220D01*
X3473Y32069D01*
Y31869D01*
X3493Y31717D01*
X3552Y31577D01*
X3644Y31456D01*
X3765Y31363D01*
X3906Y31305D01*
X4057Y31285D01*
X4208Y31305D01*
X4349Y31363D01*
X4470Y31456D01*
X4563Y31577D01*
X4621Y31717D01*
X4641Y31869D01*
Y32069D01*
X4621Y32220D01*
X4563Y32360D01*
X4470Y32481D01*
X4349Y32574D01*
X4208Y32632D01*
X4057Y32652D01*
D02*
G37*
G36*
X14735Y30491D02*
Y30326D01*
X14900D01*
X14870Y30399D01*
X14809Y30461D01*
X14735Y30491D01*
D02*
G37*
G36*
X14635D02*
X14561Y30461D01*
X14500Y30399D01*
X14470Y30326D01*
X14635D01*
Y30491D01*
D02*
G37*
G36*
X2167Y30797D02*
X1625D01*
Y30255D01*
X2167D01*
Y30797D01*
D02*
G37*
G36*
X1525D02*
X983D01*
Y30255D01*
X1525D01*
Y30797D01*
D02*
G37*
G36*
X14900Y30226D02*
X14735D01*
Y30060D01*
X14809Y30091D01*
X14870Y30152D01*
X14900Y30226D01*
D02*
G37*
G36*
X14635D02*
X14470D01*
X14500Y30152D01*
X14561Y30091D01*
X14635Y30060D01*
Y30226D01*
D02*
G37*
G36*
X18475Y29782D02*
Y29617D01*
X18641D01*
X18610Y29690D01*
X18549Y29752D01*
X18475Y29782D01*
D02*
G37*
G36*
X18375D02*
X18302Y29752D01*
X18240Y29690D01*
X18210Y29617D01*
X18375D01*
Y29782D01*
D02*
G37*
G36*
X2167Y30155D02*
X1625D01*
Y29613D01*
X2167D01*
Y30155D01*
D02*
G37*
G36*
X1525D02*
X983D01*
Y29613D01*
X1525D01*
Y30155D01*
D02*
G37*
G36*
X14735Y29684D02*
Y29518D01*
X14900D01*
X14870Y29592D01*
X14809Y29653D01*
X14735Y29684D01*
D02*
G37*
G36*
X14635D02*
X14561Y29653D01*
X14500Y29592D01*
X14470Y29518D01*
X14635D01*
Y29684D01*
D02*
G37*
G36*
X18641Y29517D02*
X18475D01*
Y29352D01*
X18549Y29382D01*
X18610Y29443D01*
X18641Y29517D01*
D02*
G37*
G36*
X18375D02*
X18210D01*
X18240Y29443D01*
X18302Y29382D01*
X18375Y29352D01*
Y29517D01*
D02*
G37*
G36*
X14900Y29418D02*
X14735D01*
Y29253D01*
X14809Y29284D01*
X14870Y29345D01*
X14900Y29418D01*
D02*
G37*
G36*
X14635D02*
X14470D01*
X14500Y29345D01*
X14561Y29284D01*
X14635Y29253D01*
Y29418D01*
D02*
G37*
G36*
X8617Y29404D02*
Y29239D01*
X8782D01*
X8752Y29313D01*
X8690Y29374D01*
X8617Y29404D01*
D02*
G37*
G36*
X8517D02*
X8443Y29374D01*
X8382Y29313D01*
X8352Y29239D01*
X8517D01*
Y29404D01*
D02*
G37*
G36*
X12217Y29584D02*
X12215D01*
Y29239D01*
X12561D01*
Y29241D01*
X12534Y29342D01*
X12482Y29432D01*
X12408Y29505D01*
X12318Y29557D01*
X12217Y29584D01*
D02*
G37*
G36*
X12115D02*
X12113D01*
X12013Y29557D01*
X11923Y29505D01*
X11849Y29432D01*
X11797Y29342D01*
X11770Y29241D01*
Y29239D01*
X12115D01*
Y29584D01*
D02*
G37*
G36*
X8782Y29139D02*
X8617D01*
Y28974D01*
X8690Y29004D01*
X8752Y29065D01*
X8782Y29139D01*
D02*
G37*
G36*
X8517D02*
X8352D01*
X8382Y29065D01*
X8443Y29004D01*
X8517Y28974D01*
Y29139D01*
D02*
G37*
G36*
X12561Y29139D02*
X12215D01*
Y28794D01*
X12217D01*
X12318Y28821D01*
X12408Y28873D01*
X12482Y28946D01*
X12534Y29036D01*
X12561Y29137D01*
Y29139D01*
D02*
G37*
G36*
X12115D02*
X11770D01*
Y29137D01*
X11797Y29036D01*
X11849Y28946D01*
X11923Y28873D01*
X12013Y28821D01*
X12113Y28794D01*
X12115D01*
Y29139D01*
D02*
G37*
G36*
X14735Y28877D02*
Y28711D01*
X14900D01*
X14870Y28785D01*
X14809Y28846D01*
X14735Y28877D01*
D02*
G37*
G36*
X14635D02*
X14561Y28846D01*
X14500Y28785D01*
X14470Y28711D01*
X14635D01*
Y28877D01*
D02*
G37*
G36*
X14900Y28611D02*
X14735D01*
Y28446D01*
X14809Y28477D01*
X14870Y28538D01*
X14900Y28611D01*
D02*
G37*
G36*
X14635D02*
X14470D01*
X14500Y28538D01*
X14561Y28477D01*
X14635Y28446D01*
Y28611D01*
D02*
G37*
G36*
X21113Y28404D02*
Y28239D01*
X21278D01*
X21248Y28313D01*
X21187Y28374D01*
X21113Y28404D01*
D02*
G37*
G36*
X21013D02*
X20939Y28374D01*
X20878Y28313D01*
X20848Y28239D01*
X21013D01*
Y28404D01*
D02*
G37*
G36*
X21278Y28139D02*
X21113D01*
Y27974D01*
X21187Y28004D01*
X21248Y28065D01*
X21278Y28139D01*
D02*
G37*
G36*
X21013D02*
X20848D01*
X20878Y28065D01*
X20939Y28004D01*
X21013Y27974D01*
Y28139D01*
D02*
G37*
G36*
X12539Y28563D02*
X11791D01*
Y27815D01*
X12539D01*
Y28563D01*
D02*
G37*
G36*
X7215Y25924D02*
Y25759D01*
X7381D01*
X7350Y25832D01*
X7289Y25894D01*
X7215Y25924D01*
D02*
G37*
G36*
X7115D02*
X7042Y25894D01*
X6980Y25832D01*
X6950Y25759D01*
X7115D01*
Y25924D01*
D02*
G37*
G36*
X7381Y25659D02*
X7215D01*
Y25493D01*
X7289Y25524D01*
X7350Y25585D01*
X7381Y25659D01*
D02*
G37*
G36*
X7115D02*
X6950D01*
X6980Y25585D01*
X7042Y25524D01*
X7115Y25493D01*
Y25659D01*
D02*
G37*
G36*
X11113Y24979D02*
Y24814D01*
X11278D01*
X11248Y24887D01*
X11187Y24949D01*
X11113Y24979D01*
D02*
G37*
G36*
X11013D02*
X10939Y24949D01*
X10878Y24887D01*
X10848Y24814D01*
X11013D01*
Y24979D01*
D02*
G37*
G36*
X11278Y24714D02*
X11113D01*
Y24548D01*
X11187Y24579D01*
X11248Y24640D01*
X11278Y24714D01*
D02*
G37*
G36*
X11013D02*
X10848D01*
X10878Y24640D01*
X10939Y24579D01*
X11013Y24548D01*
Y24714D01*
D02*
G37*
G36*
X3396Y23365D02*
Y23200D01*
X3562D01*
X3531Y23273D01*
X3470Y23335D01*
X3396Y23365D01*
D02*
G37*
G36*
X3296D02*
X3223Y23335D01*
X3162Y23273D01*
X3131Y23200D01*
X3296D01*
Y23365D01*
D02*
G37*
G36*
X2609D02*
Y23200D01*
X2774D01*
X2744Y23273D01*
X2683Y23335D01*
X2609Y23365D01*
D02*
G37*
G36*
X2509D02*
X2436Y23335D01*
X2374Y23273D01*
X2344Y23200D01*
X2509D01*
Y23365D01*
D02*
G37*
G36*
X1822D02*
Y23200D01*
X1987D01*
X1957Y23273D01*
X1895Y23335D01*
X1822Y23365D01*
D02*
G37*
G36*
X1722D02*
X1648Y23335D01*
X1587Y23273D01*
X1556Y23200D01*
X1722D01*
Y23365D01*
D02*
G37*
G36*
X3562Y23100D02*
X3396D01*
Y22934D01*
X3470Y22965D01*
X3531Y23026D01*
X3562Y23100D01*
D02*
G37*
G36*
X3296D02*
X3131D01*
X3162Y23026D01*
X3223Y22965D01*
X3296Y22934D01*
Y23100D01*
D02*
G37*
G36*
X2774D02*
X2609D01*
Y22934D01*
X2683Y22965D01*
X2744Y23026D01*
X2774Y23100D01*
D02*
G37*
G36*
X2509D02*
X2344D01*
X2374Y23026D01*
X2436Y22965D01*
X2509Y22934D01*
Y23100D01*
D02*
G37*
G36*
X1987D02*
X1822D01*
Y22934D01*
X1895Y22965D01*
X1957Y23026D01*
X1987Y23100D01*
D02*
G37*
G36*
X1722D02*
X1556D01*
X1587Y23026D01*
X1648Y22965D01*
X1722Y22934D01*
Y23100D01*
D02*
G37*
G36*
X10462Y23135D02*
X10460D01*
X10359Y23108D01*
X10269Y23056D01*
X10196Y22983D01*
X10143Y22893D01*
X10117Y22792D01*
Y22790D01*
X10462D01*
Y23135D01*
D02*
G37*
G36*
X8554Y22656D02*
Y22491D01*
X8719D01*
X8689Y22564D01*
X8627Y22626D01*
X8554Y22656D01*
D02*
G37*
G36*
X8454D02*
X8380Y22626D01*
X8319Y22564D01*
X8289Y22491D01*
X8454D01*
Y22656D01*
D02*
G37*
G36*
X9538Y22617D02*
Y22452D01*
X9704D01*
X9673Y22525D01*
X9612Y22586D01*
X9538Y22617D01*
D02*
G37*
G36*
X9438D02*
X9365Y22586D01*
X9303Y22525D01*
X9273Y22452D01*
X9438D01*
Y22617D01*
D02*
G37*
G36*
X10462Y22690D02*
X10117D01*
Y22688D01*
X10143Y22588D01*
X10196Y22497D01*
X10269Y22424D01*
X10359Y22372D01*
X10460Y22345D01*
X10462D01*
Y22690D01*
D02*
G37*
G36*
X8719Y22391D02*
X8554D01*
Y22226D01*
X8627Y22256D01*
X8689Y22317D01*
X8719Y22391D01*
D02*
G37*
G36*
X8454D02*
X8289D01*
X8319Y22317D01*
X8380Y22256D01*
X8454Y22226D01*
Y22391D01*
D02*
G37*
G36*
X9704Y22352D02*
X9538D01*
Y22186D01*
X9612Y22217D01*
X9673Y22278D01*
X9704Y22352D01*
D02*
G37*
G36*
X9438D02*
X9273D01*
X9303Y22278D01*
X9365Y22217D01*
X9438Y22186D01*
Y22352D01*
D02*
G37*
G36*
X3396Y21554D02*
Y21389D01*
X3562D01*
X3531Y21462D01*
X3470Y21523D01*
X3396Y21554D01*
D02*
G37*
G36*
X3296D02*
X3223Y21523D01*
X3162Y21462D01*
X3131Y21389D01*
X3296D01*
Y21554D01*
D02*
G37*
G36*
X2609D02*
Y21389D01*
X2774D01*
X2744Y21462D01*
X2683Y21523D01*
X2609Y21554D01*
D02*
G37*
G36*
X2509D02*
X2436Y21523D01*
X2374Y21462D01*
X2344Y21389D01*
X2509D01*
Y21554D01*
D02*
G37*
G36*
X1822D02*
Y21389D01*
X1987D01*
X1957Y21462D01*
X1895Y21523D01*
X1822Y21554D01*
D02*
G37*
G36*
X1722D02*
X1648Y21523D01*
X1587Y21462D01*
X1556Y21389D01*
X1722D01*
Y21554D01*
D02*
G37*
G36*
X3562Y21289D02*
X3396D01*
Y21123D01*
X3470Y21154D01*
X3531Y21215D01*
X3562Y21289D01*
D02*
G37*
G36*
X3296D02*
X3131D01*
X3162Y21215D01*
X3223Y21154D01*
X3296Y21123D01*
Y21289D01*
D02*
G37*
G36*
X2774D02*
X2609D01*
Y21123D01*
X2683Y21154D01*
X2744Y21215D01*
X2774Y21289D01*
D02*
G37*
G36*
X2509D02*
X2344D01*
X2374Y21215D01*
X2436Y21154D01*
X2509Y21123D01*
Y21289D01*
D02*
G37*
G36*
X1987D02*
X1822D01*
Y21123D01*
X1895Y21154D01*
X1957Y21215D01*
X1987Y21289D01*
D02*
G37*
G36*
X1722D02*
X1556D01*
X1587Y21215D01*
X1648Y21154D01*
X1722Y21123D01*
Y21289D01*
D02*
G37*
G36*
X17373Y19585D02*
Y19420D01*
X17538D01*
X17508Y19494D01*
X17446Y19555D01*
X17373Y19585D01*
D02*
G37*
G36*
X17273D02*
X17199Y19555D01*
X17138Y19494D01*
X17107Y19420D01*
X17273D01*
Y19585D01*
D02*
G37*
G36*
X17538Y19320D02*
X17373D01*
Y19155D01*
X17446Y19185D01*
X17508Y19247D01*
X17538Y19320D01*
D02*
G37*
G36*
X17273D02*
X17107D01*
X17138Y19247D01*
X17199Y19185D01*
X17273Y19155D01*
Y19320D01*
D02*
G37*
G36*
X10115Y19293D02*
X10113D01*
Y18948D01*
X10458D01*
Y18950D01*
X10431Y19050D01*
X10379Y19140D01*
X10306Y19214D01*
X10216Y19266D01*
X10115Y19293D01*
D02*
G37*
G36*
X10013D02*
X10011D01*
X9910Y19266D01*
X9820Y19214D01*
X9747Y19140D01*
X9695Y19050D01*
X9668Y18950D01*
Y18948D01*
X10013D01*
Y19293D01*
D02*
G37*
G36*
X6270Y19272D02*
X6171D01*
X6076Y19246D01*
X5991Y19197D01*
X5921Y19127D01*
X5872Y19042D01*
X5846Y18947D01*
Y18848D01*
X5872Y18753D01*
X5921Y18668D01*
X5991Y18598D01*
X6076Y18549D01*
X6171Y18524D01*
X6270D01*
X6365Y18549D01*
X6450Y18598D01*
X6520Y18668D01*
X6569Y18753D01*
X6594Y18848D01*
Y18947D01*
X6569Y19042D01*
X6520Y19127D01*
X6450Y19197D01*
X6365Y19246D01*
X6270Y19272D01*
D02*
G37*
G36*
X10458Y18848D02*
X10113D01*
Y18502D01*
X10115D01*
X10216Y18529D01*
X10306Y18581D01*
X10379Y18655D01*
X10431Y18745D01*
X10458Y18846D01*
Y18848D01*
D02*
G37*
G36*
X10013D02*
X9668D01*
Y18846D01*
X9695Y18745D01*
X9747Y18655D01*
X9820Y18581D01*
X9910Y18529D01*
X10011Y18502D01*
X10013D01*
Y18848D01*
D02*
G37*
G36*
X21112Y18776D02*
X21014D01*
X20919Y18750D01*
X20833Y18701D01*
X20764Y18631D01*
X20714Y18546D01*
X20689Y18451D01*
Y18352D01*
X20714Y18257D01*
X20764Y18172D01*
X20833Y18102D01*
X20919Y18053D01*
X21014Y18028D01*
X21112D01*
X21207Y18053D01*
X21293Y18102D01*
X21362Y18172D01*
X21412Y18257D01*
X21437Y18352D01*
Y18451D01*
X21412Y18546D01*
X21362Y18631D01*
X21293Y18701D01*
X21207Y18750D01*
X21112Y18776D01*
D02*
G37*
G36*
X6270Y18272D02*
X6171D01*
X6076Y18246D01*
X5991Y18197D01*
X5921Y18127D01*
X5872Y18042D01*
X5846Y17947D01*
Y17848D01*
X5872Y17753D01*
X5921Y17668D01*
X5991Y17598D01*
X6076Y17549D01*
X6171Y17524D01*
X6270D01*
X6365Y17549D01*
X6450Y17598D01*
X6520Y17668D01*
X6569Y17753D01*
X6594Y17848D01*
Y17947D01*
X6569Y18042D01*
X6520Y18127D01*
X6450Y18197D01*
X6365Y18246D01*
X6270Y18272D01*
D02*
G37*
G36*
X11301Y17828D02*
X10956D01*
Y17483D01*
X11301D01*
Y17828D01*
D02*
G37*
G36*
X10856D02*
X10510D01*
Y17483D01*
X10856D01*
Y17828D01*
D02*
G37*
G36*
X21115Y17797D02*
X21113D01*
Y17452D01*
X21458D01*
Y17454D01*
X21431Y17554D01*
X21379Y17644D01*
X21306Y17718D01*
X21216Y17770D01*
X21115Y17797D01*
D02*
G37*
G36*
X21013D02*
X21011D01*
X20910Y17770D01*
X20820Y17718D01*
X20747Y17644D01*
X20695Y17554D01*
X20668Y17454D01*
Y17452D01*
X21013D01*
Y17797D01*
D02*
G37*
G36*
X11301Y17383D02*
X10956D01*
Y17038D01*
X11301D01*
Y17383D01*
D02*
G37*
G36*
X10856D02*
X10510D01*
Y17038D01*
X10856D01*
Y17383D01*
D02*
G37*
G36*
X21458Y17352D02*
X21113D01*
Y17006D01*
X21115D01*
X21216Y17033D01*
X21306Y17085D01*
X21379Y17159D01*
X21431Y17249D01*
X21458Y17350D01*
Y17352D01*
D02*
G37*
G36*
X21013D02*
X20668D01*
Y17350D01*
X20695Y17249D01*
X20747Y17159D01*
X20820Y17085D01*
X20910Y17033D01*
X21011Y17006D01*
X21013D01*
Y17352D01*
D02*
G37*
G36*
X16270Y16790D02*
Y16625D01*
X16436D01*
X16405Y16698D01*
X16344Y16760D01*
X16270Y16790D01*
D02*
G37*
G36*
X16170D02*
X16097Y16760D01*
X16036Y16698D01*
X16005Y16625D01*
X16170D01*
Y16790D01*
D02*
G37*
G36*
X3948D02*
Y16625D01*
X4113D01*
X4083Y16698D01*
X4021Y16760D01*
X3948Y16790D01*
D02*
G37*
G36*
X3848D02*
X3774Y16760D01*
X3713Y16698D01*
X3682Y16625D01*
X3848D01*
Y16790D01*
D02*
G37*
G36*
X6270Y17272D02*
X6171D01*
X6076Y17246D01*
X5991Y17197D01*
X5921Y17127D01*
X5872Y17042D01*
X5846Y16947D01*
Y16848D01*
X5872Y16753D01*
X5921Y16668D01*
X5991Y16598D01*
X6076Y16549D01*
X6171Y16524D01*
X6270D01*
X6365Y16549D01*
X6450Y16598D01*
X6520Y16668D01*
X6569Y16753D01*
X6594Y16848D01*
Y16947D01*
X6569Y17042D01*
X6520Y17127D01*
X6450Y17197D01*
X6365Y17246D01*
X6270Y17272D01*
D02*
G37*
G36*
X16436Y16525D02*
X16270D01*
Y16359D01*
X16344Y16390D01*
X16405Y16451D01*
X16436Y16525D01*
D02*
G37*
G36*
X16170D02*
X16005D01*
X16036Y16451D01*
X16097Y16390D01*
X16170Y16359D01*
Y16525D01*
D02*
G37*
G36*
X4113D02*
X3948D01*
Y16359D01*
X4021Y16390D01*
X4083Y16451D01*
X4113Y16525D01*
D02*
G37*
G36*
X3848D02*
X3682D01*
X3713Y16451D01*
X3774Y16390D01*
X3848Y16359D01*
Y16525D01*
D02*
G37*
G36*
X10955Y16807D02*
X10856D01*
X10761Y16782D01*
X10676Y16732D01*
X10606Y16663D01*
X10557Y16577D01*
X10532Y16482D01*
Y16384D01*
X10557Y16289D01*
X10606Y16203D01*
X10676Y16134D01*
X10708Y16115D01*
X10694Y16065D01*
X7268D01*
X7268Y16065D01*
X7222Y16056D01*
X7183Y16030D01*
X7183Y16030D01*
X6530Y15377D01*
X6525Y15378D01*
X6507Y15374D01*
X6488Y15372D01*
X6484Y15370D01*
X6479Y15369D01*
X6463Y15359D01*
X6447Y15350D01*
X6439Y15343D01*
X6435Y15340D01*
X6425Y15336D01*
X6410Y15331D01*
X6390Y15326D01*
X6366Y15321D01*
X6338Y15318D01*
X6265Y15314D01*
X6223Y15313D01*
X6200Y15309D01*
X6177Y15304D01*
X6177Y15304D01*
X6177Y15304D01*
X6158Y15291D01*
X6138Y15278D01*
X6138Y15278D01*
X6138Y15278D01*
X6126Y15259D01*
X6076Y15246D01*
X5991Y15197D01*
X5921Y15127D01*
X5872Y15042D01*
X5846Y14947D01*
Y14848D01*
X5872Y14753D01*
X5921Y14668D01*
X5991Y14598D01*
X6076Y14549D01*
X6171Y14524D01*
X6270D01*
X6365Y14549D01*
X6450Y14598D01*
X6520Y14668D01*
X6569Y14753D01*
X6582Y14803D01*
X6600Y14815D01*
X6601Y14815D01*
X6601Y14815D01*
X6614Y14835D01*
X6627Y14854D01*
X6627Y14854D01*
X6627Y14855D01*
X6632Y14877D01*
X6636Y14900D01*
X6636Y14942D01*
X6641Y15015D01*
X6644Y15043D01*
X6649Y15068D01*
X6654Y15087D01*
X6659Y15102D01*
X6663Y15112D01*
X6666Y15116D01*
X6673Y15124D01*
X6682Y15141D01*
X6692Y15156D01*
X6693Y15161D01*
X6695Y15166D01*
X6697Y15184D01*
X6701Y15202D01*
X6700Y15207D01*
X7318Y15824D01*
X10735D01*
X10749Y15774D01*
X10676Y15732D01*
X10606Y15663D01*
X10557Y15577D01*
X10532Y15482D01*
Y15384D01*
X10557Y15289D01*
X10606Y15203D01*
X10676Y15134D01*
X10681Y15131D01*
X10667Y15081D01*
X7283D01*
X7283Y15081D01*
X7237Y15072D01*
X7198Y15046D01*
X7198Y15046D01*
X6530Y14377D01*
X6525Y14378D01*
X6507Y14375D01*
X6488Y14372D01*
X6484Y14370D01*
X6479Y14369D01*
X6463Y14359D01*
X6447Y14350D01*
X6439Y14343D01*
X6435Y14340D01*
X6425Y14336D01*
X6410Y14331D01*
X6390Y14326D01*
X6366Y14321D01*
X6338Y14318D01*
X6265Y14314D01*
X6223Y14313D01*
X6200Y14309D01*
X6177Y14304D01*
X6177Y14304D01*
X6177Y14304D01*
X6158Y14291D01*
X6138Y14278D01*
X6138Y14278D01*
X6138Y14278D01*
X6126Y14260D01*
X6076Y14246D01*
X5991Y14197D01*
X5921Y14127D01*
X5872Y14042D01*
X5846Y13947D01*
Y13848D01*
X5872Y13753D01*
X5921Y13668D01*
X5991Y13598D01*
X6076Y13549D01*
X6171Y13524D01*
X6270D01*
X6365Y13549D01*
X6450Y13598D01*
X6520Y13668D01*
X6569Y13753D01*
X6582Y13803D01*
X6600Y13815D01*
X6601Y13815D01*
X6601Y13815D01*
X6614Y13835D01*
X6627Y13854D01*
X6627Y13854D01*
X6627Y13855D01*
X6632Y13877D01*
X6636Y13900D01*
X6636Y13942D01*
X6641Y14015D01*
X6644Y14043D01*
X6649Y14068D01*
X6654Y14087D01*
X6659Y14102D01*
X6663Y14112D01*
X6666Y14116D01*
X6673Y14124D01*
X6682Y14141D01*
X6692Y14156D01*
X6693Y14161D01*
X6695Y14166D01*
X6697Y14184D01*
X6701Y14202D01*
X6700Y14207D01*
X7333Y14840D01*
X10787D01*
X10793Y14790D01*
X10761Y14782D01*
X10676Y14732D01*
X10606Y14663D01*
X10557Y14577D01*
X10532Y14482D01*
Y14384D01*
X10557Y14289D01*
X10583Y14244D01*
X10578Y14226D01*
X10579Y14224D01*
X10578Y14222D01*
X10583Y14201D01*
X10586Y14180D01*
X10587Y14178D01*
X10588Y14176D01*
X10600Y14158D01*
X10611Y14140D01*
X10624Y14126D01*
X10633Y14115D01*
X10640Y14103D01*
X10647Y14091D01*
X10652Y14077D01*
X10657Y14062D01*
X10661Y14046D01*
X10664Y14027D01*
X10666Y14007D01*
X10667Y13982D01*
X10672Y13960D01*
X10676Y13939D01*
X10677Y13938D01*
X10678Y13936D01*
X10690Y13918D01*
X10702Y13900D01*
X10704Y13899D01*
X10705Y13898D01*
Y10157D01*
X10709Y10138D01*
Y10118D01*
X10716Y10100D01*
X10720Y10081D01*
X10731Y10064D01*
X10739Y10046D01*
X10753Y10032D01*
X10764Y10016D01*
X10780Y10005D01*
X10794Y9991D01*
X10812Y9983D01*
X10829Y9972D01*
X10848Y9968D01*
X10866Y9961D01*
X10886D01*
X10906Y9957D01*
X10925Y9961D01*
X10945D01*
X10963Y9968D01*
X10982Y9972D01*
X10999Y9983D01*
X11017Y9991D01*
X11031Y10005D01*
X11047Y10016D01*
X11058Y10032D01*
X11072Y10046D01*
X11080Y10064D01*
X11091Y10081D01*
X11095Y10100D01*
X11102Y10118D01*
Y10138D01*
X11106Y10157D01*
Y13898D01*
X11107Y13899D01*
X11109Y13900D01*
X11121Y13918D01*
X11133Y13936D01*
X11134Y13938D01*
X11135Y13939D01*
X11139Y13960D01*
X11144Y13982D01*
X11145Y14007D01*
X11147Y14027D01*
X11150Y14046D01*
X11154Y14062D01*
X11159Y14077D01*
X11164Y14091D01*
X11171Y14103D01*
X11178Y14115D01*
X11187Y14126D01*
X11200Y14140D01*
X11212Y14158D01*
X11223Y14176D01*
X11224Y14178D01*
X11225Y14180D01*
X11228Y14201D01*
X11233Y14222D01*
X11232Y14224D01*
X11233Y14226D01*
X11228Y14244D01*
X11254Y14289D01*
X11280Y14384D01*
Y14482D01*
X11254Y14577D01*
X11205Y14663D01*
X11135Y14732D01*
X11050Y14782D01*
X11018Y14790D01*
X11024Y14840D01*
X16339D01*
X16339Y14840D01*
X16385Y14849D01*
X16424Y14875D01*
X16823Y15274D01*
X16823Y15274D01*
X16826Y15275D01*
X16828Y15274D01*
X16849Y15278D01*
X16870Y15281D01*
X16872Y15283D01*
X16874Y15283D01*
X16892Y15295D01*
X16910Y15306D01*
X16914Y15310D01*
X16915Y15311D01*
X16915Y15311D01*
X16916Y15311D01*
X16916Y15311D01*
X16917Y15312D01*
X16918Y15312D01*
X16920Y15312D01*
X16923Y15313D01*
X16931Y15313D01*
X16952Y15317D01*
X16974Y15322D01*
X16975Y15323D01*
X16977Y15323D01*
X16995Y15336D01*
X17013Y15348D01*
X17014Y15349D01*
X17015Y15350D01*
X17027Y15369D01*
X17036Y15382D01*
X17041Y15384D01*
X17096Y15440D01*
X17126Y15512D01*
Y15590D01*
X17096Y15663D01*
X17041Y15718D01*
X17014Y15729D01*
X17009Y15749D01*
X17009Y15785D01*
X17057Y15833D01*
X17087Y15906D01*
Y15984D01*
X17057Y16056D01*
X17001Y16112D01*
X16929Y16142D01*
X16851D01*
X16846Y16140D01*
X16830Y16143D01*
X16808Y16148D01*
X16807Y16148D01*
X16805Y16148D01*
X16784Y16144D01*
X16762Y16140D01*
X16761Y16139D01*
X16759Y16139D01*
X16741Y16127D01*
X16722Y16115D01*
X16717Y16109D01*
X16714Y16108D01*
X16713Y16106D01*
X16712Y16106D01*
X16711Y16105D01*
X16711Y16105D01*
X16710Y16105D01*
X16710Y16105D01*
X16709Y16105D01*
X16703Y16105D01*
X16682Y16100D01*
X16661Y16096D01*
X16659Y16094D01*
X16657Y16094D01*
X16640Y16081D01*
X16622Y16069D01*
X16621Y16067D01*
X16619Y16066D01*
X16619Y16065D01*
X11117D01*
X11103Y16115D01*
X11135Y16134D01*
X11205Y16203D01*
X11254Y16289D01*
X11280Y16384D01*
Y16482D01*
X11254Y16577D01*
X11205Y16663D01*
X11135Y16732D01*
X11050Y16782D01*
X10955Y16807D01*
D02*
G37*
G36*
X6270Y16272D02*
X6171D01*
X6076Y16246D01*
X5991Y16197D01*
X5921Y16127D01*
X5872Y16042D01*
X5846Y15947D01*
Y15848D01*
X5872Y15753D01*
X5921Y15668D01*
X5991Y15598D01*
X6076Y15549D01*
X6171Y15524D01*
X6270D01*
X6365Y15549D01*
X6450Y15598D01*
X6520Y15668D01*
X6569Y15753D01*
X6594Y15848D01*
Y15947D01*
X6569Y16042D01*
X6520Y16127D01*
X6450Y16197D01*
X6365Y16246D01*
X6270Y16272D01*
D02*
G37*
G36*
X29081Y15468D02*
X28982D01*
X28887Y15443D01*
X28802Y15394D01*
X28732Y15324D01*
X28683Y15239D01*
X28657Y15144D01*
Y15045D01*
X28683Y14950D01*
X28732Y14865D01*
X28802Y14795D01*
X28887Y14746D01*
X28982Y14720D01*
X29081D01*
X29176Y14746D01*
X29261Y14795D01*
X29331Y14865D01*
X29380Y14950D01*
X29406Y15045D01*
Y15144D01*
X29380Y15239D01*
X29331Y15324D01*
X29261Y15394D01*
X29176Y15443D01*
X29081Y15468D01*
D02*
G37*
G36*
X28081D02*
X27982D01*
X27887Y15443D01*
X27802Y15394D01*
X27732Y15324D01*
X27683Y15239D01*
X27657Y15144D01*
Y15045D01*
X27683Y14950D01*
X27732Y14865D01*
X27802Y14795D01*
X27887Y14746D01*
X27982Y14720D01*
X28081D01*
X28176Y14746D01*
X28261Y14795D01*
X28331Y14865D01*
X28380Y14950D01*
X28406Y15045D01*
Y15144D01*
X28380Y15239D01*
X28331Y15324D01*
X28261Y15394D01*
X28176Y15443D01*
X28081Y15468D01*
D02*
G37*
G36*
X27081D02*
X26982D01*
X26887Y15443D01*
X26802Y15394D01*
X26732Y15324D01*
X26683Y15239D01*
X26657Y15144D01*
Y15045D01*
X26683Y14950D01*
X26732Y14865D01*
X26802Y14795D01*
X26887Y14746D01*
X26982Y14720D01*
X27081D01*
X27176Y14746D01*
X27261Y14795D01*
X27331Y14865D01*
X27380Y14950D01*
X27406Y15045D01*
Y15144D01*
X27380Y15239D01*
X27331Y15324D01*
X27261Y15394D01*
X27176Y15443D01*
X27081Y15468D01*
D02*
G37*
G36*
X26081D02*
X25982D01*
X25887Y15443D01*
X25802Y15394D01*
X25732Y15324D01*
X25683Y15239D01*
X25670Y15189D01*
X25654Y15179D01*
X25653Y15178D01*
X25651Y15177D01*
X25639Y15159D01*
X25627Y15141D01*
X25626Y15139D01*
X25625Y15138D01*
X25621Y15116D01*
X25616Y15096D01*
X25615Y15076D01*
X25614Y15063D01*
X25611Y15049D01*
X25607Y15036D01*
X25601Y15022D01*
X25594Y15008D01*
X25585Y14993D01*
X25574Y14978D01*
X25561Y14963D01*
X25544Y14944D01*
X25532Y14926D01*
X25520Y14907D01*
X25520Y14906D01*
X25519Y14904D01*
X25515Y14883D01*
X25511Y14861D01*
X25511Y14860D01*
X25511Y14858D01*
X25291Y14638D01*
X25248Y14573D01*
X25232Y14496D01*
Y10394D01*
X25236Y10374D01*
Y10355D01*
X25244Y10336D01*
X25248Y10317D01*
X25259Y10300D01*
X25266Y10282D01*
X25280Y10268D01*
X25291Y10252D01*
X25308Y10241D01*
X25322Y10227D01*
X25340Y10219D01*
X25356Y10208D01*
X25376Y10204D01*
X25394Y10197D01*
X25414D01*
X25433Y10193D01*
X25452Y10197D01*
X25472D01*
X25490Y10204D01*
X25510Y10208D01*
X25526Y10219D01*
X25545Y10227D01*
X25559Y10241D01*
X25575Y10252D01*
X25586Y10268D01*
X25600Y10282D01*
X25608Y10300D01*
X25619Y10317D01*
X25622Y10336D01*
X25630Y10355D01*
Y10374D01*
X25634Y10394D01*
Y13650D01*
X25636Y13699D01*
X25982D01*
Y14094D01*
Y14490D01*
X25776D01*
X25757Y14536D01*
X25795Y14574D01*
X25797Y14574D01*
X25798Y14574D01*
X25820Y14578D01*
X25841Y14582D01*
X25843Y14583D01*
X25844Y14583D01*
X25863Y14595D01*
X25881Y14607D01*
X25900Y14624D01*
X25915Y14637D01*
X25930Y14648D01*
X25945Y14657D01*
X25959Y14664D01*
X25973Y14670D01*
X25986Y14674D01*
X26000Y14677D01*
X26013Y14678D01*
X26033Y14679D01*
X26054Y14684D01*
X26075Y14688D01*
X26076Y14689D01*
X26078Y14690D01*
X26096Y14702D01*
X26114Y14714D01*
X26115Y14716D01*
X26116Y14717D01*
X26126Y14733D01*
X26176Y14746D01*
X26261Y14795D01*
X26331Y14865D01*
X26380Y14950D01*
X26406Y15045D01*
Y15144D01*
X26380Y15239D01*
X26331Y15324D01*
X26261Y15394D01*
X26176Y15443D01*
X26081Y15468D01*
D02*
G37*
G36*
X32570Y14546D02*
Y14381D01*
X32735D01*
X32705Y14454D01*
X32643Y14516D01*
X32570Y14546D01*
D02*
G37*
G36*
X32470D02*
X32396Y14516D01*
X32335Y14454D01*
X32304Y14381D01*
X32470D01*
Y14546D01*
D02*
G37*
G36*
X20601Y14467D02*
Y14302D01*
X20767D01*
X20736Y14376D01*
X20675Y14437D01*
X20601Y14467D01*
D02*
G37*
G36*
X20501D02*
X20428Y14437D01*
X20366Y14376D01*
X20336Y14302D01*
X20501D01*
Y14467D01*
D02*
G37*
G36*
X26427Y14490D02*
X26082D01*
Y14144D01*
X26427D01*
Y14490D01*
D02*
G37*
G36*
X32735Y14281D02*
X32570D01*
Y14115D01*
X32643Y14146D01*
X32705Y14207D01*
X32735Y14281D01*
D02*
G37*
G36*
X32470D02*
X32304D01*
X32335Y14207D01*
X32396Y14146D01*
X32470Y14115D01*
Y14281D01*
D02*
G37*
G36*
X20767Y14202D02*
X20601D01*
Y14037D01*
X20675Y14067D01*
X20736Y14128D01*
X20767Y14202D01*
D02*
G37*
G36*
X20501D02*
X20336D01*
X20366Y14128D01*
X20428Y14067D01*
X20501Y14037D01*
Y14202D01*
D02*
G37*
G36*
X29081Y14468D02*
X28982D01*
X28887Y14443D01*
X28802Y14394D01*
X28732Y14324D01*
X28683Y14239D01*
X28657Y14144D01*
Y14045D01*
X28683Y13950D01*
X28732Y13865D01*
X28802Y13795D01*
X28887Y13746D01*
X28982Y13720D01*
X29081D01*
X29176Y13746D01*
X29261Y13795D01*
X29331Y13865D01*
X29380Y13950D01*
X29406Y14045D01*
Y14144D01*
X29380Y14239D01*
X29331Y14324D01*
X29261Y14394D01*
X29176Y14443D01*
X29081Y14468D01*
D02*
G37*
G36*
X27081D02*
X26982D01*
X26887Y14443D01*
X26802Y14394D01*
X26732Y14324D01*
X26683Y14239D01*
X26657Y14144D01*
Y14045D01*
X26683Y13950D01*
X26732Y13865D01*
X26802Y13795D01*
X26887Y13746D01*
X26982Y13720D01*
X27081D01*
X27176Y13746D01*
X27261Y13795D01*
X27331Y13865D01*
X27380Y13950D01*
X27406Y14045D01*
Y14144D01*
X27380Y14239D01*
X27331Y14324D01*
X27261Y14394D01*
X27176Y14443D01*
X27081Y14468D01*
D02*
G37*
G36*
X26427Y14044D02*
X26082D01*
Y13699D01*
X26427D01*
Y14044D01*
D02*
G37*
G36*
X6273Y13293D02*
X6270D01*
Y12948D01*
X6616D01*
Y12950D01*
X6589Y13050D01*
X6537Y13140D01*
X6463Y13214D01*
X6373Y13266D01*
X6273Y13293D01*
D02*
G37*
G36*
X6170D02*
X6168D01*
X6068Y13266D01*
X5978Y13214D01*
X5904Y13140D01*
X5852Y13050D01*
X5825Y12950D01*
Y12948D01*
X6170D01*
Y13293D01*
D02*
G37*
G36*
X14026Y12853D02*
Y12688D01*
X14192D01*
X14161Y12761D01*
X14100Y12823D01*
X14026Y12853D01*
D02*
G37*
G36*
X13926D02*
X13853Y12823D01*
X13791Y12761D01*
X13761Y12688D01*
X13926D01*
Y12853D01*
D02*
G37*
G36*
X35098Y13327D02*
X34350D01*
Y12579D01*
X35098D01*
Y13327D01*
D02*
G37*
G36*
X6616Y12848D02*
X6270D01*
Y12502D01*
X6273D01*
X6373Y12529D01*
X6463Y12581D01*
X6537Y12655D01*
X6589Y12745D01*
X6616Y12846D01*
Y12848D01*
D02*
G37*
G36*
X6170D02*
X5825D01*
Y12846D01*
X5852Y12745D01*
X5904Y12655D01*
X5978Y12581D01*
X6068Y12529D01*
X6168Y12502D01*
X6170D01*
Y12848D01*
D02*
G37*
G36*
X14192Y12588D02*
X14026D01*
Y12422D01*
X14100Y12453D01*
X14161Y12514D01*
X14192Y12588D01*
D02*
G37*
G36*
X13926D02*
X13761D01*
X13791Y12514D01*
X13853Y12453D01*
X13926Y12422D01*
Y12588D01*
D02*
G37*
G36*
X21437Y20776D02*
X20689D01*
Y20028D01*
X21157D01*
X21161Y20022D01*
X21172Y20014D01*
X21183Y20005D01*
X21192Y20002D01*
X21200Y19996D01*
X21214Y19993D01*
X21227Y19989D01*
X21236Y19989D01*
X21246Y19987D01*
X21249Y19988D01*
X21260Y19978D01*
X21273Y19965D01*
X21292Y19953D01*
X21311Y19941D01*
X21312Y19940D01*
X21313Y19940D01*
X21335Y19936D01*
X21357Y19931D01*
X21358Y19932D01*
X21359Y19931D01*
X21362Y19932D01*
X21848Y19446D01*
Y12326D01*
X21824Y12299D01*
X21774Y12318D01*
Y18811D01*
X21765Y18857D01*
X21739Y18896D01*
X21739Y18896D01*
X21542Y19092D01*
X21543Y19097D01*
X21540Y19115D01*
X21538Y19134D01*
X21535Y19138D01*
X21534Y19143D01*
X21524Y19159D01*
X21515Y19175D01*
X21508Y19183D01*
X21505Y19188D01*
X21501Y19197D01*
X21496Y19212D01*
X21491Y19232D01*
X21487Y19256D01*
X21483Y19284D01*
X21479Y19357D01*
X21479Y19399D01*
X21474Y19422D01*
X21470Y19445D01*
X21469Y19445D01*
X21469Y19445D01*
X21456Y19464D01*
X21443Y19484D01*
X21443Y19484D01*
X21443Y19484D01*
X21425Y19496D01*
X21412Y19546D01*
X21362Y19631D01*
X21293Y19701D01*
X21207Y19750D01*
X21112Y19776D01*
X21014D01*
X20919Y19750D01*
X20833Y19701D01*
X20764Y19631D01*
X20714Y19546D01*
X20689Y19451D01*
Y19352D01*
X20714Y19257D01*
X20764Y19172D01*
X20833Y19102D01*
X20919Y19053D01*
X20968Y19040D01*
X20980Y19022D01*
X20981Y19021D01*
X20981Y19021D01*
X21000Y19008D01*
X21019Y18995D01*
X21020Y18995D01*
X21020Y18995D01*
X21043Y18990D01*
X21065Y18986D01*
X21107Y18986D01*
X21181Y18981D01*
X21208Y18978D01*
X21233Y18974D01*
X21253Y18969D01*
X21267Y18964D01*
X21277Y18959D01*
X21282Y18956D01*
X21290Y18949D01*
X21306Y18941D01*
X21321Y18930D01*
X21326Y18929D01*
X21331Y18927D01*
X21349Y18925D01*
X21367Y18921D01*
X21372Y18922D01*
X21533Y18761D01*
Y11767D01*
X21532Y11767D01*
X21531Y11765D01*
X21529Y11763D01*
X21517Y11746D01*
X21505Y11729D01*
X21504Y11726D01*
X21503Y11724D01*
X21499Y11704D01*
X21494Y11683D01*
X21494Y11677D01*
X21493Y11676D01*
X21493Y11676D01*
X21493Y11675D01*
X21493Y11675D01*
X21493Y11674D01*
X21492Y11673D01*
X21491Y11671D01*
X21489Y11669D01*
X21484Y11664D01*
X21472Y11645D01*
X21460Y11626D01*
X21459Y11625D01*
X21459Y11624D01*
X21455Y11602D01*
X21450Y11580D01*
X21451Y11579D01*
X21450Y11578D01*
X21455Y11556D01*
X21459Y11540D01*
X21457Y11535D01*
Y11457D01*
X21487Y11385D01*
X21542Y11329D01*
X21614Y11299D01*
X21693D01*
X21765Y11329D01*
X21820Y11385D01*
X21850Y11457D01*
Y11535D01*
X21849Y11540D01*
X21852Y11556D01*
X21857Y11578D01*
X21856Y11579D01*
X21857Y11580D01*
X21852Y11602D01*
X21849Y11624D01*
X21848Y11625D01*
X21847Y11626D01*
X21835Y11645D01*
X21823Y11664D01*
X21818Y11669D01*
X21816Y11671D01*
X21815Y11673D01*
X21814Y11674D01*
X21814Y11675D01*
X21814Y11675D01*
X21814Y11676D01*
X21814Y11676D01*
X21813Y11677D01*
X21813Y11683D01*
X21808Y11704D01*
X21804Y11724D01*
X21803Y11726D01*
X21802Y11729D01*
X21790Y11746D01*
X21778Y11763D01*
X21776Y11765D01*
X21775Y11767D01*
X21774Y11767D01*
Y11893D01*
X21824Y11913D01*
X21857Y11880D01*
X21929Y11850D01*
X22008D01*
X22080Y11880D01*
X22135Y11936D01*
X22165Y12008D01*
Y12086D01*
X22164Y12091D01*
X22167Y12107D01*
X22172Y12129D01*
X22171Y12130D01*
X22172Y12132D01*
X22167Y12153D01*
X22163Y12175D01*
X22163Y12176D01*
X22162Y12178D01*
X22150Y12196D01*
X22138Y12215D01*
X22133Y12220D01*
X22131Y12223D01*
X22130Y12224D01*
X22129Y12225D01*
X22129Y12226D01*
X22129Y12226D01*
X22129Y12227D01*
X22129Y12227D01*
X22128Y12228D01*
X22128Y12234D01*
X22123Y12255D01*
X22119Y12276D01*
X22118Y12278D01*
X22117Y12280D01*
X22105Y12297D01*
X22093Y12315D01*
X22091Y12316D01*
X22090Y12318D01*
X22089Y12318D01*
Y19496D01*
X22080Y19542D01*
X22054Y19581D01*
X22054Y19581D01*
X21533Y20102D01*
X21533Y20103D01*
X21533Y20105D01*
X21533Y20108D01*
X21529Y20128D01*
X21526Y20149D01*
X21524Y20151D01*
X21524Y20154D01*
X21512Y20171D01*
X21501Y20189D01*
X21477Y20215D01*
X21477Y20219D01*
X21476Y20228D01*
X21476Y20238D01*
X21471Y20251D01*
X21468Y20265D01*
X21463Y20273D01*
X21460Y20282D01*
X21450Y20292D01*
X21442Y20304D01*
X21437Y20307D01*
Y20776D01*
D02*
G37*
G36*
X28081Y14468D02*
X27982D01*
X27887Y14443D01*
X27802Y14394D01*
X27732Y14324D01*
X27683Y14239D01*
X27657Y14144D01*
Y14045D01*
X27683Y13950D01*
X27709Y13906D01*
X27704Y13884D01*
X27704Y13884D01*
X27704Y13884D01*
X27709Y13861D01*
X27713Y13838D01*
X27713Y13838D01*
X27714Y13838D01*
X27726Y13818D01*
X27739Y13799D01*
X27769Y13769D01*
X27818Y13714D01*
X27835Y13692D01*
X27849Y13672D01*
X27859Y13654D01*
X27866Y13640D01*
X27870Y13630D01*
X27871Y13625D01*
X27872Y13614D01*
X27877Y13597D01*
X27881Y13579D01*
X27884Y13574D01*
X27885Y13569D01*
X27897Y13555D01*
X27907Y13540D01*
X27911Y13537D01*
Y12594D01*
X27910Y12594D01*
X27909Y12592D01*
X27907Y12590D01*
X27895Y12573D01*
X27883Y12556D01*
X27882Y12553D01*
X27881Y12551D01*
X27877Y12530D01*
X27872Y12510D01*
X27872Y12504D01*
X27871Y12503D01*
X27871Y12502D01*
X27871Y12502D01*
X27871Y12502D01*
X27871Y12501D01*
X27870Y12500D01*
X27869Y12498D01*
X27867Y12496D01*
X27862Y12490D01*
X27850Y12472D01*
X27838Y12453D01*
X27837Y12452D01*
X27837Y12451D01*
X27833Y12429D01*
X27828Y12407D01*
X27829Y12406D01*
X27828Y12404D01*
X27833Y12383D01*
X27836Y12366D01*
X27835Y12362D01*
Y12284D01*
X27865Y12211D01*
X27920Y12156D01*
X27992Y12126D01*
X28071D01*
X28143Y12156D01*
X28198Y12211D01*
X28228Y12284D01*
Y12362D01*
X28226Y12366D01*
X28230Y12383D01*
X28235Y12404D01*
X28234Y12406D01*
X28235Y12407D01*
X28230Y12429D01*
X28226Y12451D01*
X28226Y12452D01*
X28225Y12453D01*
X28213Y12472D01*
X28201Y12490D01*
X28196Y12496D01*
X28194Y12498D01*
X28193Y12500D01*
X28192Y12501D01*
X28192Y12502D01*
X28192Y12502D01*
X28192Y12502D01*
X28192Y12503D01*
X28191Y12504D01*
X28191Y12510D01*
X28186Y12530D01*
X28182Y12551D01*
X28181Y12553D01*
X28180Y12556D01*
X28168Y12573D01*
X28156Y12590D01*
X28154Y12592D01*
X28153Y12594D01*
X28152Y12594D01*
Y13537D01*
X28156Y13540D01*
X28166Y13555D01*
X28178Y13569D01*
X28179Y13574D01*
X28182Y13579D01*
X28186Y13597D01*
X28191Y13614D01*
X28192Y13625D01*
X28193Y13630D01*
X28197Y13640D01*
X28204Y13654D01*
X28214Y13672D01*
X28228Y13692D01*
X28245Y13714D01*
X28294Y13769D01*
X28324Y13799D01*
X28337Y13818D01*
X28349Y13838D01*
X28350Y13838D01*
X28350Y13838D01*
X28354Y13861D01*
X28359Y13884D01*
X28359Y13884D01*
X28359Y13884D01*
X28354Y13906D01*
X28380Y13950D01*
X28406Y14045D01*
Y14144D01*
X28380Y14239D01*
X28331Y14324D01*
X28261Y14394D01*
X28176Y14443D01*
X28081Y14468D01*
D02*
G37*
G36*
X6594Y12272D02*
X5846D01*
Y11524D01*
X6594D01*
Y12272D01*
D02*
G37*
G36*
X12601Y11486D02*
Y11321D01*
X12766D01*
X12736Y11395D01*
X12674Y11456D01*
X12601Y11486D01*
D02*
G37*
G36*
X12501D02*
X12427Y11456D01*
X12366Y11395D01*
X12335Y11321D01*
X12501D01*
Y11486D01*
D02*
G37*
G36*
X24606Y14173D02*
X24528D01*
X24455Y14143D01*
X24400Y14088D01*
X24370Y14016D01*
Y13937D01*
X24372Y13933D01*
X24369Y13916D01*
X24364Y13895D01*
X24364Y13893D01*
X24364Y13892D01*
X24368Y13870D01*
X24372Y13849D01*
X24373Y13847D01*
X24373Y13846D01*
X24385Y13828D01*
X24397Y13809D01*
X24402Y13803D01*
X24404Y13801D01*
X24405Y13799D01*
X24406Y13798D01*
X24406Y13798D01*
X24407Y13797D01*
X24407Y13797D01*
X24407Y13796D01*
X24407Y13795D01*
X24407Y13789D01*
X24412Y13769D01*
X24416Y13748D01*
X24418Y13746D01*
X24418Y13744D01*
X24431Y13727D01*
X24442Y13709D01*
X24444Y13708D01*
X24446Y13706D01*
X24447Y13705D01*
Y11964D01*
X24446Y11964D01*
X24444Y11962D01*
X24442Y11960D01*
X24431Y11943D01*
X24418Y11926D01*
X24418Y11923D01*
X24416Y11921D01*
X24412Y11900D01*
X24407Y11880D01*
X24407Y11874D01*
X24407Y11873D01*
X24407Y11873D01*
X24407Y11872D01*
X24406Y11872D01*
X24406Y11871D01*
X24405Y11870D01*
X24404Y11868D01*
X24402Y11866D01*
X24397Y11860D01*
X24385Y11842D01*
X24373Y11823D01*
X24373Y11822D01*
X24372Y11821D01*
X24368Y11799D01*
X24364Y11777D01*
X24364Y11776D01*
X24364Y11774D01*
X24369Y11753D01*
X24372Y11737D01*
X24370Y11732D01*
Y11654D01*
X24400Y11581D01*
X24455Y11526D01*
X24528Y11496D01*
X24606D01*
X24678Y11526D01*
X24723Y11571D01*
X24766Y11545D01*
X24762Y11523D01*
X24758Y11502D01*
X24758Y11500D01*
X24758Y11499D01*
X24762Y11477D01*
X24766Y11461D01*
X24764Y11456D01*
Y11378D01*
X24794Y11306D01*
X24849Y11250D01*
X24921Y11220D01*
X25000D01*
X25072Y11250D01*
X25128Y11306D01*
X25157Y11378D01*
Y11456D01*
X25156Y11461D01*
X25159Y11477D01*
X25164Y11499D01*
X25163Y11500D01*
X25164Y11502D01*
X25159Y11523D01*
X25156Y11545D01*
X25155Y11546D01*
X25155Y11548D01*
X25142Y11566D01*
X25130Y11585D01*
X25125Y11590D01*
X25123Y11593D01*
X25122Y11594D01*
X25121Y11595D01*
X25121Y11596D01*
X25121Y11597D01*
X25121Y11597D01*
X25121Y11597D01*
X25121Y11598D01*
X25120Y11604D01*
X25115Y11625D01*
X25111Y11646D01*
X25110Y11648D01*
X25109Y11650D01*
X25097Y11667D01*
X25085Y11685D01*
X25083Y11686D01*
X25082Y11688D01*
X25081Y11688D01*
Y13469D01*
X25082Y13469D01*
X25083Y13471D01*
X25085Y13473D01*
X25097Y13490D01*
X25109Y13507D01*
X25110Y13510D01*
X25111Y13512D01*
X25115Y13533D01*
X25120Y13553D01*
X25121Y13559D01*
X25121Y13560D01*
X25121Y13561D01*
X25121Y13561D01*
X25121Y13561D01*
X25121Y13562D01*
X25122Y13563D01*
X25123Y13565D01*
X25125Y13567D01*
X25130Y13573D01*
X25142Y13591D01*
X25155Y13610D01*
X25155Y13611D01*
X25156Y13612D01*
X25159Y13634D01*
X25164Y13656D01*
X25163Y13657D01*
X25164Y13659D01*
X25159Y13680D01*
X25156Y13697D01*
X25157Y13701D01*
Y13779D01*
X25128Y13852D01*
X25072Y13907D01*
X25000Y13937D01*
X24921D01*
X24849Y13907D01*
X24818Y13876D01*
X24789Y13886D01*
X24769Y13898D01*
X24765Y13916D01*
X24762Y13933D01*
X24764Y13937D01*
Y14016D01*
X24734Y14088D01*
X24678Y14143D01*
X24606Y14173D01*
D02*
G37*
G36*
X13481Y11476D02*
X13403D01*
X13331Y11446D01*
X13275Y11391D01*
X13245Y11319D01*
Y11240D01*
X13275Y11168D01*
X13331Y11113D01*
X13403Y11083D01*
X13481D01*
X13554Y11113D01*
X13609Y11168D01*
X13639Y11240D01*
Y11319D01*
X13609Y11391D01*
X13554Y11446D01*
X13481Y11476D01*
D02*
G37*
G36*
X12766Y11221D02*
X12601D01*
Y11056D01*
X12674Y11086D01*
X12736Y11148D01*
X12766Y11221D01*
D02*
G37*
G36*
X12501D02*
X12335D01*
X12366Y11148D01*
X12427Y11086D01*
X12501Y11056D01*
Y11221D01*
D02*
G37*
G36*
X28096Y11143D02*
X27751D01*
Y10798D01*
X28096D01*
Y11143D01*
D02*
G37*
G36*
X27651D02*
X27306D01*
Y10798D01*
X27651D01*
Y11143D01*
D02*
G37*
G36*
X19291Y20157D02*
X19213D01*
X19140Y20128D01*
X19085Y20072D01*
X19055Y20000D01*
Y19921D01*
X19057Y19917D01*
X19054Y19901D01*
X19049Y19879D01*
X19049Y19878D01*
X19049Y19876D01*
X19053Y19855D01*
X19057Y19833D01*
X19058Y19832D01*
X19058Y19830D01*
X19070Y19812D01*
X19082Y19793D01*
X19088Y19788D01*
X19089Y19785D01*
X19090Y19784D01*
X19091Y19783D01*
X19092Y19782D01*
X19092Y19781D01*
X19092Y19781D01*
X19092Y19781D01*
X19092Y19780D01*
X19092Y19774D01*
X19097Y19753D01*
X19101Y19732D01*
X19103Y19730D01*
X19103Y19728D01*
X19116Y19711D01*
X19127Y19693D01*
X19129Y19692D01*
X19131Y19690D01*
X19132Y19690D01*
Y11216D01*
X19131Y11216D01*
X19129Y11214D01*
X19127Y11212D01*
X19116Y11195D01*
X19103Y11178D01*
X19103Y11175D01*
X19101Y11173D01*
X19097Y11152D01*
X19092Y11132D01*
X19092Y11126D01*
X19092Y11125D01*
X19092Y11124D01*
X19092Y11124D01*
X19092Y11124D01*
X19091Y11123D01*
X19090Y11122D01*
X19089Y11120D01*
X19088Y11118D01*
X19082Y11112D01*
X19070Y11094D01*
X19058Y11075D01*
X19058Y11074D01*
X19057Y11073D01*
X19053Y11051D01*
X19049Y11029D01*
X19049Y11028D01*
X19049Y11026D01*
X19054Y11005D01*
X19057Y10989D01*
X19055Y10984D01*
Y10906D01*
X19085Y10833D01*
X19140Y10778D01*
X19213Y10748D01*
X19291D01*
X19363Y10778D01*
X19419Y10833D01*
X19449Y10906D01*
Y10984D01*
X19447Y10989D01*
X19450Y11005D01*
X19455Y11026D01*
X19455Y11028D01*
X19455Y11029D01*
X19451Y11051D01*
X19447Y11073D01*
X19446Y11074D01*
X19446Y11075D01*
X19434Y11094D01*
X19422Y11112D01*
X19416Y11118D01*
X19415Y11120D01*
X19413Y11122D01*
X19413Y11123D01*
X19412Y11124D01*
X19412Y11124D01*
X19412Y11124D01*
X19412Y11125D01*
X19412Y11126D01*
X19412Y11132D01*
X19407Y11152D01*
X19403Y11173D01*
X19401Y11175D01*
X19401Y11178D01*
X19388Y11195D01*
X19376Y11212D01*
X19374Y11214D01*
X19373Y11216D01*
X19372Y11216D01*
Y19690D01*
X19373Y19690D01*
X19374Y19692D01*
X19376Y19693D01*
X19388Y19711D01*
X19401Y19728D01*
X19401Y19730D01*
X19403Y19732D01*
X19407Y19753D01*
X19412Y19774D01*
X19412Y19780D01*
X19412Y19781D01*
X19412Y19781D01*
X19412Y19781D01*
X19412Y19782D01*
X19413Y19783D01*
X19413Y19784D01*
X19415Y19785D01*
X19416Y19788D01*
X19422Y19793D01*
X19434Y19812D01*
X19446Y19830D01*
X19446Y19832D01*
X19447Y19833D01*
X19451Y19855D01*
X19455Y19876D01*
X19455Y19878D01*
X19455Y19879D01*
X19450Y19901D01*
X19447Y19917D01*
X19449Y19921D01*
Y20000D01*
X19419Y20072D01*
X19363Y20128D01*
X19291Y20157D01*
D02*
G37*
G36*
X30750Y11122D02*
X30652D01*
X30556Y11097D01*
X30471Y11047D01*
X30401Y10978D01*
X30352Y10892D01*
X30327Y10797D01*
Y10699D01*
X30352Y10604D01*
X30401Y10518D01*
X30471Y10449D01*
X30556Y10400D01*
X30652Y10374D01*
X30750D01*
X30845Y10400D01*
X30930Y10449D01*
X31000Y10518D01*
X31049Y10604D01*
X31075Y10699D01*
Y10797D01*
X31049Y10892D01*
X31000Y10978D01*
X30930Y11047D01*
X30845Y11097D01*
X30750Y11122D01*
D02*
G37*
G36*
X29750D02*
X29652D01*
X29556Y11097D01*
X29471Y11047D01*
X29402Y10978D01*
X29352Y10892D01*
X29327Y10797D01*
Y10699D01*
X29352Y10604D01*
X29402Y10518D01*
X29471Y10449D01*
X29556Y10400D01*
X29652Y10374D01*
X29750D01*
X29845Y10400D01*
X29930Y10449D01*
X30000Y10518D01*
X30049Y10604D01*
X30075Y10699D01*
Y10797D01*
X30049Y10892D01*
X30000Y10978D01*
X29930Y11047D01*
X29845Y11097D01*
X29750Y11122D01*
D02*
G37*
G36*
X28750D02*
X28652D01*
X28556Y11097D01*
X28471Y11047D01*
X28402Y10978D01*
X28352Y10892D01*
X28327Y10797D01*
Y10699D01*
X28352Y10604D01*
X28402Y10518D01*
X28471Y10449D01*
X28556Y10400D01*
X28652Y10374D01*
X28750D01*
X28845Y10400D01*
X28930Y10449D01*
X29000Y10518D01*
X29049Y10604D01*
X29075Y10699D01*
Y10797D01*
X29049Y10892D01*
X29000Y10978D01*
X28930Y11047D01*
X28845Y11097D01*
X28750Y11122D01*
D02*
G37*
G36*
X28096Y10698D02*
X27751D01*
Y10353D01*
X28096D01*
Y10698D01*
D02*
G37*
G36*
X27651D02*
X27306D01*
Y10353D01*
X27651D01*
Y10698D01*
D02*
G37*
G36*
X17530Y10373D02*
Y10207D01*
X17696D01*
X17665Y10281D01*
X17604Y10342D01*
X17530Y10373D01*
D02*
G37*
G36*
X17430D02*
X17357Y10342D01*
X17295Y10281D01*
X17265Y10207D01*
X17430D01*
Y10373D01*
D02*
G37*
G36*
X23031Y10591D02*
X22953D01*
X22881Y10561D01*
X22825Y10505D01*
X22795Y10433D01*
Y10355D01*
X22825Y10282D01*
X22881Y10227D01*
X22953Y10197D01*
X23031D01*
X23104Y10227D01*
X23159Y10282D01*
X23189Y10355D01*
Y10433D01*
X23159Y10505D01*
X23104Y10561D01*
X23031Y10591D01*
D02*
G37*
G36*
X18779Y10512D02*
X18701D01*
X18629Y10482D01*
X18573Y10426D01*
X18543Y10354D01*
Y10276D01*
X18573Y10203D01*
X18629Y10148D01*
X18701Y10118D01*
X18779D01*
X18852Y10148D01*
X18907Y10203D01*
X18937Y10276D01*
Y10354D01*
X18907Y10426D01*
X18852Y10482D01*
X18779Y10512D01*
D02*
G37*
G36*
X17696Y10107D02*
X17530D01*
Y9942D01*
X17604Y9973D01*
X17665Y10034D01*
X17696Y10107D01*
D02*
G37*
G36*
X17430D02*
X17265D01*
X17295Y10034D01*
X17357Y9973D01*
X17430Y9942D01*
Y10107D01*
D02*
G37*
G36*
X1572Y10120D02*
X1570D01*
Y9774D01*
X1915D01*
Y9776D01*
X1888Y9877D01*
X1836Y9967D01*
X1762Y10041D01*
X1672Y10093D01*
X1572Y10120D01*
D02*
G37*
G36*
X1470D02*
X1468D01*
X1367Y10093D01*
X1277Y10041D01*
X1203Y9967D01*
X1151Y9877D01*
X1124Y9776D01*
Y9774D01*
X1470D01*
Y10120D01*
D02*
G37*
G36*
X4894Y10098D02*
X4146D01*
Y9350D01*
X4894D01*
Y10098D01*
D02*
G37*
G36*
X3569D02*
X3470D01*
X3375Y10073D01*
X3290Y10024D01*
X3220Y9954D01*
X3171Y9869D01*
X3146Y9774D01*
Y9675D01*
X3171Y9580D01*
X3220Y9495D01*
X3290Y9425D01*
X3375Y9376D01*
X3470Y9350D01*
X3569D01*
X3664Y9376D01*
X3749Y9425D01*
X3819Y9495D01*
X3868Y9580D01*
X3894Y9675D01*
Y9774D01*
X3868Y9869D01*
X3819Y9954D01*
X3749Y10024D01*
X3664Y10073D01*
X3569Y10098D01*
D02*
G37*
G36*
X2569D02*
X2470D01*
X2375Y10073D01*
X2290Y10024D01*
X2220Y9954D01*
X2171Y9869D01*
X2146Y9774D01*
Y9675D01*
X2171Y9580D01*
X2220Y9495D01*
X2290Y9425D01*
X2375Y9376D01*
X2470Y9350D01*
X2569D01*
X2664Y9376D01*
X2749Y9425D01*
X2819Y9495D01*
X2868Y9580D01*
X2894Y9675D01*
Y9774D01*
X2868Y9869D01*
X2819Y9954D01*
X2749Y10024D01*
X2664Y10073D01*
X2569Y10098D01*
D02*
G37*
G36*
X1915Y9674D02*
X1570D01*
Y9329D01*
X1572D01*
X1672Y9356D01*
X1762Y9408D01*
X1836Y9482D01*
X1888Y9572D01*
X1915Y9672D01*
Y9674D01*
D02*
G37*
G36*
X1470D02*
X1124D01*
Y9672D01*
X1151Y9572D01*
X1203Y9482D01*
X1277Y9408D01*
X1367Y9356D01*
X1468Y9329D01*
X1470D01*
Y9674D01*
D02*
G37*
G36*
X13802Y9409D02*
X13678D01*
X13558Y9377D01*
X13450Y9315D01*
X13362Y9227D01*
X13300Y9119D01*
X13268Y8999D01*
Y8875D01*
X13300Y8755D01*
X13362Y8647D01*
X13450Y8559D01*
X13558Y8497D01*
X13678Y8465D01*
X13802D01*
X13923Y8497D01*
X14030Y8559D01*
X14118Y8647D01*
X14180Y8755D01*
X14213Y8875D01*
Y8999D01*
X14180Y9119D01*
X14118Y9227D01*
X14030Y9315D01*
X13923Y9377D01*
X13802Y9409D01*
D02*
G37*
G36*
X12802D02*
X12678D01*
X12558Y9377D01*
X12450Y9315D01*
X12362Y9227D01*
X12300Y9119D01*
X12268Y8999D01*
Y8875D01*
X12300Y8755D01*
X12362Y8647D01*
X12450Y8559D01*
X12558Y8497D01*
X12678Y8465D01*
X12802D01*
X12923Y8497D01*
X13030Y8559D01*
X13118Y8647D01*
X13180Y8755D01*
X13213Y8875D01*
Y8999D01*
X13180Y9119D01*
X13118Y9227D01*
X13030Y9315D01*
X12923Y9377D01*
X12802Y9409D01*
D02*
G37*
G36*
X18501Y9194D02*
X18381D01*
X18266Y9163D01*
X18162Y9103D01*
X18078Y9019D01*
X18018Y8915D01*
X17987Y8800D01*
Y8680D01*
X18018Y8565D01*
X18078Y8462D01*
X18162Y8377D01*
X18266Y8317D01*
X18381Y8286D01*
X18501D01*
X18616Y8317D01*
X18720Y8377D01*
X18804Y8462D01*
X18864Y8565D01*
X18895Y8680D01*
Y8800D01*
X18864Y8915D01*
X18804Y9019D01*
X18720Y9103D01*
X18616Y9163D01*
X18501Y9194D01*
D02*
G37*
G36*
X16501D02*
X16381D01*
X16266Y9163D01*
X16162Y9103D01*
X16078Y9019D01*
X16018Y8915D01*
X15987Y8800D01*
Y8680D01*
X16018Y8565D01*
X16078Y8462D01*
X16162Y8377D01*
X16266Y8317D01*
X16381Y8286D01*
X16501D01*
X16616Y8317D01*
X16720Y8377D01*
X16804Y8462D01*
X16864Y8565D01*
X16895Y8680D01*
Y8800D01*
X16864Y8915D01*
X16804Y9019D01*
X16720Y9103D01*
X16616Y9163D01*
X16501Y9194D01*
D02*
G37*
G36*
X11704Y7774D02*
Y7609D01*
X11869D01*
X11838Y7683D01*
X11777Y7744D01*
X11704Y7774D01*
D02*
G37*
G36*
X11604D02*
X11530Y7744D01*
X11469Y7683D01*
X11438Y7609D01*
X11604D01*
Y7774D01*
D02*
G37*
G36*
X14853Y7735D02*
Y7570D01*
X15019D01*
X14988Y7643D01*
X14927Y7705D01*
X14853Y7735D01*
D02*
G37*
G36*
X14753D02*
X14680Y7705D01*
X14618Y7643D01*
X14588Y7570D01*
X14753D01*
Y7735D01*
D02*
G37*
G36*
X11869Y7509D02*
X11704D01*
Y7344D01*
X11777Y7374D01*
X11838Y7436D01*
X11869Y7509D01*
D02*
G37*
G36*
X11604D02*
X11438D01*
X11469Y7436D01*
X11530Y7374D01*
X11604Y7344D01*
Y7509D01*
D02*
G37*
G36*
X17609Y7499D02*
Y7333D01*
X17774D01*
X17744Y7407D01*
X17683Y7468D01*
X17609Y7499D01*
D02*
G37*
G36*
X17509D02*
X17436Y7468D01*
X17374Y7407D01*
X17344Y7333D01*
X17509D01*
Y7499D01*
D02*
G37*
G36*
X15019Y7470D02*
X14853D01*
Y7304D01*
X14927Y7335D01*
X14988Y7396D01*
X15019Y7470D01*
D02*
G37*
G36*
X14753D02*
X14588D01*
X14618Y7396D01*
X14680Y7335D01*
X14753Y7304D01*
Y7470D01*
D02*
G37*
G36*
X17774Y7233D02*
X17609D01*
Y7068D01*
X17683Y7099D01*
X17744Y7160D01*
X17774Y7233D01*
D02*
G37*
G36*
X17509D02*
X17344D01*
X17374Y7160D01*
X17436Y7099D01*
X17509Y7068D01*
Y7233D01*
D02*
G37*
G36*
X23042Y6711D02*
Y6546D01*
X23207D01*
X23177Y6620D01*
X23116Y6681D01*
X23042Y6711D01*
D02*
G37*
G36*
X22942D02*
X22869Y6681D01*
X22807Y6620D01*
X22777Y6546D01*
X22942D01*
Y6711D01*
D02*
G37*
G36*
X23207Y6446D02*
X23042D01*
Y6281D01*
X23116Y6311D01*
X23177Y6373D01*
X23207Y6446D01*
D02*
G37*
G36*
X22942D02*
X22777D01*
X22807Y6373D01*
X22869Y6311D01*
X22942Y6281D01*
Y6446D01*
D02*
G37*
G36*
X3189Y6843D02*
X2323D01*
Y5976D01*
X3189D01*
Y6843D01*
D02*
G37*
G36*
X5945Y9882D02*
X5866D01*
X5794Y9852D01*
X5739Y9797D01*
X5709Y9724D01*
Y9646D01*
X5711Y9641D01*
X5707Y9625D01*
X5702Y9603D01*
X5703Y9602D01*
X5702Y9601D01*
X5707Y9579D01*
X5711Y9557D01*
X5711Y9556D01*
X5712Y9555D01*
X5724Y9536D01*
X5736Y9518D01*
X5741Y9512D01*
X5743Y9510D01*
X5744Y9508D01*
X5745Y9507D01*
X5745Y9506D01*
X5745Y9506D01*
X5745Y9505D01*
X5745Y9505D01*
X5746Y9504D01*
X5746Y9498D01*
X5751Y9477D01*
X5755Y9457D01*
X5756Y9455D01*
X5757Y9452D01*
X5769Y9435D01*
X5781Y9418D01*
X5783Y9416D01*
X5784Y9414D01*
X5785Y9414D01*
Y5744D01*
X5784Y5743D01*
X5783Y5741D01*
X5781Y5740D01*
X5769Y5722D01*
X5757Y5705D01*
X5756Y5703D01*
X5755Y5701D01*
X5751Y5680D01*
X5746Y5659D01*
X5746Y5653D01*
X5745Y5653D01*
X5745Y5652D01*
X5745Y5652D01*
X5745Y5651D01*
X5745Y5650D01*
X5744Y5649D01*
X5743Y5648D01*
X5741Y5646D01*
X5736Y5640D01*
X5724Y5621D01*
X5712Y5603D01*
X5711Y5601D01*
X5711Y5600D01*
X5707Y5578D01*
X5702Y5557D01*
X5703Y5555D01*
X5702Y5554D01*
X5707Y5532D01*
X5711Y5516D01*
X5709Y5512D01*
Y5433D01*
X5739Y5361D01*
X5794Y5306D01*
X5866Y5276D01*
X5945D01*
X6017Y5306D01*
X6072Y5361D01*
X6102Y5433D01*
Y5512D01*
X6101Y5516D01*
X6104Y5532D01*
X6109Y5554D01*
X6108Y5555D01*
X6109Y5557D01*
X6104Y5578D01*
X6100Y5600D01*
X6100Y5601D01*
X6099Y5603D01*
X6087Y5621D01*
X6075Y5640D01*
X6070Y5646D01*
X6068Y5648D01*
X6067Y5649D01*
X6066Y5650D01*
X6066Y5651D01*
X6066Y5652D01*
X6066Y5652D01*
X6066Y5653D01*
X6065Y5653D01*
X6065Y5659D01*
X6060Y5680D01*
X6056Y5701D01*
X6055Y5703D01*
X6054Y5705D01*
X6042Y5722D01*
X6030Y5740D01*
X6028Y5741D01*
X6027Y5743D01*
X6026Y5744D01*
Y9414D01*
X6027Y9414D01*
X6028Y9416D01*
X6030Y9418D01*
X6042Y9435D01*
X6054Y9452D01*
X6055Y9455D01*
X6056Y9457D01*
X6060Y9477D01*
X6065Y9498D01*
X6065Y9504D01*
X6066Y9505D01*
X6066Y9505D01*
X6066Y9506D01*
X6066Y9506D01*
X6066Y9507D01*
X6067Y9508D01*
X6068Y9510D01*
X6070Y9512D01*
X6075Y9518D01*
X6087Y9536D01*
X6099Y9555D01*
X6100Y9556D01*
X6100Y9557D01*
X6104Y9579D01*
X6109Y9601D01*
X6108Y9602D01*
X6109Y9603D01*
X6104Y9625D01*
X6101Y9641D01*
X6102Y9646D01*
Y9724D01*
X6072Y9797D01*
X6017Y9852D01*
X5945Y9882D01*
D02*
G37*
G36*
X2813Y5843D02*
X2699D01*
X2589Y5813D01*
X2490Y5756D01*
X2409Y5675D01*
X2352Y5577D01*
X2323Y5466D01*
Y5352D01*
X2352Y5242D01*
X2409Y5144D01*
X2490Y5063D01*
X2589Y5006D01*
X2699Y4976D01*
X2813D01*
X2923Y5006D01*
X3022Y5063D01*
X3102Y5144D01*
X3159Y5242D01*
X3189Y5352D01*
Y5466D01*
X3159Y5577D01*
X3102Y5675D01*
X3022Y5756D01*
X2923Y5813D01*
X2813Y5843D01*
D02*
G37*
G36*
Y4843D02*
X2699D01*
X2589Y4813D01*
X2490Y4756D01*
X2409Y4675D01*
X2352Y4577D01*
X2323Y4466D01*
Y4352D01*
X2352Y4242D01*
X2409Y4144D01*
X2490Y4063D01*
X2589Y4006D01*
X2699Y3976D01*
X2813D01*
X2923Y4006D01*
X3022Y4063D01*
X3102Y4144D01*
X3159Y4242D01*
X3189Y4352D01*
Y4466D01*
X3159Y4577D01*
X3102Y4675D01*
X3022Y4756D01*
X2923Y4813D01*
X2813Y4843D01*
D02*
G37*
G36*
X2816Y3864D02*
X2806D01*
Y3459D01*
X3210D01*
Y3469D01*
X3179Y3585D01*
X3119Y3688D01*
X3035Y3773D01*
X2931Y3833D01*
X2816Y3864D01*
D02*
G37*
G36*
X2706D02*
X2696D01*
X2581Y3833D01*
X2477Y3773D01*
X2392Y3688D01*
X2333Y3585D01*
X2302Y3469D01*
Y3459D01*
X2706D01*
Y3864D01*
D02*
G37*
G36*
X18304Y3387D02*
X18302D01*
Y3042D01*
X18647D01*
Y3044D01*
X18620Y3145D01*
X18568Y3235D01*
X18495Y3308D01*
X18405Y3360D01*
X18304Y3387D01*
D02*
G37*
G36*
X18202D02*
X18200D01*
X18099Y3360D01*
X18009Y3308D01*
X17936Y3235D01*
X17884Y3145D01*
X17857Y3044D01*
Y3042D01*
X18202D01*
Y3387D01*
D02*
G37*
G36*
X3210Y3359D02*
X2806D01*
Y2955D01*
X2816D01*
X2931Y2986D01*
X3035Y3046D01*
X3119Y3130D01*
X3179Y3234D01*
X3210Y3350D01*
Y3359D01*
D02*
G37*
G36*
X2706D02*
X2302D01*
Y3350D01*
X2333Y3234D01*
X2392Y3130D01*
X2477Y3046D01*
X2581Y2986D01*
X2696Y2955D01*
X2706D01*
Y3359D01*
D02*
G37*
G36*
X20275Y10827D02*
X20197D01*
X20125Y10797D01*
X20069Y10741D01*
X20039Y10669D01*
Y10591D01*
X20045Y10577D01*
X20042Y10557D01*
X20039Y10535D01*
X20039Y10534D01*
X20039Y10532D01*
X20045Y10511D01*
X20050Y10490D01*
X20051Y10488D01*
X20051Y10487D01*
X20065Y10469D01*
X20078Y10452D01*
X20083Y10447D01*
X20084Y10446D01*
X20084Y10446D01*
X20084Y10440D01*
X20085Y10439D01*
X20085Y10437D01*
X20090Y10416D01*
X20095Y10395D01*
X20097Y10393D01*
X20097Y10391D01*
X20110Y10374D01*
X20123Y10357D01*
X20124Y10356D01*
Y3549D01*
X20123Y3548D01*
X20117Y3544D01*
X20108Y3529D01*
X20098Y3516D01*
X20096Y3510D01*
X20092Y3504D01*
X20089Y3487D01*
X20085Y3471D01*
X20084Y3461D01*
X20083Y3455D01*
X20079Y3445D01*
X20072Y3431D01*
X20061Y3412D01*
X20048Y3393D01*
X19981Y3310D01*
X19952Y3280D01*
X19940Y3260D01*
X19927Y3241D01*
X19927Y3240D01*
X19927Y3240D01*
X19923Y3217D01*
X19919Y3194D01*
X19919Y3194D01*
X19919Y3194D01*
X19924Y3173D01*
X19903Y3136D01*
X19878Y3041D01*
Y2943D01*
X19903Y2848D01*
X19953Y2762D01*
X20022Y2693D01*
X20108Y2644D01*
X20203Y2618D01*
X20301D01*
X20396Y2644D01*
X20482Y2693D01*
X20551Y2762D01*
X20601Y2848D01*
X20626Y2943D01*
Y3041D01*
X20601Y3136D01*
X20570Y3190D01*
X20573Y3211D01*
X20573Y3211D01*
X20573Y3212D01*
X20568Y3234D01*
X20563Y3257D01*
X20563Y3257D01*
X20563Y3257D01*
X20550Y3276D01*
X20536Y3295D01*
X20507Y3324D01*
X20457Y3377D01*
X20440Y3398D01*
X20426Y3417D01*
X20416Y3434D01*
X20409Y3448D01*
X20406Y3457D01*
X20404Y3462D01*
X20403Y3473D01*
X20398Y3492D01*
X20393Y3512D01*
X20391Y3515D01*
X20390Y3518D01*
X20378Y3534D01*
X20366Y3550D01*
X20365Y3551D01*
Y10362D01*
X20365Y10362D01*
X20369Y10368D01*
X20374Y10372D01*
X20383Y10387D01*
X20393Y10401D01*
X20394Y10407D01*
X20398Y10413D01*
X20400Y10430D01*
X20404Y10446D01*
X20404Y10452D01*
X20404Y10454D01*
X20404Y10455D01*
X20405Y10456D01*
X20405Y10458D01*
X20406Y10460D01*
X20407Y10462D01*
X20409Y10464D01*
X20411Y10468D01*
X20417Y10474D01*
X20427Y10493D01*
X20438Y10513D01*
X20439Y10514D01*
X20439Y10515D01*
X20442Y10537D01*
X20444Y10559D01*
X20444Y10560D01*
X20444Y10562D01*
X20438Y10583D01*
X20433Y10602D01*
Y10669D01*
X20403Y10741D01*
X20348Y10797D01*
X20275Y10827D01*
D02*
G37*
G36*
X19301Y3366D02*
X19203D01*
X19108Y3341D01*
X19022Y3291D01*
X18953Y3222D01*
X18903Y3136D01*
X18878Y3041D01*
Y2943D01*
X18903Y2848D01*
X18953Y2762D01*
X19022Y2693D01*
X19108Y2644D01*
X19203Y2618D01*
X19301D01*
X19396Y2644D01*
X19482Y2693D01*
X19551Y2762D01*
X19600Y2848D01*
X19626Y2943D01*
Y3041D01*
X19600Y3136D01*
X19551Y3222D01*
X19482Y3291D01*
X19396Y3341D01*
X19301Y3366D01*
D02*
G37*
G36*
X17626D02*
X16878D01*
Y2618D01*
X17626D01*
Y3366D01*
D02*
G37*
G36*
X18647Y2942D02*
X18302D01*
Y2597D01*
X18304D01*
X18405Y2624D01*
X18495Y2676D01*
X18568Y2749D01*
X18620Y2840D01*
X18647Y2940D01*
Y2942D01*
D02*
G37*
G36*
X18202D02*
X17857D01*
Y2940D01*
X17884Y2840D01*
X17936Y2749D01*
X18009Y2676D01*
X18099Y2624D01*
X18200Y2597D01*
X18202D01*
Y2942D01*
D02*
G37*
%LPD*%
G36*
X16805Y15862D02*
X16797Y15870D01*
X16788Y15878D01*
X16779Y15884D01*
X16769Y15890D01*
X16760Y15895D01*
X16750Y15899D01*
X16740Y15902D01*
X16729Y15904D01*
X16718Y15905D01*
X16708Y15906D01*
Y15984D01*
X16718Y15985D01*
X16729Y15986D01*
X16740Y15988D01*
X16750Y15991D01*
X16760Y15995D01*
X16769Y16000D01*
X16779Y16005D01*
X16788Y16012D01*
X16797Y16019D01*
X16805Y16028D01*
Y15862D01*
D02*
G37*
G36*
X16928Y15433D02*
X16916Y15433D01*
X16905Y15432D01*
X16894Y15430D01*
X16883Y15427D01*
X16873Y15424D01*
X16863Y15419D01*
X16854Y15414D01*
X16845Y15409D01*
X16836Y15402D01*
X16828Y15394D01*
X16772Y15450D01*
X16780Y15458D01*
X16787Y15467D01*
X16792Y15476D01*
X16797Y15485D01*
X16802Y15495D01*
X16805Y15505D01*
X16808Y15516D01*
X16810Y15527D01*
X16811Y15538D01*
X16811Y15550D01*
X16928Y15433D01*
D02*
G37*
G36*
X16619Y15824D02*
X16621Y15822D01*
X16622Y15820D01*
X16640Y15809D01*
X16657Y15796D01*
X16659Y15796D01*
X16661Y15794D01*
X16682Y15790D01*
X16703Y15785D01*
X16709Y15785D01*
X16710Y15785D01*
X16710Y15785D01*
X16711Y15785D01*
X16711Y15784D01*
X16712Y15784D01*
X16713Y15783D01*
X16714Y15782D01*
X16717Y15780D01*
X16722Y15775D01*
X16741Y15763D01*
X16759Y15751D01*
X16761Y15751D01*
X16762Y15750D01*
X16776Y15747D01*
X16787Y15730D01*
X16793Y15693D01*
X16762Y15663D01*
X16760Y15658D01*
X16747Y15649D01*
X16728Y15637D01*
X16727Y15636D01*
X16726Y15635D01*
X16714Y15617D01*
X16701Y15599D01*
X16701Y15597D01*
X16700Y15596D01*
X16695Y15574D01*
X16691Y15553D01*
X16690Y15545D01*
X16690Y15542D01*
X16690Y15540D01*
X16690Y15539D01*
X16689Y15538D01*
X16689Y15538D01*
X16689Y15537D01*
X16689Y15537D01*
X16688Y15536D01*
X16684Y15532D01*
X16673Y15514D01*
X16661Y15496D01*
X16661Y15494D01*
X16659Y15492D01*
X16656Y15471D01*
X16652Y15450D01*
X16652Y15448D01*
X16652Y15445D01*
X16652Y15445D01*
X16289Y15081D01*
X11144D01*
X11130Y15131D01*
X11135Y15134D01*
X11205Y15203D01*
X11254Y15289D01*
X11280Y15384D01*
Y15482D01*
X11254Y15577D01*
X11205Y15663D01*
X11135Y15732D01*
X11062Y15774D01*
X11076Y15824D01*
X16619D01*
X16619Y15824D01*
D02*
G37*
G36*
X6581Y15202D02*
X6568Y15187D01*
X6556Y15168D01*
X6546Y15147D01*
X6538Y15122D01*
X6531Y15093D01*
X6525Y15061D01*
X6521Y15026D01*
X6516Y14946D01*
X6516Y14901D01*
X6223Y15193D01*
X6269Y15193D01*
X6349Y15198D01*
X6384Y15202D01*
X6416Y15208D01*
X6444Y15215D01*
X6470Y15224D01*
X6491Y15234D01*
X6510Y15245D01*
X6525Y15258D01*
X6581Y15202D01*
D02*
G37*
G36*
X11095Y14204D02*
X11080Y14185D01*
X11067Y14164D01*
X11056Y14143D01*
X11046Y14120D01*
X11038Y14095D01*
X11032Y14070D01*
X11027Y14043D01*
X11025Y14015D01*
X11024Y13985D01*
X10787D01*
X10787Y14015D01*
X10784Y14043D01*
X10779Y14070D01*
X10773Y14095D01*
X10765Y14120D01*
X10756Y14143D01*
X10744Y14164D01*
X10731Y14185D01*
X10716Y14204D01*
X10699Y14222D01*
X11112D01*
X11095Y14204D01*
D02*
G37*
G36*
X6581Y14202D02*
X6568Y14187D01*
X6556Y14168D01*
X6546Y14147D01*
X6538Y14122D01*
X6531Y14093D01*
X6525Y14061D01*
X6521Y14026D01*
X6516Y13946D01*
X6516Y13901D01*
X6223Y14193D01*
X6269Y14193D01*
X6349Y14198D01*
X6384Y14202D01*
X6416Y14208D01*
X6444Y14215D01*
X6470Y14224D01*
X6491Y14234D01*
X6510Y14245D01*
X6525Y14258D01*
X6581Y14202D01*
D02*
G37*
%LPC*%
G36*
X16270Y15688D02*
Y15522D01*
X16436D01*
X16405Y15596D01*
X16344Y15657D01*
X16270Y15688D01*
D02*
G37*
G36*
X16170D02*
X16097Y15657D01*
X16036Y15596D01*
X16005Y15522D01*
X16170D01*
Y15688D01*
D02*
G37*
G36*
X16436Y15422D02*
X16270D01*
Y15257D01*
X16344Y15288D01*
X16405Y15349D01*
X16436Y15422D01*
D02*
G37*
G36*
X16170D02*
X16005D01*
X16036Y15349D01*
X16097Y15288D01*
X16170Y15257D01*
Y15422D01*
D02*
G37*
%LPD*%
G36*
X26029Y14799D02*
X26004Y14798D01*
X25980Y14795D01*
X25956Y14790D01*
X25932Y14783D01*
X25909Y14774D01*
X25886Y14762D01*
X25864Y14748D01*
X25842Y14732D01*
X25820Y14714D01*
X25798Y14694D01*
X25631Y14861D01*
X25652Y14883D01*
X25670Y14905D01*
X25685Y14927D01*
X25699Y14949D01*
X25711Y14972D01*
X25720Y14995D01*
X25727Y15019D01*
X25732Y15043D01*
X25735Y15067D01*
X25736Y15092D01*
X26029Y14799D01*
D02*
G37*
G36*
X21353Y20213D02*
X21350Y20205D01*
Y20197D01*
X21353Y20188D01*
X21357Y20177D01*
X21364Y20165D01*
X21373Y20153D01*
X21384Y20139D01*
X21413Y20108D01*
X21357Y20052D01*
X21341Y20067D01*
X21312Y20092D01*
X21299Y20101D01*
X21287Y20108D01*
X21277Y20112D01*
X21267Y20114D01*
X21259D01*
X21252Y20112D01*
X21246Y20108D01*
X21357Y20219D01*
X21353Y20213D01*
D02*
G37*
G36*
X21358Y19353D02*
X21363Y19273D01*
X21367Y19238D01*
X21373Y19206D01*
X21380Y19178D01*
X21389Y19153D01*
X21399Y19131D01*
X21410Y19112D01*
X21423Y19097D01*
X21367Y19042D01*
X21352Y19054D01*
X21334Y19066D01*
X21312Y19076D01*
X21287Y19084D01*
X21258Y19091D01*
X21227Y19097D01*
X21191Y19101D01*
X21111Y19106D01*
X21066Y19106D01*
X21358Y19399D01*
X21358Y19353D01*
D02*
G37*
G36*
X22008Y12219D02*
X22010Y12208D01*
X22012Y12197D01*
X22015Y12187D01*
X22019Y12177D01*
X22023Y12168D01*
X22029Y12158D01*
X22036Y12149D01*
X22043Y12140D01*
X22051Y12132D01*
X21886D01*
X21894Y12140D01*
X21901Y12149D01*
X21908Y12158D01*
X21914Y12168D01*
X21918Y12177D01*
X21922Y12187D01*
X21925Y12197D01*
X21927Y12208D01*
X21929Y12219D01*
X21929Y12229D01*
X22008D01*
X22008Y12219D01*
D02*
G37*
G36*
X21693Y11667D02*
X21695Y11657D01*
X21697Y11646D01*
X21700Y11636D01*
X21704Y11626D01*
X21709Y11616D01*
X21714Y11607D01*
X21721Y11598D01*
X21728Y11589D01*
X21736Y11580D01*
X21571D01*
X21579Y11589D01*
X21586Y11598D01*
X21593Y11607D01*
X21599Y11616D01*
X21603Y11626D01*
X21607Y11636D01*
X21610Y11646D01*
X21612Y11657D01*
X21614Y11667D01*
X21614Y11678D01*
X21693D01*
X21693Y11667D01*
D02*
G37*
G36*
X28206Y13852D02*
X28153Y13791D01*
X28131Y13763D01*
X28113Y13737D01*
X28098Y13712D01*
X28086Y13688D01*
X28078Y13665D01*
X28073Y13644D01*
X28071Y13625D01*
X27992D01*
X27990Y13644D01*
X27985Y13665D01*
X27977Y13688D01*
X27965Y13712D01*
X27950Y13737D01*
X27932Y13763D01*
X27910Y13791D01*
X27857Y13852D01*
X27825Y13884D01*
X28238D01*
X28206Y13852D01*
D02*
G37*
G36*
X28071Y12494D02*
X28073Y12483D01*
X28075Y12473D01*
X28078Y12463D01*
X28082Y12453D01*
X28086Y12443D01*
X28092Y12434D01*
X28099Y12425D01*
X28106Y12416D01*
X28114Y12407D01*
X27949D01*
X27957Y12416D01*
X27964Y12425D01*
X27971Y12434D01*
X27977Y12443D01*
X27981Y12453D01*
X27985Y12463D01*
X27988Y12473D01*
X27990Y12483D01*
X27992Y12494D01*
X27992Y12505D01*
X28071D01*
X28071Y12494D01*
D02*
G37*
G36*
X24641Y13883D02*
X24634Y13875D01*
X24628Y13865D01*
X24622Y13856D01*
X24617Y13846D01*
X24613Y13836D01*
X24610Y13826D01*
X24608Y13816D01*
X24607Y13805D01*
X24606Y13794D01*
X24528D01*
X24527Y13805D01*
X24526Y13816D01*
X24524Y13826D01*
X24521Y13836D01*
X24517Y13846D01*
X24512Y13856D01*
X24506Y13865D01*
X24500Y13875D01*
X24492Y13883D01*
X24484Y13892D01*
X24650D01*
X24641Y13883D01*
D02*
G37*
G36*
X25035Y13647D02*
X25028Y13638D01*
X25021Y13629D01*
X25016Y13620D01*
X25011Y13610D01*
X25007Y13600D01*
X25004Y13590D01*
X25002Y13580D01*
X25000Y13569D01*
X25000Y13558D01*
X24921D01*
X24921Y13569D01*
X24920Y13580D01*
X24917Y13590D01*
X24914Y13600D01*
X24910Y13610D01*
X24906Y13620D01*
X24900Y13629D01*
X24894Y13638D01*
X24886Y13647D01*
X24878Y13656D01*
X25043D01*
X25035Y13647D01*
D02*
G37*
G36*
X24607Y11864D02*
X24608Y11853D01*
X24610Y11843D01*
X24613Y11833D01*
X24617Y11823D01*
X24622Y11813D01*
X24628Y11804D01*
X24634Y11795D01*
X24641Y11786D01*
X24650Y11777D01*
X24484D01*
X24492Y11786D01*
X24500Y11795D01*
X24506Y11804D01*
X24512Y11813D01*
X24517Y11823D01*
X24521Y11833D01*
X24524Y11843D01*
X24526Y11853D01*
X24527Y11864D01*
X24528Y11875D01*
X24606D01*
X24607Y11864D01*
D02*
G37*
G36*
X25000Y11589D02*
X25002Y11578D01*
X25004Y11567D01*
X25007Y11557D01*
X25011Y11547D01*
X25016Y11538D01*
X25021Y11528D01*
X25028Y11519D01*
X25035Y11510D01*
X25043Y11502D01*
X24878D01*
X24886Y11510D01*
X24894Y11519D01*
X24900Y11528D01*
X24906Y11538D01*
X24910Y11547D01*
X24914Y11557D01*
X24917Y11567D01*
X24920Y11578D01*
X24921Y11589D01*
X24921Y11600D01*
X25000D01*
X25000Y11589D01*
D02*
G37*
G36*
X19326Y19868D02*
X19319Y19859D01*
X19313Y19850D01*
X19307Y19840D01*
X19302Y19831D01*
X19298Y19821D01*
X19295Y19811D01*
X19293Y19800D01*
X19292Y19789D01*
X19291Y19778D01*
X19213D01*
X19212Y19789D01*
X19211Y19800D01*
X19209Y19811D01*
X19206Y19821D01*
X19202Y19831D01*
X19197Y19840D01*
X19191Y19850D01*
X19185Y19859D01*
X19178Y19868D01*
X19169Y19876D01*
X19335D01*
X19326Y19868D01*
D02*
G37*
G36*
X19292Y11116D02*
X19293Y11105D01*
X19295Y11095D01*
X19298Y11085D01*
X19302Y11075D01*
X19307Y11065D01*
X19313Y11056D01*
X19319Y11047D01*
X19326Y11038D01*
X19335Y11029D01*
X19169D01*
X19178Y11038D01*
X19185Y11047D01*
X19191Y11056D01*
X19197Y11065D01*
X19202Y11075D01*
X19206Y11085D01*
X19209Y11095D01*
X19211Y11105D01*
X19212Y11116D01*
X19213Y11127D01*
X19291D01*
X19292Y11116D01*
D02*
G37*
G36*
X5980Y9592D02*
X5973Y9583D01*
X5966Y9574D01*
X5960Y9565D01*
X5956Y9555D01*
X5952Y9545D01*
X5949Y9535D01*
X5947Y9524D01*
X5945Y9514D01*
X5945Y9503D01*
X5866D01*
X5866Y9514D01*
X5864Y9524D01*
X5862Y9535D01*
X5859Y9545D01*
X5855Y9555D01*
X5851Y9565D01*
X5845Y9574D01*
X5838Y9583D01*
X5831Y9592D01*
X5823Y9601D01*
X5988D01*
X5980Y9592D01*
D02*
G37*
G36*
X5945Y5644D02*
X5947Y5633D01*
X5949Y5623D01*
X5952Y5612D01*
X5956Y5602D01*
X5960Y5593D01*
X5966Y5583D01*
X5973Y5574D01*
X5980Y5565D01*
X5988Y5557D01*
X5823D01*
X5831Y5565D01*
X5838Y5574D01*
X5845Y5583D01*
X5851Y5593D01*
X5855Y5602D01*
X5859Y5612D01*
X5862Y5623D01*
X5864Y5633D01*
X5866Y5644D01*
X5866Y5655D01*
X5945D01*
X5945Y5644D01*
D02*
G37*
G36*
X20317Y10542D02*
X20310Y10533D01*
X20303Y10523D01*
X20298Y10513D01*
X20294Y10503D01*
X20290Y10493D01*
X20287Y10483D01*
X20285Y10472D01*
X20284Y10462D01*
X20283Y10451D01*
X20205Y10445D01*
X20204Y10456D01*
X20203Y10467D01*
X20201Y10477D01*
X20197Y10487D01*
X20193Y10497D01*
X20188Y10506D01*
X20182Y10515D01*
X20176Y10524D01*
X20168Y10532D01*
X20159Y10540D01*
X20324Y10551D01*
X20317Y10542D01*
D02*
G37*
G36*
X20285Y3443D02*
X20290Y3422D01*
X20299Y3399D01*
X20311Y3376D01*
X20326Y3351D01*
X20344Y3325D01*
X20367Y3297D01*
X20421Y3239D01*
X20453Y3208D01*
X20040Y3197D01*
X20071Y3231D01*
X20145Y3321D01*
X20163Y3349D01*
X20178Y3374D01*
X20190Y3398D01*
X20198Y3421D01*
X20203Y3441D01*
X20205Y3461D01*
X20283Y3463D01*
X20285Y3443D01*
D02*
G37*
G54D12*
X5906Y5472D02*
Y9685D01*
X7283Y14961D02*
X16339D01*
X16929Y15551D01*
X6220Y13898D02*
X7283Y14961D01*
X6220Y14898D02*
X7268Y15945D01*
X16890D01*
X20244Y3000D02*
X20252Y2992D01*
X20244Y3000D02*
Y10622D01*
X20236Y10630D02*
X20244Y10622D01*
X19252Y10945D02*
Y19961D01*
X21063Y20402D02*
X21969Y19496D01*
Y12047D02*
Y19496D01*
X21654Y11496D02*
Y18811D01*
X21063Y19402D02*
X21654Y18811D01*
X24961Y11417D02*
Y13740D01*
X24567Y11693D02*
Y13976D01*
X28031Y12323D02*
Y14094D01*
G54D58*
X11063Y18898D02*
X11134Y18968D01*
X10720Y23642D02*
X11134Y23228D01*
Y18968D02*
Y23228D01*
X10610Y23642D02*
X10720D01*
X10512Y23740D02*
X10610Y23642D01*
G54D60*
X25433Y10394D02*
Y14496D01*
X26031Y15094D01*
X10906Y10157D02*
Y14433D01*
G54D63*
X10063Y18898D02*
D03*
X29032Y15094D02*
D03*
X28031D02*
D03*
X27032D02*
D03*
X26031D02*
D03*
X29032Y14094D02*
D03*
X28031D02*
D03*
X27032D02*
D03*
X30701Y10748D02*
D03*
X29701D02*
D03*
X28701D02*
D03*
X12165Y29189D02*
D03*
X18252Y2992D02*
D03*
X19252D02*
D03*
X20252D02*
D03*
X6220Y18898D02*
D03*
Y17898D02*
D03*
Y16898D02*
D03*
Y15898D02*
D03*
Y14898D02*
D03*
Y13898D02*
D03*
Y12898D02*
D03*
X21063Y19402D02*
D03*
Y18402D02*
D03*
Y17402D02*
D03*
X10512Y22740D02*
D03*
X3520Y9724D02*
D03*
X2520D02*
D03*
X1520D02*
D03*
X10906Y14433D02*
D03*
Y15433D02*
D03*
Y16433D02*
D03*
G54D64*
X11063Y18898D02*
D03*
X26031Y14094D02*
D03*
X27701Y10748D02*
D03*
X17252Y2992D02*
D03*
X4520Y9724D02*
D03*
X34724Y12953D02*
D03*
G54D65*
X12165Y28189D02*
D03*
X6220Y11898D02*
D03*
X21063Y20402D02*
D03*
X10512Y23740D02*
D03*
X10906Y17433D02*
D03*
G54D66*
X2756Y6409D02*
D03*
G54D67*
Y5409D02*
D03*
Y4409D02*
D03*
Y3409D02*
D03*
G54D68*
X12557Y31969D02*
D03*
X4057D02*
D03*
X6057D02*
D03*
X10557D02*
D03*
G54D69*
X1575Y30205D02*
D03*
Y32205D02*
D03*
G54D70*
X16441Y8740D02*
D03*
X18441D02*
D03*
G54D71*
X12740Y8937D02*
D03*
X13740D02*
D03*
G54D72*
X11063Y24764D02*
D03*
X21063Y28189D02*
D03*
X8567Y29189D02*
D03*
X16639Y31755D02*
D03*
X14685Y28661D02*
D03*
Y30276D02*
D03*
Y29469D02*
D03*
X18425Y29567D02*
D03*
X32520Y14331D02*
D03*
X20551Y14252D02*
D03*
X17323Y19370D02*
D03*
X16220Y15472D02*
D03*
Y16575D02*
D03*
X3898D02*
D03*
X22992Y6496D02*
D03*
X12551Y11271D02*
D03*
X17480Y10157D02*
D03*
X17559Y7283D02*
D03*
X14803Y7520D02*
D03*
X11654Y7559D02*
D03*
X9488Y22402D02*
D03*
X8504Y22441D02*
D03*
X7165Y25709D02*
D03*
X5906Y9685D02*
D03*
X22992Y10394D02*
D03*
X25433D02*
D03*
X18740Y10315D02*
D03*
X10906Y10157D02*
D03*
X16929Y15551D02*
D03*
X16890Y15945D02*
D03*
X20236Y10630D02*
D03*
X19252Y19961D02*
D03*
Y10945D02*
D03*
X13442Y11280D02*
D03*
X13976Y12638D02*
D03*
X5906Y5472D02*
D03*
X21969Y12047D02*
D03*
X21654Y11496D02*
D03*
X24961Y11417D02*
D03*
X24567Y11693D02*
D03*
X24961Y13740D02*
D03*
X24567Y13976D02*
D03*
X28031Y12323D02*
D03*
X3346Y21339D02*
D03*
X2559D02*
D03*
X1772D02*
D03*
X3346Y23150D02*
D03*
X2559D02*
D03*
X1772D02*
D03*
M02*
