G04*
G04 #@! TF.GenerationSoftware,Altium Limited,Altium Designer,22.2.1 (43)*
G04*
G04 Layer_Color=8388736*
%FSLAX24Y24*%
%MOIN*%
G70*
G04*
G04 #@! TF.SameCoordinates,347B6F40-84C8-4AAD-98B2-BBB097A6B523*
G04*
G04*
G04 #@! TF.FilePolarity,Negative*
G04*
G01*
G75*
%ADD14C,0.0100*%
G04:AMPARAMS|DCode=31|XSize=39.4mil|YSize=133.9mil|CornerRadius=9.8mil|HoleSize=0mil|Usage=FLASHONLY|Rotation=270.000|XOffset=0mil|YOffset=0mil|HoleType=Round|Shape=RoundedRectangle|*
%AMROUNDEDRECTD31*
21,1,0.0394,0.1142,0,0,270.0*
21,1,0.0197,0.1339,0,0,270.0*
1,1,0.0197,-0.0571,-0.0098*
1,1,0.0197,-0.0571,0.0098*
1,1,0.0197,0.0571,0.0098*
1,1,0.0197,0.0571,-0.0098*
%
%ADD31ROUNDEDRECTD31*%
%ADD32C,0.0200*%
%ADD33R,0.2820X0.4380*%
%ADD34R,0.0395X0.0552*%
%ADD35R,0.0630X0.0580*%
%ADD36R,0.0580X0.0630*%
%ADD37R,0.0671X0.1025*%
%ADD38R,0.0867X0.0867*%
%ADD39R,0.0630X0.0474*%
%ADD40R,0.0474X0.0630*%
%ADD41R,0.0710X0.1458*%
G04:AMPARAMS|DCode=42|XSize=69.4mil|YSize=19.8mil|CornerRadius=8.1mil|HoleSize=0mil|Usage=FLASHONLY|Rotation=90.000|XOffset=0mil|YOffset=0mil|HoleType=Round|Shape=RoundedRectangle|*
%AMROUNDEDRECTD42*
21,1,0.0694,0.0035,0,0,90.0*
21,1,0.0531,0.0198,0,0,90.0*
1,1,0.0163,0.0018,0.0266*
1,1,0.0163,0.0018,-0.0266*
1,1,0.0163,-0.0018,-0.0266*
1,1,0.0163,-0.0018,0.0266*
%
%ADD42ROUNDEDRECTD42*%
G04:AMPARAMS|DCode=43|XSize=69.4mil|YSize=19.8mil|CornerRadius=8.1mil|HoleSize=0mil|Usage=FLASHONLY|Rotation=180.000|XOffset=0mil|YOffset=0mil|HoleType=Round|Shape=RoundedRectangle|*
%AMROUNDEDRECTD43*
21,1,0.0694,0.0035,0,0,180.0*
21,1,0.0531,0.0198,0,0,180.0*
1,1,0.0163,-0.0266,0.0018*
1,1,0.0163,0.0266,0.0018*
1,1,0.0163,0.0266,-0.0018*
1,1,0.0163,-0.0266,-0.0018*
%
%ADD43ROUNDEDRECTD43*%
G04:AMPARAMS|DCode=44|XSize=135.6mil|YSize=59.6mil|CornerRadius=7.9mil|HoleSize=0mil|Usage=FLASHONLY|Rotation=90.000|XOffset=0mil|YOffset=0mil|HoleType=Round|Shape=RoundedRectangle|*
%AMROUNDEDRECTD44*
21,1,0.1356,0.0438,0,0,90.0*
21,1,0.1198,0.0596,0,0,90.0*
1,1,0.0157,0.0219,0.0599*
1,1,0.0157,0.0219,-0.0599*
1,1,0.0157,-0.0219,-0.0599*
1,1,0.0157,-0.0219,0.0599*
%
%ADD44ROUNDEDRECTD44*%
G04:AMPARAMS|DCode=45|XSize=44.6mil|YSize=59.6mil|CornerRadius=6.7mil|HoleSize=0mil|Usage=FLASHONLY|Rotation=90.000|XOffset=0mil|YOffset=0mil|HoleType=Round|Shape=RoundedRectangle|*
%AMROUNDEDRECTD45*
21,1,0.0446,0.0461,0,0,90.0*
21,1,0.0311,0.0596,0,0,90.0*
1,1,0.0135,0.0230,0.0156*
1,1,0.0135,0.0230,-0.0156*
1,1,0.0135,-0.0230,-0.0156*
1,1,0.0135,-0.0230,0.0156*
%
%ADD45ROUNDEDRECTD45*%
G04:AMPARAMS|DCode=46|XSize=47.4mil|YSize=141.9mil|CornerRadius=13.8mil|HoleSize=0mil|Usage=FLASHONLY|Rotation=270.000|XOffset=0mil|YOffset=0mil|HoleType=Round|Shape=RoundedRectangle|*
%AMROUNDEDRECTD46*
21,1,0.0474,0.1142,0,0,270.0*
21,1,0.0197,0.1419,0,0,270.0*
1,1,0.0277,-0.0571,-0.0098*
1,1,0.0277,-0.0571,0.0098*
1,1,0.0277,0.0571,0.0098*
1,1,0.0277,0.0571,-0.0098*
%
%ADD46ROUNDEDRECTD46*%
%ADD47C,0.0671*%
%ADD48R,0.0671X0.0671*%
%ADD49R,0.0671X0.0671*%
%ADD50R,0.0789X0.0789*%
%ADD51C,0.0789*%
%ADD52O,0.1080X0.1280*%
%ADD53R,0.1064X0.1064*%
%ADD54C,0.0830*%
%ADD55C,0.0867*%
%ADD56C,0.0316*%
G54D14*
X24060Y33450D02*
X24013Y33518D01*
X23935Y33544D01*
X24060Y33450D02*
X24013Y33518D01*
X23935Y33544D01*
X24231Y32831D02*
X24226Y32867D01*
X24231Y32831D02*
X24226Y32867D01*
X23935Y29119D02*
X24013Y29145D01*
X24060Y29212D01*
X23935Y29119D02*
X24013Y29145D01*
X24060Y29212D01*
X24226Y29796D02*
X24231Y29831D01*
X24226Y29796D02*
X24231Y29831D01*
X23959Y29096D02*
X24009Y29146D01*
X21209Y29096D02*
X23959D01*
X21209D02*
Y29346D01*
Y33542D01*
X21211Y33544D01*
X23435D01*
X23935D01*
X24060Y33450D02*
X24226Y32867D01*
X23435Y29119D02*
X23935D01*
X24231Y29831D02*
Y32831D01*
X24060Y29213D02*
X24226Y29796D01*
G54D31*
X18359Y31346D02*
D03*
G54D32*
X24085Y29508D02*
Y33148D01*
G54D33*
X22669Y31328D02*
D03*
G54D34*
X21496Y9921D02*
D03*
Y7165D02*
D03*
G54D35*
X9488Y24730D02*
D03*
Y25630D02*
D03*
X13465Y11715D02*
D03*
Y12615D02*
D03*
X20118Y15135D02*
D03*
Y14235D02*
D03*
X12559Y11676D02*
D03*
Y12576D02*
D03*
X33504Y13875D02*
D03*
Y12975D02*
D03*
X17835Y16794D02*
D03*
Y17694D02*
D03*
X30709Y8723D02*
D03*
Y9623D02*
D03*
X22992Y9505D02*
D03*
Y8605D02*
D03*
X4582Y5457D02*
D03*
Y6357D02*
D03*
X29685Y8723D02*
D03*
Y9623D02*
D03*
X32520Y13875D02*
D03*
Y12975D02*
D03*
X22992Y6929D02*
D03*
Y7829D02*
D03*
X14803Y8915D02*
D03*
Y8015D02*
D03*
X1772Y21794D02*
D03*
Y22694D02*
D03*
X11654Y8954D02*
D03*
Y8054D02*
D03*
X3346Y21794D02*
D03*
Y22694D02*
D03*
X9488Y22818D02*
D03*
Y23718D02*
D03*
X2559Y21794D02*
D03*
Y22694D02*
D03*
X16614Y31755D02*
D03*
Y32655D02*
D03*
X17835Y19370D02*
D03*
Y18470D02*
D03*
G54D36*
X18245Y10315D02*
D03*
X17345D02*
D03*
X15337Y16024D02*
D03*
X16237D02*
D03*
X4820Y18898D02*
D03*
X3920D02*
D03*
X4820Y17047D02*
D03*
X3920D02*
D03*
Y13898D02*
D03*
X4820D02*
D03*
X3920Y14921D02*
D03*
X4820D02*
D03*
Y17913D02*
D03*
X3920D02*
D03*
X13442Y10866D02*
D03*
X12542D02*
D03*
X18836Y7283D02*
D03*
X17936D02*
D03*
X7621Y25709D02*
D03*
X8521D02*
D03*
X16282Y7283D02*
D03*
X17182D02*
D03*
G54D37*
X19154Y27323D02*
D03*
X16988D02*
D03*
G54D38*
X20394Y28209D02*
D03*
Y26358D02*
D03*
G54D39*
X10512Y24747D02*
D03*
Y25647D02*
D03*
G54D40*
X10259Y27047D02*
D03*
X11159D02*
D03*
G54D41*
X14685Y28661D02*
D03*
Y26457D02*
D03*
Y30276D02*
D03*
Y32480D02*
D03*
X8543Y29213D02*
D03*
Y27008D02*
D03*
G54D42*
X15689Y11504D02*
D03*
X15886D02*
D03*
X16083D02*
D03*
X16280D02*
D03*
X16476D02*
D03*
X16673D02*
D03*
X16870D02*
D03*
X17067D02*
D03*
X17264D02*
D03*
X17461D02*
D03*
X17657D02*
D03*
X17854D02*
D03*
Y14795D02*
D03*
X17657D02*
D03*
X17461D02*
D03*
X17264D02*
D03*
X17067D02*
D03*
X16870D02*
D03*
X16673D02*
D03*
X16476D02*
D03*
X16280D02*
D03*
X16083D02*
D03*
X15886D02*
D03*
X15689D02*
D03*
G54D43*
X18417Y12067D02*
D03*
Y12264D02*
D03*
Y12461D02*
D03*
Y12657D02*
D03*
Y12854D02*
D03*
Y13051D02*
D03*
Y13248D02*
D03*
Y13445D02*
D03*
Y13642D02*
D03*
Y13839D02*
D03*
Y14035D02*
D03*
Y14232D02*
D03*
X15126D02*
D03*
Y14035D02*
D03*
Y13839D02*
D03*
Y13642D02*
D03*
Y13445D02*
D03*
Y13248D02*
D03*
Y13051D02*
D03*
Y12854D02*
D03*
Y12657D02*
D03*
Y12461D02*
D03*
Y12264D02*
D03*
Y12067D02*
D03*
G54D44*
X5888Y23740D02*
D03*
G54D45*
X8522Y24642D02*
D03*
Y23740D02*
D03*
Y22839D02*
D03*
G54D46*
X18359Y30007D02*
D03*
Y30677D02*
D03*
Y32015D02*
D03*
Y32685D02*
D03*
G54D47*
X10063Y18898D02*
D03*
X29032Y15094D02*
D03*
X28031D02*
D03*
X27032D02*
D03*
X26031D02*
D03*
X29032Y14094D02*
D03*
X28031D02*
D03*
X27032D02*
D03*
X30701Y10748D02*
D03*
X29701D02*
D03*
X28701D02*
D03*
X12165Y29189D02*
D03*
X18252Y2992D02*
D03*
X19252D02*
D03*
X20252D02*
D03*
X6220Y18898D02*
D03*
Y17898D02*
D03*
Y16898D02*
D03*
Y15898D02*
D03*
Y14898D02*
D03*
Y13898D02*
D03*
Y12898D02*
D03*
X21063Y19402D02*
D03*
Y18402D02*
D03*
Y17402D02*
D03*
X10512Y22740D02*
D03*
X3520Y9724D02*
D03*
X2520D02*
D03*
X1520D02*
D03*
X10906Y14433D02*
D03*
Y15433D02*
D03*
Y16433D02*
D03*
G54D48*
X11063Y18898D02*
D03*
X26031Y14094D02*
D03*
X27701Y10748D02*
D03*
X17252Y2992D02*
D03*
X4520Y9724D02*
D03*
X34724Y12953D02*
D03*
G54D49*
X12165Y28189D02*
D03*
X6220Y11898D02*
D03*
X21063Y20402D02*
D03*
X10512Y23740D02*
D03*
X10906Y17433D02*
D03*
G54D50*
X2756Y6409D02*
D03*
G54D51*
Y5409D02*
D03*
Y4409D02*
D03*
Y3409D02*
D03*
G54D52*
X12557Y31969D02*
D03*
X4057D02*
D03*
X6057D02*
D03*
X10557D02*
D03*
G54D53*
X1575Y30205D02*
D03*
Y32205D02*
D03*
G54D54*
X16441Y8740D02*
D03*
X18441D02*
D03*
G54D55*
X12740Y8937D02*
D03*
X13740D02*
D03*
G54D56*
X11063Y24764D02*
D03*
X21063Y28189D02*
D03*
X8567Y29189D02*
D03*
X16639Y31755D02*
D03*
X14685Y28661D02*
D03*
Y30276D02*
D03*
Y29469D02*
D03*
X18425Y29567D02*
D03*
X32520Y14331D02*
D03*
X20551Y14252D02*
D03*
X17323Y19370D02*
D03*
X16220Y15472D02*
D03*
Y16575D02*
D03*
X3898D02*
D03*
X22992Y6496D02*
D03*
X12551Y11271D02*
D03*
X17480Y10157D02*
D03*
X17559Y7283D02*
D03*
X14803Y7520D02*
D03*
X11654Y7559D02*
D03*
X9488Y22402D02*
D03*
X8504Y22441D02*
D03*
X7165Y25709D02*
D03*
X5906Y9685D02*
D03*
X22992Y10394D02*
D03*
X25433D02*
D03*
X18740Y10315D02*
D03*
X10906Y10157D02*
D03*
X16929Y15551D02*
D03*
X16890Y15945D02*
D03*
X20236Y10630D02*
D03*
X19252Y19961D02*
D03*
Y10945D02*
D03*
X13442Y11280D02*
D03*
X13976Y12638D02*
D03*
X5906Y5472D02*
D03*
X21969Y12047D02*
D03*
X21654Y11496D02*
D03*
X24961Y11417D02*
D03*
X24567Y11693D02*
D03*
X24961Y13740D02*
D03*
X24567Y13976D02*
D03*
X28031Y12323D02*
D03*
X3346Y21339D02*
D03*
X2559D02*
D03*
X1772D02*
D03*
X3346Y23150D02*
D03*
X2559D02*
D03*
X1772D02*
D03*
M02*
