G04*
G04 #@! TF.GenerationSoftware,Altium Limited,Altium Designer,22.2.1 (43)*
G04*
G04 Layer_Color=255*
%FSLAX24Y24*%
%MOIN*%
G70*
G04*
G04 #@! TF.SameCoordinates,347B6F40-84C8-4AAD-98B2-BBB097A6B523*
G04*
G04*
G04 #@! TF.FilePolarity,Positive*
G04*
G01*
G75*
%ADD19R,0.0315X0.0472*%
%ADD20R,0.0550X0.0500*%
%ADD21R,0.0500X0.0550*%
%ADD22R,0.0591X0.0945*%
%ADD23R,0.0787X0.0787*%
%ADD24R,0.0550X0.0394*%
%ADD25R,0.0394X0.0550*%
%ADD26R,0.0630X0.1378*%
G04:AMPARAMS|DCode=27|XSize=61.4mil|YSize=11.8mil|CornerRadius=4.1mil|HoleSize=0mil|Usage=FLASHONLY|Rotation=90.000|XOffset=0mil|YOffset=0mil|HoleType=Round|Shape=RoundedRectangle|*
%AMROUNDEDRECTD27*
21,1,0.0614,0.0035,0,0,90.0*
21,1,0.0531,0.0118,0,0,90.0*
1,1,0.0083,0.0018,0.0266*
1,1,0.0083,0.0018,-0.0266*
1,1,0.0083,-0.0018,-0.0266*
1,1,0.0083,-0.0018,0.0266*
%
%ADD27ROUNDEDRECTD27*%
G04:AMPARAMS|DCode=28|XSize=61.4mil|YSize=11.8mil|CornerRadius=4.1mil|HoleSize=0mil|Usage=FLASHONLY|Rotation=180.000|XOffset=0mil|YOffset=0mil|HoleType=Round|Shape=RoundedRectangle|*
%AMROUNDEDRECTD28*
21,1,0.0614,0.0035,0,0,180.0*
21,1,0.0531,0.0118,0,0,180.0*
1,1,0.0083,-0.0266,0.0018*
1,1,0.0083,0.0266,0.0018*
1,1,0.0083,0.0266,-0.0018*
1,1,0.0083,-0.0266,-0.0018*
%
%ADD28ROUNDEDRECTD28*%
G04:AMPARAMS|DCode=29|XSize=127.6mil|YSize=51.6mil|CornerRadius=3.9mil|HoleSize=0mil|Usage=FLASHONLY|Rotation=90.000|XOffset=0mil|YOffset=0mil|HoleType=Round|Shape=RoundedRectangle|*
%AMROUNDEDRECTD29*
21,1,0.1276,0.0438,0,0,90.0*
21,1,0.1198,0.0516,0,0,90.0*
1,1,0.0077,0.0219,0.0599*
1,1,0.0077,0.0219,-0.0599*
1,1,0.0077,-0.0219,-0.0599*
1,1,0.0077,-0.0219,0.0599*
%
%ADD29ROUNDEDRECTD29*%
G04:AMPARAMS|DCode=30|XSize=36.6mil|YSize=51.6mil|CornerRadius=2.7mil|HoleSize=0mil|Usage=FLASHONLY|Rotation=90.000|XOffset=0mil|YOffset=0mil|HoleType=Round|Shape=RoundedRectangle|*
%AMROUNDEDRECTD30*
21,1,0.0366,0.0461,0,0,90.0*
21,1,0.0311,0.0516,0,0,90.0*
1,1,0.0055,0.0230,0.0156*
1,1,0.0055,0.0230,-0.0156*
1,1,0.0055,-0.0230,-0.0156*
1,1,0.0055,-0.0230,0.0156*
%
%ADD30ROUNDEDRECTD30*%
G04:AMPARAMS|DCode=31|XSize=39.4mil|YSize=133.9mil|CornerRadius=9.8mil|HoleSize=0mil|Usage=FLASHONLY|Rotation=270.000|XOffset=0mil|YOffset=0mil|HoleType=Round|Shape=RoundedRectangle|*
%AMROUNDEDRECTD31*
21,1,0.0394,0.1142,0,0,270.0*
21,1,0.0197,0.1339,0,0,270.0*
1,1,0.0197,-0.0571,-0.0098*
1,1,0.0197,-0.0571,0.0098*
1,1,0.0197,0.0571,0.0098*
1,1,0.0197,0.0571,-0.0098*
%
%ADD31ROUNDEDRECTD31*%
%ADD63C,0.0591*%
%ADD64R,0.0591X0.0591*%
%ADD65R,0.0591X0.0591*%
%ADD66R,0.0709X0.0709*%
%ADD67C,0.0709*%
%ADD68O,0.1000X0.1200*%
%ADD69R,0.0984X0.0984*%
%ADD70C,0.0750*%
%ADD71C,0.0787*%
G54D19*
X21496Y9921D02*
D03*
Y7165D02*
D03*
G54D20*
X9488Y24730D02*
D03*
Y25630D02*
D03*
X13465Y11715D02*
D03*
Y12615D02*
D03*
X20118Y15135D02*
D03*
Y14235D02*
D03*
X12559Y11676D02*
D03*
Y12576D02*
D03*
X33504Y13875D02*
D03*
Y12975D02*
D03*
X17835Y16794D02*
D03*
Y17694D02*
D03*
X30709Y8723D02*
D03*
Y9623D02*
D03*
X22992Y9505D02*
D03*
Y8605D02*
D03*
X4582Y5457D02*
D03*
Y6357D02*
D03*
X29685Y8723D02*
D03*
Y9623D02*
D03*
X32520Y13875D02*
D03*
Y12975D02*
D03*
X22992Y6929D02*
D03*
Y7829D02*
D03*
X14803Y8915D02*
D03*
Y8015D02*
D03*
X1772Y21794D02*
D03*
Y22694D02*
D03*
X11654Y8954D02*
D03*
Y8054D02*
D03*
X3346Y21794D02*
D03*
Y22694D02*
D03*
X9488Y22818D02*
D03*
Y23718D02*
D03*
X2559Y21794D02*
D03*
Y22694D02*
D03*
X16614Y31755D02*
D03*
Y32655D02*
D03*
X17835Y19370D02*
D03*
Y18470D02*
D03*
G54D21*
X18245Y10315D02*
D03*
X17345D02*
D03*
X15337Y16024D02*
D03*
X16237D02*
D03*
X4820Y18898D02*
D03*
X3920D02*
D03*
X4820Y17047D02*
D03*
X3920D02*
D03*
Y13898D02*
D03*
X4820D02*
D03*
X3920Y14921D02*
D03*
X4820D02*
D03*
Y17913D02*
D03*
X3920D02*
D03*
X13442Y10866D02*
D03*
X12542D02*
D03*
X18836Y7283D02*
D03*
X17936D02*
D03*
X7621Y25709D02*
D03*
X8521D02*
D03*
X16282Y7283D02*
D03*
X17182D02*
D03*
G54D22*
X19154Y27323D02*
D03*
X16988D02*
D03*
G54D23*
X20394Y28209D02*
D03*
Y26358D02*
D03*
G54D24*
X10512Y24747D02*
D03*
Y25647D02*
D03*
G54D25*
X10259Y27047D02*
D03*
X11159D02*
D03*
G54D26*
X14685Y28661D02*
D03*
Y26457D02*
D03*
Y30276D02*
D03*
Y32480D02*
D03*
X8543Y29213D02*
D03*
Y27008D02*
D03*
G54D27*
X15689Y11504D02*
D03*
X15886D02*
D03*
X16083D02*
D03*
X16280D02*
D03*
X16476D02*
D03*
X16673D02*
D03*
X16870D02*
D03*
X17067D02*
D03*
X17264D02*
D03*
X17461D02*
D03*
X17657D02*
D03*
X17854D02*
D03*
Y14795D02*
D03*
X17657D02*
D03*
X17461D02*
D03*
X17264D02*
D03*
X17067D02*
D03*
X16870D02*
D03*
X16673D02*
D03*
X16476D02*
D03*
X16280D02*
D03*
X16083D02*
D03*
X15886D02*
D03*
X15689D02*
D03*
G54D28*
X18417Y12067D02*
D03*
Y12264D02*
D03*
Y12461D02*
D03*
Y12657D02*
D03*
Y12854D02*
D03*
Y13051D02*
D03*
Y13248D02*
D03*
Y13445D02*
D03*
Y13642D02*
D03*
Y13839D02*
D03*
Y14035D02*
D03*
Y14232D02*
D03*
X15126D02*
D03*
Y14035D02*
D03*
Y13839D02*
D03*
Y13642D02*
D03*
Y13445D02*
D03*
Y13248D02*
D03*
Y13051D02*
D03*
Y12854D02*
D03*
Y12657D02*
D03*
Y12461D02*
D03*
Y12264D02*
D03*
Y12067D02*
D03*
G54D29*
X5888Y23740D02*
D03*
G54D30*
X8522Y24642D02*
D03*
Y23740D02*
D03*
Y22839D02*
D03*
G54D31*
X18359Y30007D02*
D03*
Y31346D02*
D03*
Y30677D02*
D03*
Y32015D02*
D03*
Y32685D02*
D03*
G54D63*
X10063Y18898D02*
D03*
X29032Y15094D02*
D03*
X28031D02*
D03*
X27032D02*
D03*
X26031D02*
D03*
X29032Y14094D02*
D03*
X28031D02*
D03*
X27032D02*
D03*
X30701Y10748D02*
D03*
X29701D02*
D03*
X28701D02*
D03*
X12165Y29189D02*
D03*
X18252Y2992D02*
D03*
X19252D02*
D03*
X20252D02*
D03*
X6220Y18898D02*
D03*
Y17898D02*
D03*
Y16898D02*
D03*
Y15898D02*
D03*
Y14898D02*
D03*
Y13898D02*
D03*
Y12898D02*
D03*
X21063Y19402D02*
D03*
Y18402D02*
D03*
Y17402D02*
D03*
X10512Y22740D02*
D03*
X3520Y9724D02*
D03*
X2520D02*
D03*
X1520D02*
D03*
X10906Y14433D02*
D03*
Y15433D02*
D03*
Y16433D02*
D03*
G54D64*
X11063Y18898D02*
D03*
X26031Y14094D02*
D03*
X27701Y10748D02*
D03*
X17252Y2992D02*
D03*
X4520Y9724D02*
D03*
X34724Y12953D02*
D03*
G54D65*
X12165Y28189D02*
D03*
X6220Y11898D02*
D03*
X21063Y20402D02*
D03*
X10512Y23740D02*
D03*
X10906Y17433D02*
D03*
G54D66*
X2756Y6409D02*
D03*
G54D67*
Y5409D02*
D03*
Y4409D02*
D03*
Y3409D02*
D03*
G54D68*
X12557Y31969D02*
D03*
X4057D02*
D03*
X6057D02*
D03*
X10557D02*
D03*
G54D69*
X1575Y30205D02*
D03*
Y32205D02*
D03*
G54D70*
X16441Y8740D02*
D03*
X18441D02*
D03*
G54D71*
X12740Y8937D02*
D03*
X13740D02*
D03*
M02*
