G04*
G04 #@! TF.GenerationSoftware,Altium Limited,Altium Designer,22.2.1 (43)*
G04*
G04 Layer_Color=255*
%FSLAX24Y24*%
%MOIN*%
G70*
G04*
G04 #@! TF.SameCoordinates,347B6F40-84C8-4AAD-98B2-BBB097A6B523*
G04*
G04*
G04 #@! TF.FilePolarity,Positive*
G04*
G01*
G75*
%ADD63C,0.0591*%
%ADD64R,0.0591X0.0591*%
%ADD65R,0.0591X0.0591*%
%ADD66R,0.0709X0.0709*%
%ADD67C,0.0709*%
%ADD68O,0.1000X0.1200*%
%ADD69R,0.0984X0.0984*%
%ADD70C,0.0750*%
%ADD71C,0.0787*%
G54D63*
X10063Y18898D02*
D03*
X29032Y15094D02*
D03*
X28031D02*
D03*
X27032D02*
D03*
X26031D02*
D03*
X29032Y14094D02*
D03*
X28031D02*
D03*
X27032D02*
D03*
X30701Y10748D02*
D03*
X29701D02*
D03*
X28701D02*
D03*
X12165Y29189D02*
D03*
X18252Y2992D02*
D03*
X19252D02*
D03*
X20252D02*
D03*
X6220Y18898D02*
D03*
Y17898D02*
D03*
Y16898D02*
D03*
Y15898D02*
D03*
Y14898D02*
D03*
Y13898D02*
D03*
Y12898D02*
D03*
X21063Y19402D02*
D03*
Y18402D02*
D03*
Y17402D02*
D03*
X10512Y22740D02*
D03*
X3520Y9724D02*
D03*
X2520D02*
D03*
X1520D02*
D03*
X10906Y14433D02*
D03*
Y15433D02*
D03*
Y16433D02*
D03*
G54D64*
X11063Y18898D02*
D03*
X26031Y14094D02*
D03*
X27701Y10748D02*
D03*
X17252Y2992D02*
D03*
X4520Y9724D02*
D03*
X34724Y12953D02*
D03*
G54D65*
X12165Y28189D02*
D03*
X6220Y11898D02*
D03*
X21063Y20402D02*
D03*
X10512Y23740D02*
D03*
X10906Y17433D02*
D03*
G54D66*
X2756Y6409D02*
D03*
G54D67*
Y5409D02*
D03*
Y4409D02*
D03*
Y3409D02*
D03*
G54D68*
X12557Y31969D02*
D03*
X4057D02*
D03*
X6057D02*
D03*
X10557D02*
D03*
G54D69*
X1575Y30205D02*
D03*
Y32205D02*
D03*
G54D70*
X16441Y8740D02*
D03*
X18441D02*
D03*
G54D71*
X12740Y8937D02*
D03*
X13740D02*
D03*
M02*
