G04*
G04 #@! TF.GenerationSoftware,Altium Limited,Altium Designer,22.2.1 (43)*
G04*
G04 Layer_Color=16711935*
%FSLAX24Y24*%
%MOIN*%
G70*
G04*
G04 #@! TF.SameCoordinates,347B6F40-84C8-4AAD-98B2-BBB097A6B523*
G04*
G04*
G04 #@! TF.FilePolarity,Negative*
G04*
G01*
G75*
%ADD47C,0.0671*%
%ADD48R,0.0671X0.0671*%
%ADD49R,0.0671X0.0671*%
%ADD50R,0.0789X0.0789*%
%ADD51C,0.0789*%
%ADD52O,0.1080X0.1280*%
%ADD53R,0.1064X0.1064*%
%ADD54C,0.0830*%
%ADD55C,0.0867*%
%ADD56C,0.0316*%
G54D47*
X10063Y18898D02*
D03*
X29032Y15094D02*
D03*
X28031D02*
D03*
X27032D02*
D03*
X26031D02*
D03*
X29032Y14094D02*
D03*
X28031D02*
D03*
X27032D02*
D03*
X30701Y10748D02*
D03*
X29701D02*
D03*
X28701D02*
D03*
X12165Y29189D02*
D03*
X18252Y2992D02*
D03*
X19252D02*
D03*
X20252D02*
D03*
X6220Y18898D02*
D03*
Y17898D02*
D03*
Y16898D02*
D03*
Y15898D02*
D03*
Y14898D02*
D03*
Y13898D02*
D03*
Y12898D02*
D03*
X21063Y19402D02*
D03*
Y18402D02*
D03*
Y17402D02*
D03*
X10512Y22740D02*
D03*
X3520Y9724D02*
D03*
X2520D02*
D03*
X1520D02*
D03*
X10906Y14433D02*
D03*
Y15433D02*
D03*
Y16433D02*
D03*
G54D48*
X11063Y18898D02*
D03*
X26031Y14094D02*
D03*
X27701Y10748D02*
D03*
X17252Y2992D02*
D03*
X4520Y9724D02*
D03*
X34724Y12953D02*
D03*
G54D49*
X12165Y28189D02*
D03*
X6220Y11898D02*
D03*
X21063Y20402D02*
D03*
X10512Y23740D02*
D03*
X10906Y17433D02*
D03*
G54D50*
X2756Y6409D02*
D03*
G54D51*
Y5409D02*
D03*
Y4409D02*
D03*
Y3409D02*
D03*
G54D52*
X12557Y31969D02*
D03*
X4057D02*
D03*
X6057D02*
D03*
X10557D02*
D03*
G54D53*
X1575Y30205D02*
D03*
Y32205D02*
D03*
G54D54*
X16441Y8740D02*
D03*
X18441D02*
D03*
G54D55*
X12740Y8937D02*
D03*
X13740D02*
D03*
G54D56*
X11063Y24764D02*
D03*
X21063Y28189D02*
D03*
X8567Y29189D02*
D03*
X16639Y31755D02*
D03*
X14685Y28661D02*
D03*
Y30276D02*
D03*
Y29469D02*
D03*
X18425Y29567D02*
D03*
X32520Y14331D02*
D03*
X20551Y14252D02*
D03*
X17323Y19370D02*
D03*
X16220Y15472D02*
D03*
Y16575D02*
D03*
X3898D02*
D03*
X22992Y6496D02*
D03*
X12551Y11271D02*
D03*
X17480Y10157D02*
D03*
X17559Y7283D02*
D03*
X14803Y7520D02*
D03*
X11654Y7559D02*
D03*
X9488Y22402D02*
D03*
X8504Y22441D02*
D03*
X7165Y25709D02*
D03*
X5906Y9685D02*
D03*
X22992Y10394D02*
D03*
X25433D02*
D03*
X18740Y10315D02*
D03*
X10906Y10157D02*
D03*
X16929Y15551D02*
D03*
X16890Y15945D02*
D03*
X20236Y10630D02*
D03*
X19252Y19961D02*
D03*
Y10945D02*
D03*
X13442Y11280D02*
D03*
X13976Y12638D02*
D03*
X5906Y5472D02*
D03*
X21969Y12047D02*
D03*
X21654Y11496D02*
D03*
X24961Y11417D02*
D03*
X24567Y11693D02*
D03*
X24961Y13740D02*
D03*
X24567Y13976D02*
D03*
X28031Y12323D02*
D03*
X3346Y21339D02*
D03*
X2559D02*
D03*
X1772D02*
D03*
X3346Y23150D02*
D03*
X2559D02*
D03*
X1772D02*
D03*
M02*
