G04*
G04 #@! TF.GenerationSoftware,Altium Limited,Altium Designer,22.2.1 (43)*
G04*
G04 Layer_Color=2752767*
%FSLAX24Y24*%
%MOIN*%
G70*
G04*
G04 #@! TF.SameCoordinates,347B6F40-84C8-4AAD-98B2-BBB097A6B523*
G04*
G04*
G04 #@! TF.FilePolarity,Positive*
G04*
G01*
G75*
%ADD74C,0.0020*%
%ADD75C,0.0027*%
G54D74*
X9983Y18818D02*
Y18978D01*
X10143D01*
Y18818D01*
X9983D01*
X10983D02*
Y18978D01*
X11143D01*
Y18818D01*
X10983D01*
X28951Y15014D02*
Y15174D01*
X29111D01*
Y15014D01*
X28951D01*
X27952D02*
Y15174D01*
X28112D01*
Y15014D01*
X27952D01*
X26951D02*
Y15174D01*
X27111D01*
Y15014D01*
X26951D01*
X25951D02*
Y15174D01*
X26112D01*
Y15014D01*
X25951D01*
X28951Y14014D02*
Y14174D01*
X29111D01*
Y14014D01*
X28951D01*
X27952D02*
Y14174D01*
X28112D01*
Y14014D01*
X27952D01*
X26951D02*
Y14174D01*
X27111D01*
Y14014D01*
X26951D01*
X25951D02*
Y14174D01*
X26112D01*
Y14014D01*
X25951D01*
X30621Y10668D02*
Y10828D01*
X30781D01*
Y10668D01*
X30621D01*
X29621D02*
Y10828D01*
X29781D01*
Y10668D01*
X29621D01*
X28621D02*
Y10828D01*
X28781D01*
Y10668D01*
X28621D01*
X27621D02*
Y10828D01*
X27781D01*
Y10668D01*
X27621D01*
X12085Y28109D02*
Y28269D01*
X12245D01*
Y28109D01*
X12085D01*
Y29109D02*
Y29269D01*
X12245D01*
Y29109D01*
X12085D01*
X17172Y2912D02*
Y3072D01*
X17332D01*
Y2912D01*
X17172D01*
X18172D02*
Y3072D01*
X18332D01*
Y2912D01*
X18172D01*
X19172D02*
Y3072D01*
X19332D01*
Y2912D01*
X19172D01*
X20172D02*
Y3072D01*
X20332D01*
Y2912D01*
X20172D01*
X6140Y18818D02*
Y18978D01*
X6300D01*
Y18818D01*
X6140D01*
Y17818D02*
Y17978D01*
X6300D01*
Y17818D01*
X6140D01*
Y16818D02*
Y16978D01*
X6300D01*
Y16818D01*
X6140D01*
Y15818D02*
Y15978D01*
X6300D01*
Y15818D01*
X6140D01*
Y14818D02*
Y14978D01*
X6300D01*
Y14818D01*
X6140D01*
Y13818D02*
Y13978D01*
X6300D01*
Y13818D01*
X6140D01*
Y12818D02*
Y12978D01*
X6300D01*
Y12818D01*
X6140D01*
Y11818D02*
Y11978D01*
X6300D01*
Y11818D01*
X6140D01*
X20983Y20322D02*
Y20482D01*
X21143D01*
Y20322D01*
X20983D01*
Y19322D02*
Y19482D01*
X21143D01*
Y19322D01*
X20983D01*
Y18322D02*
Y18482D01*
X21143D01*
Y18322D01*
X20983D01*
Y17322D02*
Y17482D01*
X21143D01*
Y17322D01*
X20983D01*
X12557Y31888D02*
X12477Y32048D01*
X12637D01*
X12557Y31888D01*
X4057D02*
X3977Y32048D01*
X4137D01*
X4057Y31888D01*
X6057D02*
X5977Y32048D01*
X6137D01*
X6057Y31888D01*
X10557D02*
X10477Y32048D01*
X10637D01*
X10557Y31888D01*
X1575Y30125D02*
X1615Y30165D01*
X1655D01*
X1615Y30205D01*
X1655Y30245D01*
X1615D01*
X1575Y30285D01*
X1535Y30245D01*
X1495D01*
X1535Y30205D01*
X1495Y30165D01*
X1535D01*
X1575Y30125D01*
Y32125D02*
X1615Y32165D01*
X1655D01*
X1615Y32205D01*
X1655Y32245D01*
X1615D01*
X1575Y32285D01*
X1535Y32245D01*
X1495D01*
X1535Y32205D01*
X1495Y32165D01*
X1535D01*
X1575Y32125D01*
X10432Y23660D02*
Y23820D01*
X10592D01*
Y23660D01*
X10432D01*
Y22660D02*
Y22820D01*
X10592D01*
Y22660D01*
X10432D01*
X4440Y9644D02*
Y9804D01*
X4600D01*
Y9644D01*
X4440D01*
X3440D02*
Y9804D01*
X3600D01*
Y9644D01*
X3440D01*
X2440D02*
Y9804D01*
X2600D01*
Y9644D01*
X2440D01*
X1440D02*
Y9804D01*
X1600D01*
Y9644D01*
X1440D01*
X10826Y14353D02*
Y14513D01*
X10986D01*
Y14353D01*
X10826D01*
Y15353D02*
Y15513D01*
X10986D01*
Y15353D01*
X10826D01*
Y16353D02*
Y16513D01*
X10986D01*
Y16353D01*
X10826D01*
Y17353D02*
Y17513D01*
X10986D01*
Y17353D01*
X10826D01*
X34644Y12873D02*
Y13033D01*
X34804D01*
Y12873D01*
X34644D01*
X16361Y8660D02*
X16401Y8740D01*
X16361Y8820D01*
X16441Y8780D01*
X16521Y8820D01*
X16481Y8740D01*
X16521Y8660D01*
X16441Y8700D01*
X16361Y8660D01*
X18361D02*
X18401Y8740D01*
X18361Y8820D01*
X18441Y8780D01*
X18521Y8820D01*
X18481Y8740D01*
X18521Y8660D01*
X18441Y8700D01*
X18361Y8660D01*
X12700Y8897D02*
Y8857D01*
X12780D01*
Y8897D01*
X12820D01*
Y8977D01*
X12780D01*
Y9017D01*
X12700D01*
Y8977D01*
X12660D01*
Y8897D01*
X12700D01*
X13700D02*
Y8857D01*
X13780D01*
Y8897D01*
X13820D01*
Y8977D01*
X13780D01*
Y9017D01*
X13700D01*
Y8977D01*
X13660D01*
Y8897D01*
X13700D01*
X10983Y24684D02*
X11023D01*
X11063Y24724D01*
X11103Y24684D01*
X11143D01*
Y24724D01*
X11103Y24764D01*
X11143Y24804D01*
Y24844D01*
X11103D01*
X11063Y24804D01*
X11023Y24844D01*
X10983D01*
Y24804D01*
X11023Y24764D01*
X10983Y24724D01*
Y24684D01*
X20983Y28109D02*
X21023D01*
X21063Y28149D01*
X21103Y28109D01*
X21143D01*
Y28149D01*
X21103Y28189D01*
X21143Y28229D01*
Y28269D01*
X21103D01*
X21063Y28229D01*
X21023Y28269D01*
X20983D01*
Y28229D01*
X21023Y28189D01*
X20983Y28149D01*
Y28109D01*
X8487Y29109D02*
X8527D01*
X8567Y29149D01*
X8607Y29109D01*
X8647D01*
Y29149D01*
X8607Y29189D01*
X8647Y29229D01*
Y29269D01*
X8607D01*
X8567Y29229D01*
X8527Y29269D01*
X8487D01*
Y29229D01*
X8527Y29189D01*
X8487Y29149D01*
Y29109D01*
X16559Y31675D02*
X16599D01*
X16639Y31715D01*
X16679Y31675D01*
X16719D01*
Y31715D01*
X16679Y31755D01*
X16719Y31795D01*
Y31835D01*
X16679D01*
X16639Y31795D01*
X16599Y31835D01*
X16559D01*
Y31795D01*
X16599Y31755D01*
X16559Y31715D01*
Y31675D01*
X14605Y28581D02*
X14645D01*
X14685Y28621D01*
X14725Y28581D01*
X14765D01*
Y28621D01*
X14725Y28661D01*
X14765Y28701D01*
Y28741D01*
X14725D01*
X14685Y28701D01*
X14645Y28741D01*
X14605D01*
Y28701D01*
X14645Y28661D01*
X14605Y28621D01*
Y28581D01*
Y30196D02*
X14645D01*
X14685Y30236D01*
X14725Y30196D01*
X14765D01*
Y30236D01*
X14725Y30276D01*
X14765Y30316D01*
Y30356D01*
X14725D01*
X14685Y30316D01*
X14645Y30356D01*
X14605D01*
Y30316D01*
X14645Y30276D01*
X14605Y30236D01*
Y30196D01*
Y29388D02*
X14645D01*
X14685Y29429D01*
X14725Y29388D01*
X14765D01*
Y29429D01*
X14725Y29469D01*
X14765Y29509D01*
Y29548D01*
X14725D01*
X14685Y29509D01*
X14645Y29548D01*
X14605D01*
Y29509D01*
X14645Y29469D01*
X14605Y29429D01*
Y29388D01*
X18345Y29487D02*
X18385D01*
X18425Y29527D01*
X18465Y29487D01*
X18505D01*
Y29527D01*
X18465Y29567D01*
X18505Y29607D01*
Y29647D01*
X18465D01*
X18425Y29607D01*
X18385Y29647D01*
X18345D01*
Y29607D01*
X18385Y29567D01*
X18345Y29527D01*
Y29487D01*
X32440Y14251D02*
X32480D01*
X32520Y14291D01*
X32560Y14251D01*
X32600D01*
Y14291D01*
X32560Y14331D01*
X32600Y14371D01*
Y14411D01*
X32560D01*
X32520Y14371D01*
X32480Y14411D01*
X32440D01*
Y14371D01*
X32480Y14331D01*
X32440Y14291D01*
Y14251D01*
X20471Y14172D02*
X20511D01*
X20551Y14212D01*
X20591Y14172D01*
X20631D01*
Y14212D01*
X20591Y14252D01*
X20631Y14292D01*
Y14332D01*
X20591D01*
X20551Y14292D01*
X20511Y14332D01*
X20471D01*
Y14292D01*
X20511Y14252D01*
X20471Y14212D01*
Y14172D01*
X17243Y19290D02*
X17283D01*
X17323Y19330D01*
X17363Y19290D01*
X17403D01*
Y19330D01*
X17363Y19370D01*
X17403Y19410D01*
Y19450D01*
X17363D01*
X17323Y19410D01*
X17283Y19450D01*
X17243D01*
Y19410D01*
X17283Y19370D01*
X17243Y19330D01*
Y19290D01*
X16140Y15392D02*
X16180D01*
X16220Y15432D01*
X16260Y15392D01*
X16300D01*
Y15432D01*
X16260Y15472D01*
X16300Y15512D01*
Y15552D01*
X16260D01*
X16220Y15512D01*
X16180Y15552D01*
X16140D01*
Y15512D01*
X16180Y15472D01*
X16140Y15432D01*
Y15392D01*
Y16495D02*
X16180D01*
X16220Y16535D01*
X16260Y16495D01*
X16300D01*
Y16535D01*
X16260Y16575D01*
X16300Y16615D01*
Y16655D01*
X16260D01*
X16220Y16615D01*
X16180Y16655D01*
X16140D01*
Y16615D01*
X16180Y16575D01*
X16140Y16535D01*
Y16495D01*
X3818D02*
X3858D01*
X3898Y16535D01*
X3938Y16495D01*
X3978D01*
Y16535D01*
X3938Y16575D01*
X3978Y16615D01*
Y16655D01*
X3938D01*
X3898Y16615D01*
X3858Y16655D01*
X3818D01*
Y16615D01*
X3858Y16575D01*
X3818Y16535D01*
Y16495D01*
X22912Y6416D02*
X22952D01*
X22992Y6456D01*
X23032Y6416D01*
X23072D01*
Y6456D01*
X23032Y6496D01*
X23072Y6536D01*
Y6576D01*
X23032D01*
X22992Y6536D01*
X22952Y6576D01*
X22912D01*
Y6536D01*
X22952Y6496D01*
X22912Y6456D01*
Y6416D01*
X12471Y11191D02*
X12511D01*
X12551Y11231D01*
X12591Y11191D01*
X12631D01*
Y11231D01*
X12591Y11271D01*
X12631Y11311D01*
Y11351D01*
X12591D01*
X12551Y11311D01*
X12511Y11351D01*
X12471D01*
Y11311D01*
X12511Y11271D01*
X12471Y11231D01*
Y11191D01*
X17400Y10077D02*
X17440D01*
X17480Y10117D01*
X17520Y10077D01*
X17560D01*
Y10117D01*
X17520Y10157D01*
X17560Y10197D01*
Y10237D01*
X17520D01*
X17480Y10197D01*
X17440Y10237D01*
X17400D01*
Y10197D01*
X17440Y10157D01*
X17400Y10117D01*
Y10077D01*
X17479Y7203D02*
X17519D01*
X17559Y7243D01*
X17599Y7203D01*
X17639D01*
Y7243D01*
X17599Y7283D01*
X17639Y7323D01*
Y7363D01*
X17599D01*
X17559Y7323D01*
X17519Y7363D01*
X17479D01*
Y7323D01*
X17519Y7283D01*
X17479Y7243D01*
Y7203D01*
X14723Y7440D02*
X14763D01*
X14803Y7480D01*
X14843Y7440D01*
X14883D01*
Y7480D01*
X14843Y7520D01*
X14883Y7560D01*
Y7600D01*
X14843D01*
X14803Y7560D01*
X14763Y7600D01*
X14723D01*
Y7560D01*
X14763Y7520D01*
X14723Y7480D01*
Y7440D01*
X11574Y7479D02*
X11614D01*
X11654Y7519D01*
X11694Y7479D01*
X11734D01*
Y7519D01*
X11694Y7559D01*
X11734Y7599D01*
Y7639D01*
X11694D01*
X11654Y7599D01*
X11614Y7639D01*
X11574D01*
Y7599D01*
X11614Y7559D01*
X11574Y7519D01*
Y7479D01*
X9408Y22322D02*
X9448D01*
X9488Y22362D01*
X9528Y22322D01*
X9568D01*
Y22362D01*
X9528Y22402D01*
X9568Y22442D01*
Y22482D01*
X9528D01*
X9488Y22442D01*
X9448Y22482D01*
X9408D01*
Y22442D01*
X9448Y22402D01*
X9408Y22362D01*
Y22322D01*
X8424Y22361D02*
X8464D01*
X8504Y22401D01*
X8544Y22361D01*
X8584D01*
Y22401D01*
X8544Y22441D01*
X8584Y22481D01*
Y22521D01*
X8544D01*
X8504Y22481D01*
X8464Y22521D01*
X8424D01*
Y22481D01*
X8464Y22441D01*
X8424Y22401D01*
Y22361D01*
X7085Y25629D02*
X7125D01*
X7165Y25669D01*
X7205Y25629D01*
X7245D01*
Y25669D01*
X7205Y25709D01*
X7245Y25749D01*
Y25789D01*
X7205D01*
X7165Y25749D01*
X7125Y25789D01*
X7085D01*
Y25749D01*
X7125Y25709D01*
X7085Y25669D01*
Y25629D01*
X5826Y9605D02*
X5866D01*
X5906Y9645D01*
X5946Y9605D01*
X5986D01*
Y9645D01*
X5946Y9685D01*
X5986Y9725D01*
Y9765D01*
X5946D01*
X5906Y9725D01*
X5866Y9765D01*
X5826D01*
Y9725D01*
X5866Y9685D01*
X5826Y9645D01*
Y9605D01*
X22912Y10314D02*
X22952D01*
X22992Y10354D01*
X23032Y10314D01*
X23072D01*
Y10354D01*
X23032Y10394D01*
X23072Y10434D01*
Y10474D01*
X23032D01*
X22992Y10434D01*
X22952Y10474D01*
X22912D01*
Y10434D01*
X22952Y10394D01*
X22912Y10354D01*
Y10314D01*
X25353D02*
X25393D01*
X25433Y10354D01*
X25473Y10314D01*
X25513D01*
Y10354D01*
X25473Y10394D01*
X25513Y10434D01*
Y10474D01*
X25473D01*
X25433Y10434D01*
X25393Y10474D01*
X25353D01*
Y10434D01*
X25393Y10394D01*
X25353Y10354D01*
Y10314D01*
X18660Y10235D02*
X18700D01*
X18740Y10275D01*
X18780Y10235D01*
X18820D01*
Y10275D01*
X18780Y10315D01*
X18820Y10355D01*
Y10395D01*
X18780D01*
X18740Y10355D01*
X18700Y10395D01*
X18660D01*
Y10355D01*
X18700Y10315D01*
X18660Y10275D01*
Y10235D01*
X10826Y10077D02*
X10866D01*
X10906Y10117D01*
X10946Y10077D01*
X10986D01*
Y10117D01*
X10946Y10157D01*
X10986Y10197D01*
Y10237D01*
X10946D01*
X10906Y10197D01*
X10866Y10237D01*
X10826D01*
Y10197D01*
X10866Y10157D01*
X10826Y10117D01*
Y10077D01*
X16849Y15471D02*
X16889D01*
X16929Y15511D01*
X16969Y15471D01*
X17009D01*
Y15511D01*
X16969Y15551D01*
X17009Y15591D01*
Y15631D01*
X16969D01*
X16929Y15591D01*
X16889Y15631D01*
X16849D01*
Y15591D01*
X16889Y15551D01*
X16849Y15511D01*
Y15471D01*
X16810Y15865D02*
X16850D01*
X16890Y15905D01*
X16930Y15865D01*
X16970D01*
Y15905D01*
X16930Y15945D01*
X16970Y15985D01*
Y16025D01*
X16930D01*
X16890Y15985D01*
X16850Y16025D01*
X16810D01*
Y15985D01*
X16850Y15945D01*
X16810Y15905D01*
Y15865D01*
X20156Y10550D02*
X20196D01*
X20236Y10590D01*
X20276Y10550D01*
X20316D01*
Y10590D01*
X20276Y10630D01*
X20316Y10670D01*
Y10710D01*
X20276D01*
X20236Y10670D01*
X20196Y10710D01*
X20156D01*
Y10670D01*
X20196Y10630D01*
X20156Y10590D01*
Y10550D01*
X19172Y19881D02*
X19212D01*
X19252Y19921D01*
X19292Y19881D01*
X19332D01*
Y19921D01*
X19292Y19961D01*
X19332Y20001D01*
Y20041D01*
X19292D01*
X19252Y20001D01*
X19212Y20041D01*
X19172D01*
Y20001D01*
X19212Y19961D01*
X19172Y19921D01*
Y19881D01*
Y10865D02*
X19212D01*
X19252Y10905D01*
X19292Y10865D01*
X19332D01*
Y10905D01*
X19292Y10945D01*
X19332Y10985D01*
Y11025D01*
X19292D01*
X19252Y10985D01*
X19212Y11025D01*
X19172D01*
Y10985D01*
X19212Y10945D01*
X19172Y10905D01*
Y10865D01*
X13362Y11200D02*
X13402D01*
X13442Y11240D01*
X13482Y11200D01*
X13522D01*
Y11240D01*
X13482Y11280D01*
X13522Y11320D01*
Y11360D01*
X13482D01*
X13442Y11320D01*
X13402Y11360D01*
X13362D01*
Y11320D01*
X13402Y11280D01*
X13362Y11240D01*
Y11200D01*
X13896Y12558D02*
X13936D01*
X13976Y12598D01*
X14016Y12558D01*
X14056D01*
Y12598D01*
X14016Y12638D01*
X14056Y12678D01*
Y12718D01*
X14016D01*
X13976Y12678D01*
X13936Y12718D01*
X13896D01*
Y12678D01*
X13936Y12638D01*
X13896Y12598D01*
Y12558D01*
X5826Y5392D02*
X5866D01*
X5906Y5432D01*
X5946Y5392D01*
X5986D01*
Y5432D01*
X5946Y5472D01*
X5986Y5512D01*
Y5552D01*
X5946D01*
X5906Y5512D01*
X5866Y5552D01*
X5826D01*
Y5512D01*
X5866Y5472D01*
X5826Y5432D01*
Y5392D01*
X21888Y11967D02*
X21929D01*
X21969Y12007D01*
X22009Y11967D01*
X22048D01*
Y12007D01*
X22009Y12047D01*
X22048Y12087D01*
Y12127D01*
X22009D01*
X21969Y12087D01*
X21929Y12127D01*
X21888D01*
Y12087D01*
X21929Y12047D01*
X21888Y12007D01*
Y11967D01*
X21574Y11416D02*
X21614D01*
X21654Y11456D01*
X21694Y11416D01*
X21734D01*
Y11456D01*
X21694Y11496D01*
X21734Y11536D01*
Y11576D01*
X21694D01*
X21654Y11536D01*
X21614Y11576D01*
X21574D01*
Y11536D01*
X21614Y11496D01*
X21574Y11456D01*
Y11416D01*
X24881Y11337D02*
X24921D01*
X24961Y11377D01*
X25001Y11337D01*
X25041D01*
Y11377D01*
X25001Y11417D01*
X25041Y11457D01*
Y11497D01*
X25001D01*
X24961Y11457D01*
X24921Y11497D01*
X24881D01*
Y11457D01*
X24921Y11417D01*
X24881Y11377D01*
Y11337D01*
X24487Y11613D02*
X24527D01*
X24567Y11653D01*
X24607Y11613D01*
X24647D01*
Y11653D01*
X24607Y11693D01*
X24647Y11733D01*
Y11773D01*
X24607D01*
X24567Y11733D01*
X24527Y11773D01*
X24487D01*
Y11733D01*
X24527Y11693D01*
X24487Y11653D01*
Y11613D01*
X24881Y13660D02*
X24921D01*
X24961Y13700D01*
X25001Y13660D01*
X25041D01*
Y13700D01*
X25001Y13740D01*
X25041Y13780D01*
Y13820D01*
X25001D01*
X24961Y13780D01*
X24921Y13820D01*
X24881D01*
Y13780D01*
X24921Y13740D01*
X24881Y13700D01*
Y13660D01*
X24487Y13896D02*
X24527D01*
X24567Y13936D01*
X24607Y13896D01*
X24647D01*
Y13936D01*
X24607Y13976D01*
X24647Y14016D01*
Y14056D01*
X24607D01*
X24567Y14016D01*
X24527Y14056D01*
X24487D01*
Y14016D01*
X24527Y13976D01*
X24487Y13936D01*
Y13896D01*
X27952Y12243D02*
X27991D01*
X28031Y12283D01*
X28071Y12243D01*
X28112D01*
Y12283D01*
X28071Y12323D01*
X28112Y12363D01*
Y12403D01*
X28071D01*
X28031Y12363D01*
X27991Y12403D01*
X27952D01*
Y12363D01*
X27991Y12323D01*
X27952Y12283D01*
Y12243D01*
X3266Y21259D02*
X3306D01*
X3346Y21299D01*
X3386Y21259D01*
X3426D01*
Y21299D01*
X3386Y21339D01*
X3426Y21379D01*
Y21419D01*
X3386D01*
X3346Y21379D01*
X3306Y21419D01*
X3266D01*
Y21379D01*
X3306Y21339D01*
X3266Y21299D01*
Y21259D01*
X2479D02*
X2519D01*
X2559Y21299D01*
X2599Y21259D01*
X2639D01*
Y21299D01*
X2599Y21339D01*
X2639Y21379D01*
Y21419D01*
X2599D01*
X2559Y21379D01*
X2519Y21419D01*
X2479D01*
Y21379D01*
X2519Y21339D01*
X2479Y21299D01*
Y21259D01*
X1692D02*
X1732D01*
X1772Y21299D01*
X1812Y21259D01*
X1852D01*
Y21299D01*
X1812Y21339D01*
X1852Y21379D01*
Y21419D01*
X1812D01*
X1772Y21379D01*
X1732Y21419D01*
X1692D01*
Y21379D01*
X1732Y21339D01*
X1692Y21299D01*
Y21259D01*
X3266Y23070D02*
X3306D01*
X3346Y23110D01*
X3386Y23070D01*
X3426D01*
Y23110D01*
X3386Y23150D01*
X3426Y23190D01*
Y23230D01*
X3386D01*
X3346Y23190D01*
X3306Y23230D01*
X3266D01*
Y23190D01*
X3306Y23150D01*
X3266Y23110D01*
Y23070D01*
X2479D02*
X2519D01*
X2559Y23110D01*
X2599Y23070D01*
X2639D01*
Y23110D01*
X2599Y23150D01*
X2639Y23190D01*
Y23230D01*
X2599D01*
X2559Y23190D01*
X2519Y23230D01*
X2479D01*
Y23190D01*
X2519Y23150D01*
X2479Y23110D01*
Y23070D01*
X1692D02*
X1732D01*
X1772Y23110D01*
X1812Y23070D01*
X1852D01*
Y23110D01*
X1812Y23150D01*
X1852Y23190D01*
Y23230D01*
X1812D01*
X1772Y23190D01*
X1732Y23230D01*
X1692D01*
Y23190D01*
X1732Y23150D01*
X1692Y23110D01*
Y23070D01*
G54D75*
X2836Y6409D02*
X2781Y6486D01*
X2691Y6456D01*
Y6362D01*
X2781Y6333D01*
X2836Y6409D01*
Y5409D02*
X2781Y5486D01*
X2691Y5456D01*
Y5362D01*
X2781Y5333D01*
X2836Y5409D01*
Y4409D02*
X2781Y4486D01*
X2691Y4456D01*
Y4362D01*
X2781Y4333D01*
X2836Y4409D01*
Y3409D02*
X2781Y3486D01*
X2691Y3456D01*
Y3362D01*
X2781Y3333D01*
X2836Y3409D01*
M02*
