G04*
G04 #@! TF.GenerationSoftware,Altium Limited,Altium Designer,22.2.1 (43)*
G04*
G04 Layer_Color=8388736*
%FSLAX24Y24*%
%MOIN*%
G70*
G04*
G04 #@! TF.SameCoordinates,AB8B2AD1-1602-442A-A43A-F402AF7CDF0B*
G04*
G04*
G04 #@! TF.FilePolarity,Negative*
G04*
G01*
G75*
%ADD14C,0.0100*%
G04:AMPARAMS|DCode=36|XSize=39.4mil|YSize=133.9mil|CornerRadius=9.8mil|HoleSize=0mil|Usage=FLASHONLY|Rotation=270.000|XOffset=0mil|YOffset=0mil|HoleType=Round|Shape=RoundedRectangle|*
%AMROUNDEDRECTD36*
21,1,0.0394,0.1142,0,0,270.0*
21,1,0.0197,0.1339,0,0,270.0*
1,1,0.0197,-0.0571,-0.0098*
1,1,0.0197,-0.0571,0.0098*
1,1,0.0197,0.0571,0.0098*
1,1,0.0197,0.0571,-0.0098*
%
%ADD36ROUNDEDRECTD36*%
%ADD40C,0.0200*%
%ADD41R,0.2820X0.4380*%
%ADD42R,0.0630X0.0580*%
%ADD43R,0.0580X0.0630*%
%ADD44R,0.0138X0.0315*%
%ADD45R,0.0552X0.0395*%
G04:AMPARAMS|DCode=46|XSize=69.4mil|YSize=19.8mil|CornerRadius=8.1mil|HoleSize=0mil|Usage=FLASHONLY|Rotation=270.000|XOffset=0mil|YOffset=0mil|HoleType=Round|Shape=RoundedRectangle|*
%AMROUNDEDRECTD46*
21,1,0.0694,0.0035,0,0,270.0*
21,1,0.0531,0.0198,0,0,270.0*
1,1,0.0163,-0.0018,-0.0266*
1,1,0.0163,-0.0018,0.0266*
1,1,0.0163,0.0018,0.0266*
1,1,0.0163,0.0018,-0.0266*
%
%ADD46ROUNDEDRECTD46*%
G04:AMPARAMS|DCode=47|XSize=69.4mil|YSize=19.8mil|CornerRadius=8.1mil|HoleSize=0mil|Usage=FLASHONLY|Rotation=180.000|XOffset=0mil|YOffset=0mil|HoleType=Round|Shape=RoundedRectangle|*
%AMROUNDEDRECTD47*
21,1,0.0694,0.0035,0,0,180.0*
21,1,0.0531,0.0198,0,0,180.0*
1,1,0.0163,-0.0266,0.0018*
1,1,0.0163,0.0266,0.0018*
1,1,0.0163,0.0266,-0.0018*
1,1,0.0163,-0.0266,-0.0018*
%
%ADD47ROUNDEDRECTD47*%
G04:AMPARAMS|DCode=48|XSize=44.6mil|YSize=59.6mil|CornerRadius=6.7mil|HoleSize=0mil|Usage=FLASHONLY|Rotation=90.000|XOffset=0mil|YOffset=0mil|HoleType=Round|Shape=RoundedRectangle|*
%AMROUNDEDRECTD48*
21,1,0.0446,0.0461,0,0,90.0*
21,1,0.0311,0.0596,0,0,90.0*
1,1,0.0135,0.0230,0.0156*
1,1,0.0135,0.0230,-0.0156*
1,1,0.0135,-0.0230,-0.0156*
1,1,0.0135,-0.0230,0.0156*
%
%ADD48ROUNDEDRECTD48*%
G04:AMPARAMS|DCode=49|XSize=135.6mil|YSize=59.6mil|CornerRadius=7.9mil|HoleSize=0mil|Usage=FLASHONLY|Rotation=90.000|XOffset=0mil|YOffset=0mil|HoleType=Round|Shape=RoundedRectangle|*
%AMROUNDEDRECTD49*
21,1,0.1356,0.0438,0,0,90.0*
21,1,0.1198,0.0596,0,0,90.0*
1,1,0.0157,0.0219,0.0599*
1,1,0.0157,0.0219,-0.0599*
1,1,0.0157,-0.0219,-0.0599*
1,1,0.0157,-0.0219,0.0599*
%
%ADD49ROUNDEDRECTD49*%
%ADD50R,0.0630X0.0474*%
%ADD51R,0.0474X0.0630*%
%ADD52R,0.0710X0.1458*%
%ADD53R,0.0552X0.0907*%
%ADD54R,0.0730X0.0316*%
%ADD55R,0.0867X0.0867*%
%ADD56R,0.0671X0.1025*%
G04:AMPARAMS|DCode=57|XSize=47.4mil|YSize=141.9mil|CornerRadius=13.8mil|HoleSize=0mil|Usage=FLASHONLY|Rotation=270.000|XOffset=0mil|YOffset=0mil|HoleType=Round|Shape=RoundedRectangle|*
%AMROUNDEDRECTD57*
21,1,0.0474,0.1142,0,0,270.0*
21,1,0.0197,0.1419,0,0,270.0*
1,1,0.0277,-0.0571,-0.0098*
1,1,0.0277,-0.0571,0.0098*
1,1,0.0277,0.0571,0.0098*
1,1,0.0277,0.0571,-0.0098*
%
%ADD57ROUNDEDRECTD57*%
%ADD58O,0.0356X0.0867*%
%ADD59O,0.0867X0.0356*%
G04:AMPARAMS|DCode=60|XSize=323mil|YSize=55.2mil|CornerRadius=0mil|HoleSize=0mil|Usage=FLASHONLY|Rotation=180.000|XOffset=0mil|YOffset=0mil|HoleType=Round|Shape=Octagon|*
%AMOCTAGOND60*
4,1,8,-0.1615,0.0138,-0.1615,-0.0138,-0.1477,-0.0276,0.1477,-0.0276,0.1615,-0.0138,0.1615,0.0138,0.1477,0.0276,-0.1477,0.0276,-0.1615,0.0138,0.0*
%
%ADD60OCTAGOND60*%

%ADD61C,0.0900*%
%ADD62C,0.0800*%
%ADD63R,0.0671X0.0671*%
%ADD64C,0.0671*%
%ADD65O,0.0740X0.1080*%
%ADD66C,0.0830*%
%ADD67C,0.0867*%
%ADD68R,0.0671X0.0671*%
%ADD69O,0.1080X0.1280*%
%ADD70R,0.1064X0.1064*%
G36*
X21564Y29663D02*
X21259D01*
Y29860D01*
X21564D01*
Y29663D01*
D02*
G37*
G36*
X21141D02*
X20836D01*
Y29860D01*
X21141D01*
Y29663D01*
D02*
G37*
G36*
X20664D02*
X20359D01*
Y29860D01*
X20664D01*
Y29663D01*
D02*
G37*
G36*
X20241D02*
X19936D01*
Y29860D01*
X20241D01*
Y29663D01*
D02*
G37*
G36*
X21564Y28640D02*
X21259D01*
Y28837D01*
X21564D01*
Y28640D01*
D02*
G37*
G36*
X21141D02*
X20836D01*
Y28837D01*
X21141D01*
Y28640D01*
D02*
G37*
G36*
X20664D02*
X20359D01*
Y28837D01*
X20664D01*
Y28640D01*
D02*
G37*
G36*
X20241D02*
X19936D01*
Y28837D01*
X20241D01*
Y28640D01*
D02*
G37*
G36*
X34389Y19947D02*
X34211D01*
Y20301D01*
X34389D01*
Y19947D01*
D02*
G37*
G36*
X34644Y19947D02*
X34467D01*
Y20301D01*
X34644D01*
Y19947D01*
D02*
G37*
G36*
X34133Y19947D02*
X33955D01*
Y20301D01*
X34133D01*
Y19947D01*
D02*
G37*
G36*
Y19199D02*
X33955D01*
Y19553D01*
X34133D01*
Y19199D01*
D02*
G37*
G36*
X34389Y19198D02*
X34211D01*
Y19553D01*
X34389D01*
Y19198D01*
D02*
G37*
G36*
X34644Y19198D02*
X34468D01*
Y19553D01*
X34644D01*
Y19198D01*
D02*
G37*
G54D14*
X24618Y34800D02*
X24623Y34835D01*
X24618Y34800D02*
X24623Y34835D01*
X24327Y34123D02*
X24405Y34149D01*
X24451Y34216D01*
X24327Y34123D02*
X24405Y34149D01*
X24451Y34216D01*
X24623Y37835D02*
X24618Y37871D01*
X24623Y37835D02*
X24618Y37871D01*
X24451Y38454D02*
X24405Y38522D01*
X24327Y38548D01*
X24451Y38454D02*
X24405Y38522D01*
X24327Y38548D01*
X24451Y34217D02*
X24618Y34800D01*
X24623Y34835D02*
Y37835D01*
X23827Y34123D02*
X24327D01*
X24451Y38454D02*
X24618Y37871D01*
X23827Y38548D02*
X24327D01*
X21602D02*
X23827D01*
X21600Y38546D02*
X21602Y38548D01*
X21600Y34350D02*
Y38546D01*
Y34100D02*
Y34350D01*
Y34100D02*
X24350D01*
X24400Y34150D01*
G54D36*
X18750Y36350D02*
D03*
G54D40*
X24477Y34512D02*
Y38152D01*
G54D41*
X23060Y36332D02*
D03*
G54D42*
X23800Y5700D02*
D03*
Y6600D02*
D03*
X21100Y5700D02*
D03*
Y6600D02*
D03*
X13300Y10450D02*
D03*
Y9550D02*
D03*
X14300Y10450D02*
D03*
Y9550D02*
D03*
X30750Y18900D02*
D03*
Y19800D02*
D03*
X31750Y18850D02*
D03*
Y19750D02*
D03*
X31700Y17050D02*
D03*
Y17950D02*
D03*
X22100Y11400D02*
D03*
Y10500D02*
D03*
X20550Y19250D02*
D03*
Y20150D02*
D03*
X15150Y22700D02*
D03*
Y21800D02*
D03*
X14500Y18350D02*
D03*
Y17450D02*
D03*
X10700Y17700D02*
D03*
Y16800D02*
D03*
Y18450D02*
D03*
Y19350D02*
D03*
X4600Y27200D02*
D03*
Y26300D02*
D03*
X3800Y27200D02*
D03*
Y26300D02*
D03*
X3000Y27200D02*
D03*
Y26300D02*
D03*
X9950Y30150D02*
D03*
Y29250D02*
D03*
Y28350D02*
D03*
Y27450D02*
D03*
X17200Y37700D02*
D03*
Y36800D02*
D03*
G54D43*
X22000Y6600D02*
D03*
X22900D02*
D03*
X19350D02*
D03*
X20250D02*
D03*
X21450Y3150D02*
D03*
X22350D02*
D03*
X19750D02*
D03*
X20650D02*
D03*
X29750Y18900D02*
D03*
X28850D02*
D03*
X31500Y13950D02*
D03*
X32400D02*
D03*
X24400Y14050D02*
D03*
X23500D02*
D03*
X24400Y14800D02*
D03*
X23500D02*
D03*
X24400Y15550D02*
D03*
X23500D02*
D03*
X21250Y12400D02*
D03*
X22150D02*
D03*
X20300D02*
D03*
X19400D02*
D03*
X16050Y13100D02*
D03*
X16950D02*
D03*
X18550Y15750D02*
D03*
X19450D02*
D03*
X15250Y13100D02*
D03*
X14350D02*
D03*
X23450Y18500D02*
D03*
X22550D02*
D03*
X23450Y17650D02*
D03*
X22550D02*
D03*
Y19350D02*
D03*
X23450D02*
D03*
X21750Y17650D02*
D03*
X20850D02*
D03*
X17750Y22750D02*
D03*
X16850D02*
D03*
Y21800D02*
D03*
X15950D02*
D03*
X11450Y20800D02*
D03*
X12350D02*
D03*
X11450Y24050D02*
D03*
X12350D02*
D03*
X9000Y30200D02*
D03*
X8100D02*
D03*
G54D44*
X34044Y20124D02*
D03*
X34300D02*
D03*
X34556D02*
D03*
Y19376D02*
D03*
X34300D02*
D03*
X34044D02*
D03*
G54D45*
X27572Y13900D02*
D03*
X30328D02*
D03*
X19372Y13750D02*
D03*
X22128D02*
D03*
X17028Y14450D02*
D03*
X14272D02*
D03*
G54D46*
X16317Y20346D02*
D03*
X16514D02*
D03*
X16711D02*
D03*
X16908D02*
D03*
X17105D02*
D03*
X17302D02*
D03*
X17498D02*
D03*
X17695D02*
D03*
X17892D02*
D03*
X18089D02*
D03*
X18286D02*
D03*
X18483D02*
D03*
Y17054D02*
D03*
X18286D02*
D03*
X18089D02*
D03*
X17892D02*
D03*
X17695D02*
D03*
X17498D02*
D03*
X17302D02*
D03*
X17105D02*
D03*
X16908D02*
D03*
X16711D02*
D03*
X16514D02*
D03*
X16317D02*
D03*
G54D47*
X19046Y19783D02*
D03*
Y19586D02*
D03*
Y19389D02*
D03*
Y19192D02*
D03*
Y18995D02*
D03*
Y18798D02*
D03*
Y18602D02*
D03*
Y18405D02*
D03*
Y18208D02*
D03*
Y18011D02*
D03*
Y17814D02*
D03*
Y17617D02*
D03*
X15754D02*
D03*
Y17814D02*
D03*
Y18011D02*
D03*
Y18208D02*
D03*
Y18405D02*
D03*
Y18602D02*
D03*
Y18798D02*
D03*
Y18995D02*
D03*
Y19192D02*
D03*
Y19389D02*
D03*
Y19586D02*
D03*
Y19783D02*
D03*
G54D48*
X9017Y27448D02*
D03*
Y28350D02*
D03*
Y29252D02*
D03*
G54D49*
X6383Y28350D02*
D03*
G54D50*
X11100Y30150D02*
D03*
Y29250D02*
D03*
X15350Y29350D02*
D03*
Y28450D02*
D03*
G54D51*
X11800Y31650D02*
D03*
X10900D02*
D03*
G54D52*
X15300Y31648D02*
D03*
Y33852D02*
D03*
Y37752D02*
D03*
Y35548D02*
D03*
X9000Y31648D02*
D03*
Y33852D02*
D03*
G54D53*
X17057Y28500D02*
D03*
X19143D02*
D03*
G54D54*
X20300Y28482D02*
D03*
Y30018D02*
D03*
X21200Y28482D02*
D03*
Y30018D02*
D03*
G54D55*
X20750Y31175D02*
D03*
Y33025D02*
D03*
G54D56*
X17267Y32100D02*
D03*
X19433D02*
D03*
G54D57*
X18750Y37689D02*
D03*
Y37019D02*
D03*
Y35681D02*
D03*
Y35011D02*
D03*
G54D58*
X26550Y1876D02*
D03*
X26944D02*
D03*
X27338D02*
D03*
X27731D02*
D03*
X28125D02*
D03*
X28519D02*
D03*
X28913D02*
D03*
X29306D02*
D03*
X29700D02*
D03*
X30094D02*
D03*
X30487D02*
D03*
X30881D02*
D03*
X31275D02*
D03*
X31669D02*
D03*
X32062D02*
D03*
X32456D02*
D03*
X32850D02*
D03*
Y11324D02*
D03*
X32456D02*
D03*
X32062D02*
D03*
X31669D02*
D03*
X31275D02*
D03*
X30881D02*
D03*
X30487D02*
D03*
X30094D02*
D03*
X29700D02*
D03*
X29306D02*
D03*
X28913D02*
D03*
X28519D02*
D03*
X28125D02*
D03*
X27731D02*
D03*
X27338D02*
D03*
X26944D02*
D03*
X26550D02*
D03*
G54D59*
X34424Y3450D02*
D03*
Y3844D02*
D03*
Y4238D02*
D03*
Y4631D02*
D03*
Y5025D02*
D03*
Y5419D02*
D03*
Y5813D02*
D03*
Y6206D02*
D03*
Y6600D02*
D03*
Y6994D02*
D03*
Y7387D02*
D03*
Y7781D02*
D03*
Y8175D02*
D03*
Y8569D02*
D03*
Y8962D02*
D03*
Y9356D02*
D03*
Y9750D02*
D03*
X24976D02*
D03*
Y9356D02*
D03*
Y8962D02*
D03*
Y8569D02*
D03*
Y8175D02*
D03*
Y7781D02*
D03*
Y7387D02*
D03*
Y6994D02*
D03*
Y6600D02*
D03*
Y6206D02*
D03*
Y5813D02*
D03*
Y5419D02*
D03*
Y5025D02*
D03*
Y4631D02*
D03*
Y4238D02*
D03*
Y3844D02*
D03*
Y3450D02*
D03*
G54D60*
X36531Y23700D02*
D03*
Y24700D02*
D03*
Y25700D02*
D03*
X28509D02*
D03*
Y24700D02*
D03*
Y23700D02*
D03*
G54D61*
X2900Y7600D02*
D03*
Y5600D02*
D03*
X900D02*
D03*
Y7600D02*
D03*
G54D62*
X1900Y6600D02*
D03*
G54D63*
X2150Y12950D02*
D03*
X1000Y10500D02*
D03*
X24550Y24750D02*
D03*
X20300D02*
D03*
X13800D02*
D03*
X12200Y25550D02*
D03*
X11700Y14550D02*
D03*
X11300Y11500D02*
D03*
G54D64*
X3150Y12950D02*
D03*
X4150D02*
D03*
X5150D02*
D03*
X2150Y13950D02*
D03*
X3150D02*
D03*
X4150D02*
D03*
X5150D02*
D03*
X2000Y10500D02*
D03*
X3000D02*
D03*
X4000D02*
D03*
X23550Y24750D02*
D03*
X22550D02*
D03*
X21550D02*
D03*
X18300D02*
D03*
X19300D02*
D03*
X16800D02*
D03*
X15800D02*
D03*
X14800D02*
D03*
X11200Y25550D02*
D03*
X11100Y27350D02*
D03*
X12200Y34050D02*
D03*
X10700Y14550D02*
D03*
X9700D02*
D03*
X8700D02*
D03*
X25450Y19000D02*
D03*
Y20000D02*
D03*
X12300Y11500D02*
D03*
X13300D02*
D03*
X14300D02*
D03*
G54D65*
X30700Y17150D02*
D03*
X29700D02*
D03*
X28700D02*
D03*
X21100Y10750D02*
D03*
X20100D02*
D03*
X19100D02*
D03*
G54D66*
X12150Y17100D02*
D03*
Y19100D02*
D03*
G54D67*
X12350Y21950D02*
D03*
Y22950D02*
D03*
G54D68*
X11100Y28350D02*
D03*
X12200Y33050D02*
D03*
X25450Y18000D02*
D03*
G54D69*
X10900Y37770D02*
D03*
X6400D02*
D03*
X4400D02*
D03*
X12900D02*
D03*
G54D70*
X1650D02*
D03*
Y35770D02*
D03*
M02*
