G04*
G04 #@! TF.GenerationSoftware,Altium Limited,Altium Designer,22.2.1 (43)*
G04*
G04 Layer_Color=32896*
%FSLAX24Y24*%
%MOIN*%
G70*
G04*
G04 #@! TF.SameCoordinates,AB8B2AD1-1602-442A-A43A-F402AF7CDF0B*
G04*
G04*
G04 #@! TF.FilePolarity,Positive*
G04*
G01*
G75*
%ADD11C,0.0050*%
%ADD12C,0.0079*%
%ADD15C,0.0040*%
G54D11*
X28790Y22490D02*
Y24020D01*
X28120Y22490D02*
X28790D01*
X28120D02*
Y24020D01*
X28790D01*
X36220Y25420D02*
X36890D01*
X36220Y23890D02*
Y25420D01*
Y23890D02*
X36890D01*
Y25420D01*
G54D12*
X29655Y23166D02*
X29707Y23114D01*
Y23009D01*
X29655Y22956D01*
X29445D01*
X29393Y23009D01*
Y23114D01*
X29445Y23166D01*
X29393Y23271D02*
Y23376D01*
Y23324D01*
X29707D01*
X29655Y23271D01*
Y23534D02*
X29707Y23586D01*
Y23691D01*
X29655Y23744D01*
X29602D01*
X29550Y23691D01*
X29498Y23744D01*
X29445D01*
X29393Y23691D01*
Y23586D01*
X29445Y23534D01*
X29498D01*
X29550Y23586D01*
X29602Y23534D01*
X29655D01*
X29550Y23586D02*
Y23691D01*
X36630Y25982D02*
X36683Y26035D01*
X36788D01*
X36840Y25982D01*
Y25773D01*
X36788Y25720D01*
X36683D01*
X36630Y25773D01*
X36525Y25720D02*
X36420D01*
X36473D01*
Y26035D01*
X36525Y25982D01*
X36263Y26035D02*
X36053D01*
Y25982D01*
X36263Y25773D01*
Y25720D01*
G54D15*
X28200Y23080D02*
Y23420D01*
X28700Y23080D02*
Y23420D01*
X36800Y24480D02*
Y24820D01*
X36300Y24480D02*
Y24820D01*
M02*
