G04*
G04 #@! TF.GenerationSoftware,Altium Limited,Altium Designer,22.2.1 (43)*
G04*
G04 Layer_Physical_Order=2*
G04 Layer_Color=10275833*
%FSLAX24Y24*%
%MOIN*%
G70*
G04*
G04 #@! TF.SameCoordinates,AB8B2AD1-1602-442A-A43A-F402AF7CDF0B*
G04*
G04*
G04 #@! TF.FilePolarity,Positive*
G04*
G01*
G75*
%ADD12C,0.0079*%
%ADD16C,0.0118*%
%ADD22R,0.0550X0.0500*%
%ADD73C,0.0253*%
%ADD76C,0.0820*%
%ADD77C,0.0720*%
%ADD78R,0.0591X0.0591*%
%ADD79C,0.0591*%
%ADD80O,0.0660X0.1000*%
%ADD81C,0.0750*%
%ADD82C,0.0787*%
%ADD83R,0.0591X0.0591*%
%ADD84O,0.1000X0.1200*%
%ADD85R,0.0984X0.0984*%
%ADD86C,0.0236*%
G36*
X39270Y29450D02*
X15350D01*
X12650Y26750D01*
X100D01*
Y39270D01*
X39270D01*
Y29450D01*
D02*
G37*
G36*
X26600Y21320D02*
X25958D01*
X25912Y21367D01*
X25839Y21397D01*
X25761D01*
X25688Y21367D01*
X25633Y21312D01*
X25603Y21239D01*
Y21161D01*
X25633Y21088D01*
X25688Y21033D01*
X25761Y21003D01*
X25839D01*
X25912Y21033D01*
X25958Y21080D01*
X26600D01*
Y17650D01*
X25800Y16850D01*
X24850D01*
X23950Y15950D01*
Y13800D01*
X23350Y13200D01*
X18900D01*
X15500Y9800D01*
X12796D01*
X12509Y10087D01*
Y11189D01*
X12530Y11201D01*
X12599Y11270D01*
X12649Y11356D01*
X12674Y11451D01*
Y11549D01*
X12649Y11644D01*
X12599Y11730D01*
X12530Y11799D01*
X12444Y11849D01*
X12349Y11874D01*
X12251D01*
X12156Y11849D01*
X12070Y11799D01*
X12001Y11730D01*
X11951Y11644D01*
X11926Y11549D01*
Y11451D01*
X11951Y11356D01*
X12001Y11270D01*
X12070Y11201D01*
X12091Y11189D01*
Y10000D01*
X12107Y9920D01*
X12152Y9852D01*
X12158Y9846D01*
X12139Y9800D01*
X100D01*
Y26630D01*
X12650D01*
X12650Y26630D01*
X12696Y26639D01*
X12735Y26665D01*
X12735Y26665D01*
X15400Y29330D01*
X26600D01*
Y21320D01*
D02*
G37*
G36*
X39270Y100D02*
X100D01*
Y9680D01*
X12139D01*
X12168Y9685D01*
X12185Y9689D01*
X12224Y9715D01*
X12280Y9721D01*
X12286Y9718D01*
X12602Y9402D01*
X12670Y9357D01*
X12750Y9341D01*
X14850D01*
X14930Y9357D01*
X14998Y9402D01*
X15043Y9470D01*
X15059Y9550D01*
X15043Y9630D01*
X15039Y9635D01*
X15063Y9680D01*
X15500D01*
X15546Y9689D01*
X15585Y9715D01*
X18950Y13080D01*
X23350D01*
X23396Y13089D01*
X23435Y13115D01*
X24035Y13715D01*
X24061Y13754D01*
X24070Y13800D01*
X24070Y13800D01*
Y15900D01*
X24900Y16730D01*
X25800D01*
X25800Y16730D01*
X25846Y16739D01*
X25885Y16765D01*
X26685Y17565D01*
X26711Y17604D01*
X26720Y17650D01*
X26720Y17650D01*
Y21080D01*
X32042D01*
X32088Y21033D01*
X32161Y21003D01*
X32239D01*
X32312Y21033D01*
X32367Y21088D01*
X32397Y21161D01*
Y21239D01*
X32367Y21312D01*
X32312Y21367D01*
X32239Y21397D01*
X32161D01*
X32088Y21367D01*
X32042Y21320D01*
X26720D01*
Y29330D01*
X39270D01*
Y100D01*
D02*
G37*
%LPC*%
G36*
X2221Y38341D02*
X1079D01*
Y37199D01*
X2221D01*
Y38341D01*
D02*
G37*
G36*
X12900Y38454D02*
X12749Y38434D01*
X12608Y38376D01*
X12487Y38283D01*
X12394Y38162D01*
X12336Y38021D01*
X12316Y37870D01*
Y37670D01*
X12336Y37519D01*
X12394Y37378D01*
X12487Y37257D01*
X12608Y37165D01*
X12749Y37106D01*
X12900Y37086D01*
X13051Y37106D01*
X13192Y37165D01*
X13313Y37257D01*
X13406Y37378D01*
X13464Y37519D01*
X13484Y37670D01*
Y37870D01*
X13464Y38021D01*
X13406Y38162D01*
X13313Y38283D01*
X13192Y38376D01*
X13051Y38434D01*
X12900Y38454D01*
D02*
G37*
G36*
X10900D02*
X10749Y38434D01*
X10608Y38376D01*
X10487Y38283D01*
X10394Y38162D01*
X10336Y38021D01*
X10316Y37870D01*
Y37670D01*
X10336Y37519D01*
X10394Y37378D01*
X10487Y37257D01*
X10608Y37165D01*
X10749Y37106D01*
X10900Y37086D01*
X11051Y37106D01*
X11192Y37165D01*
X11313Y37257D01*
X11406Y37378D01*
X11464Y37519D01*
X11484Y37670D01*
Y37870D01*
X11464Y38021D01*
X11406Y38162D01*
X11313Y38283D01*
X11192Y38376D01*
X11051Y38434D01*
X10900Y38454D01*
D02*
G37*
G36*
X6400D02*
X6249Y38434D01*
X6108Y38376D01*
X5987Y38283D01*
X5894Y38162D01*
X5836Y38021D01*
X5816Y37870D01*
Y37670D01*
X5836Y37519D01*
X5894Y37378D01*
X5987Y37257D01*
X6108Y37165D01*
X6249Y37106D01*
X6400Y37086D01*
X6551Y37106D01*
X6692Y37165D01*
X6813Y37257D01*
X6906Y37378D01*
X6964Y37519D01*
X6984Y37670D01*
Y37870D01*
X6964Y38021D01*
X6906Y38162D01*
X6813Y38283D01*
X6692Y38376D01*
X6551Y38434D01*
X6400Y38454D01*
D02*
G37*
G36*
X4400D02*
X4249Y38434D01*
X4108Y38376D01*
X3987Y38283D01*
X3894Y38162D01*
X3836Y38021D01*
X3816Y37870D01*
Y37670D01*
X3836Y37519D01*
X3894Y37378D01*
X3987Y37257D01*
X4108Y37165D01*
X4249Y37106D01*
X4400Y37086D01*
X4551Y37106D01*
X4692Y37165D01*
X4813Y37257D01*
X4906Y37378D01*
X4964Y37519D01*
X4984Y37670D01*
Y37870D01*
X4964Y38021D01*
X4906Y38162D01*
X4813Y38283D01*
X4692Y38376D01*
X4551Y38434D01*
X4400Y38454D01*
D02*
G37*
G36*
X2242Y36362D02*
X1700D01*
Y35820D01*
X2242D01*
Y36362D01*
D02*
G37*
G36*
X1600D02*
X1058D01*
Y35820D01*
X1600D01*
Y36362D01*
D02*
G37*
G36*
X2242Y35720D02*
X1700D01*
Y35178D01*
X2242D01*
Y35720D01*
D02*
G37*
G36*
X1600D02*
X1058D01*
Y35178D01*
X1600D01*
Y35720D01*
D02*
G37*
G36*
X12252Y34445D02*
X12250D01*
Y34100D01*
X12595D01*
Y34102D01*
X12568Y34203D01*
X12516Y34293D01*
X12443Y34366D01*
X12353Y34418D01*
X12252Y34445D01*
D02*
G37*
G36*
X12150D02*
X12148D01*
X12047Y34418D01*
X11957Y34366D01*
X11884Y34293D01*
X11832Y34203D01*
X11805Y34102D01*
Y34100D01*
X12150D01*
Y34445D01*
D02*
G37*
G36*
X12595Y34000D02*
X12250D01*
Y33655D01*
X12252D01*
X12353Y33682D01*
X12443Y33734D01*
X12516Y33807D01*
X12568Y33897D01*
X12595Y33998D01*
Y34000D01*
D02*
G37*
G36*
X12150D02*
X11805D01*
Y33998D01*
X11832Y33897D01*
X11884Y33807D01*
X11957Y33734D01*
X12047Y33682D01*
X12148Y33655D01*
X12150D01*
Y34000D01*
D02*
G37*
G36*
X12574Y33424D02*
X11826D01*
Y32676D01*
X12574D01*
Y33424D01*
D02*
G37*
G36*
X11474Y28724D02*
X10726D01*
Y27976D01*
X11474D01*
Y28724D01*
D02*
G37*
G36*
X11152Y27745D02*
X11150D01*
Y27400D01*
X11495D01*
Y27402D01*
X11468Y27503D01*
X11416Y27593D01*
X11343Y27666D01*
X11253Y27718D01*
X11152Y27745D01*
D02*
G37*
G36*
X11050D02*
X11048D01*
X10947Y27718D01*
X10857Y27666D01*
X10784Y27593D01*
X10732Y27503D01*
X10705Y27402D01*
Y27400D01*
X11050D01*
Y27745D01*
D02*
G37*
G36*
X11495Y27300D02*
X11150D01*
Y26955D01*
X11152D01*
X11253Y26982D01*
X11343Y27034D01*
X11416Y27107D01*
X11468Y27197D01*
X11495Y27298D01*
Y27300D01*
D02*
G37*
G36*
X11050D02*
X10705D01*
Y27298D01*
X10732Y27197D01*
X10784Y27107D01*
X10857Y27034D01*
X10947Y26982D01*
X11048Y26955D01*
X11050D01*
Y27300D01*
D02*
G37*
G36*
X11252Y25945D02*
X11250D01*
Y25600D01*
X11595D01*
Y25602D01*
X11568Y25703D01*
X11516Y25793D01*
X11443Y25866D01*
X11353Y25918D01*
X11252Y25945D01*
D02*
G37*
G36*
X11150D02*
X11148D01*
X11047Y25918D01*
X10957Y25866D01*
X10884Y25793D01*
X10832Y25703D01*
X10805Y25602D01*
Y25600D01*
X11150D01*
Y25945D01*
D02*
G37*
G36*
X12574Y25924D02*
X11826D01*
Y25176D01*
X12574D01*
Y25924D01*
D02*
G37*
G36*
X11595Y25500D02*
X11250D01*
Y25155D01*
X11252D01*
X11353Y25182D01*
X11443Y25234D01*
X11516Y25307D01*
X11568Y25397D01*
X11595Y25498D01*
Y25500D01*
D02*
G37*
G36*
X11150D02*
X10805D01*
Y25498D01*
X10832Y25397D01*
X10884Y25307D01*
X10957Y25234D01*
X11047Y25182D01*
X11148Y25155D01*
X11150D01*
Y25500D01*
D02*
G37*
G36*
X16852Y25145D02*
X16850D01*
Y24800D01*
X17195D01*
Y24802D01*
X17168Y24903D01*
X17116Y24993D01*
X17043Y25066D01*
X16953Y25118D01*
X16852Y25145D01*
D02*
G37*
G36*
X16750D02*
X16748D01*
X16647Y25118D01*
X16557Y25066D01*
X16484Y24993D01*
X16432Y24903D01*
X16405Y24802D01*
Y24800D01*
X16750D01*
Y25145D01*
D02*
G37*
G36*
X24945D02*
X24600D01*
Y24800D01*
X24945D01*
Y25145D01*
D02*
G37*
G36*
X24500D02*
X24155D01*
Y24800D01*
X24500D01*
Y25145D01*
D02*
G37*
G36*
X23599Y25124D02*
X23501D01*
X23406Y25099D01*
X23320Y25049D01*
X23251Y24980D01*
X23201Y24894D01*
X23176Y24799D01*
Y24701D01*
X23201Y24606D01*
X23251Y24520D01*
X23320Y24451D01*
X23406Y24401D01*
X23501Y24376D01*
X23599D01*
X23694Y24401D01*
X23780Y24451D01*
X23849Y24520D01*
X23899Y24606D01*
X23924Y24701D01*
Y24799D01*
X23899Y24894D01*
X23849Y24980D01*
X23780Y25049D01*
X23694Y25099D01*
X23599Y25124D01*
D02*
G37*
G36*
X22599D02*
X22501D01*
X22406Y25099D01*
X22320Y25049D01*
X22251Y24980D01*
X22201Y24894D01*
X22176Y24799D01*
Y24701D01*
X22201Y24606D01*
X22251Y24520D01*
X22320Y24451D01*
X22406Y24401D01*
X22501Y24376D01*
X22599D01*
X22694Y24401D01*
X22780Y24451D01*
X22849Y24520D01*
X22899Y24606D01*
X22924Y24701D01*
Y24799D01*
X22899Y24894D01*
X22849Y24980D01*
X22780Y25049D01*
X22694Y25099D01*
X22599Y25124D01*
D02*
G37*
G36*
X20674D02*
X19926D01*
Y24376D01*
X20674D01*
Y25124D01*
D02*
G37*
G36*
X19349D02*
X19251D01*
X19156Y25099D01*
X19070Y25049D01*
X19001Y24980D01*
X18951Y24894D01*
X18926Y24799D01*
Y24701D01*
X18951Y24606D01*
X19001Y24520D01*
X19070Y24451D01*
X19156Y24401D01*
X19251Y24376D01*
X19349D01*
X19444Y24401D01*
X19530Y24451D01*
X19599Y24520D01*
X19649Y24606D01*
X19674Y24701D01*
Y24799D01*
X19649Y24894D01*
X19599Y24980D01*
X19530Y25049D01*
X19444Y25099D01*
X19349Y25124D01*
D02*
G37*
G36*
X18349D02*
X18251D01*
X18156Y25099D01*
X18070Y25049D01*
X18001Y24980D01*
X17951Y24894D01*
X17926Y24799D01*
Y24701D01*
X17951Y24606D01*
X18001Y24520D01*
X18070Y24451D01*
X18156Y24401D01*
X18251Y24376D01*
X18349D01*
X18444Y24401D01*
X18530Y24451D01*
X18599Y24520D01*
X18649Y24606D01*
X18674Y24701D01*
Y24799D01*
X18649Y24894D01*
X18599Y24980D01*
X18530Y25049D01*
X18444Y25099D01*
X18349Y25124D01*
D02*
G37*
G36*
X15849D02*
X15751D01*
X15656Y25099D01*
X15570Y25049D01*
X15501Y24980D01*
X15451Y24894D01*
X15426Y24799D01*
Y24701D01*
X15451Y24606D01*
X15501Y24520D01*
X15570Y24451D01*
X15656Y24401D01*
X15751Y24376D01*
X15849D01*
X15944Y24401D01*
X16030Y24451D01*
X16099Y24520D01*
X16149Y24606D01*
X16174Y24701D01*
Y24799D01*
X16149Y24894D01*
X16099Y24980D01*
X16030Y25049D01*
X15944Y25099D01*
X15849Y25124D01*
D02*
G37*
G36*
X14849D02*
X14751D01*
X14656Y25099D01*
X14570Y25049D01*
X14501Y24980D01*
X14451Y24894D01*
X14426Y24799D01*
Y24701D01*
X14451Y24606D01*
X14501Y24520D01*
X14570Y24451D01*
X14656Y24401D01*
X14751Y24376D01*
X14849D01*
X14944Y24401D01*
X15030Y24451D01*
X15099Y24520D01*
X15149Y24606D01*
X15174Y24701D01*
Y24799D01*
X15149Y24894D01*
X15099Y24980D01*
X15030Y25049D01*
X14944Y25099D01*
X14849Y25124D01*
D02*
G37*
G36*
X14174D02*
X13426D01*
Y24376D01*
X14174D01*
Y25124D01*
D02*
G37*
G36*
X24945Y24700D02*
X24600D01*
Y24355D01*
X24945D01*
Y24700D01*
D02*
G37*
G36*
X24500D02*
X24155D01*
Y24355D01*
X24500D01*
Y24700D01*
D02*
G37*
G36*
X17195Y24700D02*
X16850D01*
Y24355D01*
X16852D01*
X16953Y24382D01*
X17043Y24434D01*
X17116Y24507D01*
X17168Y24597D01*
X17195Y24698D01*
Y24700D01*
D02*
G37*
G36*
X16750D02*
X16405D01*
Y24698D01*
X16432Y24597D01*
X16484Y24507D01*
X16557Y24434D01*
X16647Y24382D01*
X16748Y24355D01*
X16750D01*
Y24700D01*
D02*
G37*
G36*
X12412Y23422D02*
X12288D01*
X12168Y23390D01*
X12060Y23328D01*
X11972Y23240D01*
X11910Y23132D01*
X11878Y23012D01*
Y22888D01*
X11910Y22768D01*
X11972Y22660D01*
X12060Y22572D01*
X12168Y22510D01*
X12288Y22478D01*
X12412D01*
X12532Y22510D01*
X12640Y22572D01*
X12728Y22660D01*
X12790Y22768D01*
X12822Y22888D01*
Y23012D01*
X12790Y23132D01*
X12728Y23240D01*
X12640Y23328D01*
X12532Y23390D01*
X12412Y23422D01*
D02*
G37*
G36*
Y22422D02*
X12288D01*
X12168Y22390D01*
X12060Y22328D01*
X11972Y22240D01*
X11910Y22132D01*
X11878Y22012D01*
Y21888D01*
X11910Y21768D01*
X11972Y21660D01*
X12060Y21572D01*
X12168Y21510D01*
X12288Y21478D01*
X12412D01*
X12532Y21510D01*
X12640Y21572D01*
X12728Y21660D01*
X12790Y21768D01*
X12822Y21888D01*
Y22012D01*
X12790Y22132D01*
X12728Y22240D01*
X12640Y22328D01*
X12532Y22390D01*
X12412Y22422D01*
D02*
G37*
G36*
X25499Y20374D02*
X25401D01*
X25306Y20349D01*
X25220Y20299D01*
X25151Y20230D01*
X25101Y20144D01*
X25076Y20049D01*
Y19951D01*
X25101Y19856D01*
X25151Y19770D01*
X25220Y19701D01*
X25306Y19651D01*
X25401Y19626D01*
X25499D01*
X25594Y19651D01*
X25680Y19701D01*
X25749Y19770D01*
X25799Y19856D01*
X25824Y19951D01*
Y20049D01*
X25799Y20144D01*
X25749Y20230D01*
X25680Y20299D01*
X25594Y20349D01*
X25499Y20374D01*
D02*
G37*
G36*
X12210Y19554D02*
X12090D01*
X11975Y19523D01*
X11871Y19463D01*
X11787Y19379D01*
X11727Y19275D01*
X11696Y19160D01*
Y19040D01*
X11727Y18925D01*
X11787Y18821D01*
X11871Y18737D01*
X11975Y18677D01*
X12090Y18646D01*
X12210D01*
X12325Y18677D01*
X12429Y18737D01*
X12513Y18821D01*
X12573Y18925D01*
X12604Y19040D01*
Y19160D01*
X12573Y19275D01*
X12513Y19379D01*
X12429Y19463D01*
X12325Y19523D01*
X12210Y19554D01*
D02*
G37*
G36*
X25499Y19374D02*
X25401D01*
X25306Y19349D01*
X25220Y19299D01*
X25151Y19230D01*
X25101Y19144D01*
X25076Y19049D01*
Y18951D01*
X25101Y18856D01*
X25151Y18770D01*
X25220Y18701D01*
X25306Y18651D01*
X25401Y18626D01*
X25499D01*
X25594Y18651D01*
X25680Y18701D01*
X25749Y18770D01*
X25799Y18856D01*
X25824Y18951D01*
Y19049D01*
X25799Y19144D01*
X25749Y19230D01*
X25680Y19299D01*
X25594Y19349D01*
X25499Y19374D01*
D02*
G37*
G36*
X25845Y18395D02*
X25500D01*
Y18050D01*
X25845D01*
Y18395D01*
D02*
G37*
G36*
X25400D02*
X25055D01*
Y18050D01*
X25400D01*
Y18395D01*
D02*
G37*
G36*
X25845Y17950D02*
X25500D01*
Y17605D01*
X25845D01*
Y17950D01*
D02*
G37*
G36*
X25400D02*
X25055D01*
Y17605D01*
X25400D01*
Y17950D01*
D02*
G37*
G36*
X12210Y17554D02*
X12090D01*
X11975Y17523D01*
X11871Y17463D01*
X11787Y17379D01*
X11727Y17275D01*
X11696Y17160D01*
Y17040D01*
X11727Y16925D01*
X11787Y16821D01*
X11871Y16737D01*
X11975Y16677D01*
X12090Y16646D01*
X12210D01*
X12325Y16677D01*
X12429Y16737D01*
X12513Y16821D01*
X12573Y16925D01*
X12604Y17040D01*
Y17160D01*
X12573Y17275D01*
X12513Y17379D01*
X12429Y17463D01*
X12325Y17523D01*
X12210Y17554D01*
D02*
G37*
G36*
X21599Y25124D02*
X21501D01*
X21406Y25099D01*
X21320Y25049D01*
X21251Y24980D01*
X21201Y24894D01*
X21176Y24799D01*
Y24701D01*
X21201Y24606D01*
X21251Y24520D01*
X21320Y24451D01*
X21341Y24439D01*
Y20737D01*
X20902Y20298D01*
X20902Y20298D01*
X19302Y18698D01*
X19257Y18630D01*
X19241Y18550D01*
Y15250D01*
X19257Y15170D01*
X19302Y15102D01*
X19370Y15057D01*
X19450Y15041D01*
X19530Y15057D01*
X19598Y15102D01*
X19643Y15170D01*
X19659Y15250D01*
Y18463D01*
X21198Y20002D01*
X21198Y20002D01*
X21698Y20502D01*
X21743Y20570D01*
X21759Y20650D01*
Y24439D01*
X21780Y24451D01*
X21849Y24520D01*
X21899Y24606D01*
X21924Y24701D01*
Y24799D01*
X21899Y24894D01*
X21849Y24980D01*
X21780Y25049D01*
X21694Y25099D01*
X21599Y25124D01*
D02*
G37*
G36*
X17089Y18847D02*
X17011D01*
X16938Y18817D01*
X16883Y18762D01*
X16853Y18689D01*
Y18611D01*
X16883Y18538D01*
X16930Y18492D01*
Y15008D01*
X16883Y14962D01*
X16853Y14889D01*
Y14811D01*
X16883Y14738D01*
X16938Y14683D01*
X17011Y14653D01*
X17089D01*
X17162Y14683D01*
X17217Y14738D01*
X17247Y14811D01*
Y14889D01*
X17217Y14962D01*
X17170Y15008D01*
Y18492D01*
X17217Y18538D01*
X17247Y18611D01*
Y18689D01*
X17217Y18762D01*
X17162Y18817D01*
X17089Y18847D01*
D02*
G37*
G36*
X8752Y14945D02*
X8750D01*
Y14600D01*
X9095D01*
Y14602D01*
X9068Y14703D01*
X9016Y14793D01*
X8943Y14866D01*
X8853Y14918D01*
X8752Y14945D01*
D02*
G37*
G36*
X8650D02*
X8648D01*
X8547Y14918D01*
X8457Y14866D01*
X8384Y14793D01*
X8332Y14703D01*
X8305Y14602D01*
Y14600D01*
X8650D01*
Y14945D01*
D02*
G37*
G36*
X12074Y14924D02*
X11326D01*
Y14176D01*
X12074D01*
Y14924D01*
D02*
G37*
G36*
X10749D02*
X10651D01*
X10556Y14899D01*
X10470Y14849D01*
X10401Y14780D01*
X10351Y14694D01*
X10326Y14599D01*
Y14501D01*
X10351Y14406D01*
X10401Y14320D01*
X10470Y14251D01*
X10556Y14201D01*
X10651Y14176D01*
X10749D01*
X10844Y14201D01*
X10930Y14251D01*
X10999Y14320D01*
X11049Y14406D01*
X11074Y14501D01*
Y14599D01*
X11049Y14694D01*
X10999Y14780D01*
X10930Y14849D01*
X10844Y14899D01*
X10749Y14924D01*
D02*
G37*
G36*
X9749D02*
X9651D01*
X9556Y14899D01*
X9470Y14849D01*
X9401Y14780D01*
X9351Y14694D01*
X9326Y14599D01*
Y14501D01*
X9351Y14406D01*
X9401Y14320D01*
X9470Y14251D01*
X9556Y14201D01*
X9651Y14176D01*
X9749D01*
X9844Y14201D01*
X9930Y14251D01*
X9999Y14320D01*
X10049Y14406D01*
X10074Y14501D01*
Y14599D01*
X10049Y14694D01*
X9999Y14780D01*
X9930Y14849D01*
X9844Y14899D01*
X9749Y14924D01*
D02*
G37*
G36*
X9095Y14500D02*
X8750D01*
Y14155D01*
X8752D01*
X8853Y14182D01*
X8943Y14234D01*
X9016Y14307D01*
X9068Y14397D01*
X9095Y14498D01*
Y14500D01*
D02*
G37*
G36*
X8650D02*
X8305D01*
Y14498D01*
X8332Y14397D01*
X8384Y14307D01*
X8457Y14234D01*
X8547Y14182D01*
X8648Y14155D01*
X8650D01*
Y14500D01*
D02*
G37*
G36*
X3689Y14997D02*
X3611D01*
X3538Y14967D01*
X3483Y14912D01*
X3453Y14839D01*
Y14761D01*
X3483Y14688D01*
X3530Y14642D01*
Y14141D01*
X3480Y14127D01*
X3449Y14180D01*
X3380Y14249D01*
X3294Y14299D01*
X3199Y14324D01*
X3101D01*
X3006Y14299D01*
X2920Y14249D01*
X2851Y14180D01*
X2801Y14094D01*
X2776Y13999D01*
Y13901D01*
X2801Y13806D01*
X2851Y13720D01*
X2920Y13651D01*
X3006Y13601D01*
X3101Y13576D01*
X3199D01*
X3294Y13601D01*
X3380Y13651D01*
X3449Y13720D01*
X3480Y13773D01*
X3530Y13759D01*
Y13496D01*
X3530Y13496D01*
X3539Y13450D01*
X3565Y13411D01*
X3831Y13145D01*
X3801Y13094D01*
X3776Y12999D01*
Y12901D01*
X3801Y12806D01*
X3851Y12720D01*
X3920Y12651D01*
X4006Y12601D01*
X4101Y12576D01*
X4199D01*
X4294Y12601D01*
X4380Y12651D01*
X4449Y12720D01*
X4480Y12773D01*
X4530Y12759D01*
Y12308D01*
X4483Y12262D01*
X4453Y12189D01*
Y12111D01*
X4483Y12038D01*
X4538Y11983D01*
X4611Y11953D01*
X4689D01*
X4762Y11983D01*
X4817Y12038D01*
X4847Y12111D01*
Y12189D01*
X4817Y12262D01*
X4770Y12308D01*
Y12759D01*
X4820Y12773D01*
X4851Y12720D01*
X4920Y12651D01*
X5006Y12601D01*
X5101Y12576D01*
X5199D01*
X5294Y12601D01*
X5380Y12651D01*
X5449Y12720D01*
X5499Y12806D01*
X5524Y12901D01*
Y12999D01*
X5499Y13094D01*
X5449Y13180D01*
X5448Y13181D01*
X5985Y13718D01*
X6011Y13757D01*
X6020Y13803D01*
Y14292D01*
X6067Y14338D01*
X6097Y14411D01*
Y14489D01*
X6067Y14562D01*
X6012Y14617D01*
X5939Y14647D01*
X5861D01*
X5788Y14617D01*
X5733Y14562D01*
X5703Y14489D01*
Y14411D01*
X5733Y14338D01*
X5780Y14292D01*
Y13853D01*
X5240Y13313D01*
X5199Y13324D01*
X5101D01*
X5006Y13299D01*
X4920Y13249D01*
X4851Y13180D01*
X4820Y13127D01*
X4770Y13141D01*
Y13400D01*
X4984Y13614D01*
X5006Y13601D01*
X5101Y13576D01*
X5199D01*
X5294Y13601D01*
X5380Y13651D01*
X5449Y13720D01*
X5499Y13806D01*
X5524Y13901D01*
Y13999D01*
X5499Y14094D01*
X5449Y14180D01*
X5380Y14249D01*
X5294Y14299D01*
X5199Y14324D01*
X5101D01*
X5006Y14299D01*
X4920Y14249D01*
X4851Y14180D01*
X4801Y14094D01*
X4776Y13999D01*
Y13901D01*
X4801Y13806D01*
X4814Y13784D01*
X4565Y13535D01*
X4539Y13496D01*
X4530Y13450D01*
X4530Y13450D01*
Y13141D01*
X4480Y13127D01*
X4449Y13180D01*
X4380Y13249D01*
X4294Y13299D01*
X4199Y13324D01*
X4101D01*
X4015Y13301D01*
X3770Y13546D01*
Y13759D01*
X3820Y13773D01*
X3851Y13720D01*
X3920Y13651D01*
X4006Y13601D01*
X4101Y13576D01*
X4199D01*
X4294Y13601D01*
X4380Y13651D01*
X4449Y13720D01*
X4499Y13806D01*
X4524Y13901D01*
Y13999D01*
X4499Y14094D01*
X4449Y14180D01*
X4380Y14249D01*
X4294Y14299D01*
X4199Y14324D01*
X4101D01*
X4006Y14299D01*
X3920Y14249D01*
X3851Y14180D01*
X3820Y14127D01*
X3770Y14141D01*
Y14642D01*
X3817Y14688D01*
X3847Y14761D01*
Y14839D01*
X3817Y14912D01*
X3762Y14967D01*
X3689Y14997D01*
D02*
G37*
G36*
X2199Y14324D02*
X2101D01*
X2006Y14299D01*
X1920Y14249D01*
X1851Y14180D01*
X1801Y14094D01*
X1776Y13999D01*
Y13901D01*
X1801Y13806D01*
X1851Y13720D01*
X1920Y13651D01*
X2006Y13601D01*
X2101Y13576D01*
X2199D01*
X2294Y13601D01*
X2380Y13651D01*
X2449Y13720D01*
X2499Y13806D01*
X2524Y13901D01*
Y13999D01*
X2499Y14094D01*
X2449Y14180D01*
X2380Y14249D01*
X2294Y14299D01*
X2199Y14324D01*
D02*
G37*
G36*
X2545Y13345D02*
X2200D01*
Y13000D01*
X2545D01*
Y13345D01*
D02*
G37*
G36*
X2100D02*
X1755D01*
Y13000D01*
X2100D01*
Y13345D01*
D02*
G37*
G36*
X3199Y13324D02*
X3101D01*
X3006Y13299D01*
X2920Y13249D01*
X2851Y13180D01*
X2801Y13094D01*
X2776Y12999D01*
Y12901D01*
X2801Y12806D01*
X2851Y12720D01*
X2920Y12651D01*
X3006Y12601D01*
X3101Y12576D01*
X3199D01*
X3294Y12601D01*
X3380Y12651D01*
X3449Y12720D01*
X3499Y12806D01*
X3524Y12901D01*
Y12999D01*
X3499Y13094D01*
X3449Y13180D01*
X3380Y13249D01*
X3294Y13299D01*
X3199Y13324D01*
D02*
G37*
G36*
X2545Y12900D02*
X2200D01*
Y12555D01*
X2545D01*
Y12900D01*
D02*
G37*
G36*
X2100D02*
X1755D01*
Y12555D01*
X2100D01*
Y12900D01*
D02*
G37*
G36*
X11695Y11895D02*
X11350D01*
Y11550D01*
X11695D01*
Y11895D01*
D02*
G37*
G36*
X11250D02*
X10905D01*
Y11550D01*
X11250D01*
Y11895D01*
D02*
G37*
G36*
X14349Y11874D02*
X14251D01*
X14156Y11849D01*
X14070Y11799D01*
X14001Y11730D01*
X13951Y11644D01*
X13926Y11549D01*
Y11451D01*
X13951Y11356D01*
X14001Y11270D01*
X14070Y11201D01*
X14156Y11151D01*
X14251Y11126D01*
X14349D01*
X14444Y11151D01*
X14530Y11201D01*
X14599Y11270D01*
X14649Y11356D01*
X14674Y11451D01*
Y11549D01*
X14649Y11644D01*
X14599Y11730D01*
X14530Y11799D01*
X14444Y11849D01*
X14349Y11874D01*
D02*
G37*
G36*
X13349D02*
X13251D01*
X13156Y11849D01*
X13070Y11799D01*
X13001Y11730D01*
X12951Y11644D01*
X12926Y11549D01*
Y11451D01*
X12951Y11356D01*
X13001Y11270D01*
X13070Y11201D01*
X13156Y11151D01*
X13251Y11126D01*
X13349D01*
X13444Y11151D01*
X13530Y11201D01*
X13599Y11270D01*
X13649Y11356D01*
X13674Y11451D01*
Y11549D01*
X13649Y11644D01*
X13599Y11730D01*
X13530Y11799D01*
X13444Y11849D01*
X13349Y11874D01*
D02*
G37*
G36*
X11695Y11450D02*
X11350D01*
Y11105D01*
X11695D01*
Y11450D01*
D02*
G37*
G36*
X11250D02*
X10905D01*
Y11105D01*
X11250D01*
Y11450D01*
D02*
G37*
G36*
X1395Y10895D02*
X1050D01*
Y10550D01*
X1395D01*
Y10895D01*
D02*
G37*
G36*
X950D02*
X605D01*
Y10550D01*
X950D01*
Y10895D01*
D02*
G37*
G36*
X4049Y10874D02*
X3951D01*
X3856Y10849D01*
X3770Y10799D01*
X3701Y10730D01*
X3651Y10644D01*
X3626Y10549D01*
Y10451D01*
X3651Y10356D01*
X3701Y10270D01*
X3770Y10201D01*
X3856Y10151D01*
X3951Y10126D01*
X4049D01*
X4144Y10151D01*
X4230Y10201D01*
X4299Y10270D01*
X4349Y10356D01*
X4374Y10451D01*
Y10549D01*
X4349Y10644D01*
X4299Y10730D01*
X4230Y10799D01*
X4144Y10849D01*
X4049Y10874D01*
D02*
G37*
G36*
X3049D02*
X2951D01*
X2856Y10849D01*
X2770Y10799D01*
X2701Y10730D01*
X2651Y10644D01*
X2626Y10549D01*
Y10451D01*
X2651Y10356D01*
X2701Y10270D01*
X2770Y10201D01*
X2856Y10151D01*
X2951Y10126D01*
X3049D01*
X3144Y10151D01*
X3230Y10201D01*
X3299Y10270D01*
X3349Y10356D01*
X3374Y10451D01*
Y10549D01*
X3349Y10644D01*
X3299Y10730D01*
X3230Y10799D01*
X3144Y10849D01*
X3049Y10874D01*
D02*
G37*
G36*
X2049D02*
X1951D01*
X1856Y10849D01*
X1770Y10799D01*
X1701Y10730D01*
X1651Y10644D01*
X1626Y10549D01*
Y10451D01*
X1651Y10356D01*
X1701Y10270D01*
X1770Y10201D01*
X1856Y10151D01*
X1951Y10126D01*
X2049D01*
X2144Y10151D01*
X2230Y10201D01*
X2299Y10270D01*
X2349Y10356D01*
X2374Y10451D01*
Y10549D01*
X2349Y10644D01*
X2299Y10730D01*
X2230Y10799D01*
X2144Y10849D01*
X2049Y10874D01*
D02*
G37*
G36*
X1395Y10450D02*
X1050D01*
Y10105D01*
X1395D01*
Y10450D01*
D02*
G37*
G36*
X950D02*
X605D01*
Y10105D01*
X950D01*
Y10450D01*
D02*
G37*
G36*
X36570Y25897D02*
X36492D01*
X36419Y25867D01*
X36364Y25812D01*
X36334Y25739D01*
Y25661D01*
X36364Y25588D01*
X36390Y25562D01*
Y25429D01*
X36196D01*
Y25240D01*
X34450D01*
X34396Y25230D01*
X34351Y25199D01*
X33601Y24449D01*
X33570Y24404D01*
X33560Y24350D01*
Y19538D01*
X33533Y19512D01*
X33503Y19439D01*
Y19361D01*
X33533Y19288D01*
X33588Y19233D01*
X33661Y19203D01*
X33739D01*
X33812Y19233D01*
X33867Y19288D01*
X33897Y19361D01*
Y19439D01*
X33867Y19512D01*
X33840Y19538D01*
Y24292D01*
X34508Y24959D01*
X36196D01*
Y24771D01*
X36904D01*
Y25429D01*
X36671D01*
Y25562D01*
X36698Y25588D01*
X36728Y25661D01*
Y25739D01*
X36698Y25812D01*
X36642Y25867D01*
X36570Y25897D01*
D02*
G37*
G36*
X28804Y24029D02*
X28096D01*
Y23371D01*
X28804D01*
Y24029D01*
D02*
G37*
G36*
X28750Y17747D02*
Y17200D01*
X29134D01*
Y17320D01*
X29119Y17432D01*
X29076Y17537D01*
X29007Y17627D01*
X28917Y17696D01*
X28812Y17739D01*
X28750Y17747D01*
D02*
G37*
G36*
X28650D02*
X28588Y17739D01*
X28483Y17696D01*
X28393Y17627D01*
X28324Y17537D01*
X28281Y17432D01*
X28266Y17320D01*
Y17200D01*
X28650D01*
Y17747D01*
D02*
G37*
G36*
X30700Y17732D02*
X30593Y17718D01*
X30494Y17677D01*
X30408Y17612D01*
X30343Y17526D01*
X30302Y17427D01*
X30288Y17320D01*
Y16980D01*
X30302Y16873D01*
X30343Y16774D01*
X30408Y16688D01*
X30494Y16623D01*
X30593Y16582D01*
X30700Y16568D01*
X30807Y16582D01*
X30906Y16623D01*
X30992Y16688D01*
X31057Y16774D01*
X31098Y16873D01*
X31112Y16980D01*
Y17320D01*
X31098Y17427D01*
X31057Y17526D01*
X30992Y17612D01*
X30906Y17677D01*
X30807Y17718D01*
X30700Y17732D01*
D02*
G37*
G36*
X29700D02*
X29593Y17718D01*
X29494Y17677D01*
X29408Y17612D01*
X29343Y17526D01*
X29302Y17427D01*
X29288Y17320D01*
Y16980D01*
X29302Y16873D01*
X29343Y16774D01*
X29408Y16688D01*
X29494Y16623D01*
X29593Y16582D01*
X29700Y16568D01*
X29807Y16582D01*
X29906Y16623D01*
X29992Y16688D01*
X30057Y16774D01*
X30098Y16873D01*
X30112Y16980D01*
Y17320D01*
X30098Y17427D01*
X30057Y17526D01*
X29992Y17612D01*
X29906Y17677D01*
X29807Y17718D01*
X29700Y17732D01*
D02*
G37*
G36*
X29134Y17100D02*
X28750D01*
Y16553D01*
X28812Y16561D01*
X28917Y16604D01*
X29007Y16673D01*
X29076Y16763D01*
X29119Y16868D01*
X29134Y16980D01*
Y17100D01*
D02*
G37*
G36*
X28650D02*
X28266D01*
Y16980D01*
X28281Y16868D01*
X28324Y16763D01*
X28393Y16673D01*
X28483Y16604D01*
X28588Y16561D01*
X28650Y16553D01*
Y17100D01*
D02*
G37*
G36*
X25789Y15647D02*
X25711D01*
X25638Y15617D01*
X25583Y15562D01*
X25553Y15489D01*
Y15411D01*
X25583Y15338D01*
X25630Y15292D01*
Y14964D01*
X25580Y14930D01*
X25539Y14947D01*
X25461D01*
X25388Y14917D01*
X25333Y14862D01*
X25303Y14789D01*
Y14711D01*
X25333Y14638D01*
X25377Y14595D01*
Y12161D01*
X25327Y12112D01*
X25297Y12039D01*
Y11961D01*
X25327Y11888D01*
X25383Y11833D01*
X25455Y11803D01*
X25533D01*
X25606Y11833D01*
X25661Y11888D01*
X25691Y11961D01*
Y12039D01*
X25682Y12061D01*
X25696Y12081D01*
X25719Y12103D01*
X25789D01*
X25862Y12133D01*
X25917Y12188D01*
X25947Y12261D01*
Y12339D01*
X25917Y12412D01*
X25870Y12458D01*
Y15292D01*
X25917Y15338D01*
X25947Y15411D01*
Y15489D01*
X25917Y15562D01*
X25862Y15617D01*
X25789Y15647D01*
D02*
G37*
G36*
X19150Y11347D02*
Y10800D01*
X19534D01*
Y10920D01*
X19519Y11032D01*
X19476Y11137D01*
X19407Y11227D01*
X19317Y11296D01*
X19212Y11339D01*
X19150Y11347D01*
D02*
G37*
G36*
X19050D02*
X18988Y11339D01*
X18883Y11296D01*
X18793Y11227D01*
X18724Y11137D01*
X18681Y11032D01*
X18666Y10920D01*
Y10800D01*
X19050D01*
Y11347D01*
D02*
G37*
G36*
X25638Y10698D02*
X25560D01*
X25487Y10668D01*
X25440Y10621D01*
X22807D01*
X22762Y10667D01*
X22689Y10697D01*
X22611D01*
X22538Y10667D01*
X22483Y10612D01*
X22453Y10539D01*
Y10461D01*
X22483Y10388D01*
X22538Y10333D01*
X22611Y10303D01*
X22689D01*
X22762Y10333D01*
X22808Y10380D01*
X25442D01*
X25487Y10334D01*
X25560Y10304D01*
X25638D01*
X25710Y10334D01*
X25766Y10390D01*
X25796Y10462D01*
Y10540D01*
X25766Y10613D01*
X25710Y10668D01*
X25638Y10698D01*
D02*
G37*
G36*
X21100Y11332D02*
X20993Y11318D01*
X20894Y11277D01*
X20808Y11212D01*
X20743Y11126D01*
X20702Y11027D01*
X20688Y10920D01*
Y10580D01*
X20702Y10473D01*
X20743Y10374D01*
X20808Y10288D01*
X20894Y10223D01*
X20993Y10182D01*
X21100Y10168D01*
X21207Y10182D01*
X21306Y10223D01*
X21392Y10288D01*
X21457Y10374D01*
X21498Y10473D01*
X21512Y10580D01*
Y10920D01*
X21498Y11027D01*
X21457Y11126D01*
X21392Y11212D01*
X21306Y11277D01*
X21207Y11318D01*
X21100Y11332D01*
D02*
G37*
G36*
X20100D02*
X19993Y11318D01*
X19894Y11277D01*
X19808Y11212D01*
X19743Y11126D01*
X19702Y11027D01*
X19688Y10920D01*
Y10580D01*
X19702Y10473D01*
X19743Y10374D01*
X19808Y10288D01*
X19894Y10223D01*
X19993Y10182D01*
X20100Y10168D01*
X20207Y10182D01*
X20306Y10223D01*
X20392Y10288D01*
X20457Y10374D01*
X20498Y10473D01*
X20512Y10580D01*
Y10920D01*
X20498Y11027D01*
X20457Y11126D01*
X20392Y11212D01*
X20306Y11277D01*
X20207Y11318D01*
X20100Y11332D01*
D02*
G37*
G36*
X19534Y10700D02*
X19150D01*
Y10153D01*
X19212Y10161D01*
X19317Y10204D01*
X19407Y10273D01*
X19476Y10363D01*
X19519Y10468D01*
X19534Y10580D01*
Y10700D01*
D02*
G37*
G36*
X19050D02*
X18666D01*
Y10580D01*
X18681Y10468D01*
X18724Y10363D01*
X18793Y10273D01*
X18883Y10204D01*
X18988Y10161D01*
X19050Y10153D01*
Y10700D01*
D02*
G37*
G36*
X36539Y9547D02*
X36461D01*
X36388Y9517D01*
X36342Y9470D01*
X35258D01*
X35212Y9517D01*
X35139Y9547D01*
X35061D01*
X34988Y9517D01*
X34933Y9462D01*
X34903Y9389D01*
Y9311D01*
X34933Y9238D01*
X34988Y9183D01*
X34995Y9180D01*
Y9130D01*
X34986Y9126D01*
X34930Y9071D01*
X34900Y8998D01*
Y8920D01*
X34930Y8848D01*
X34986Y8792D01*
X34993Y8789D01*
Y8735D01*
X34986Y8732D01*
X34930Y8677D01*
X34900Y8605D01*
Y8526D01*
X34930Y8454D01*
X34986Y8399D01*
X34998Y8394D01*
Y8344D01*
X34986Y8339D01*
X34930Y8283D01*
X34900Y8211D01*
Y8133D01*
X34930Y8060D01*
X34986Y8005D01*
X35058Y7975D01*
X35136D01*
X35209Y8005D01*
X35264Y8060D01*
X35294Y8133D01*
Y8211D01*
X35264Y8283D01*
X35209Y8339D01*
X35197Y8344D01*
Y8394D01*
X35209Y8399D01*
X35247Y8437D01*
X35984D01*
X36038Y8383D01*
X36111Y8353D01*
X36189D01*
X36262Y8383D01*
X36317Y8438D01*
X36347Y8511D01*
Y8589D01*
X36317Y8662D01*
X36262Y8717D01*
X36189Y8747D01*
X36111D01*
X36038Y8717D01*
X36000Y8678D01*
X35263D01*
X35209Y8732D01*
X35202Y8735D01*
Y8789D01*
X35209Y8792D01*
X35250Y8834D01*
X36687D01*
X36738Y8783D01*
X36811Y8753D01*
X36889D01*
X36962Y8783D01*
X37017Y8838D01*
X37047Y8911D01*
Y8989D01*
X37017Y9062D01*
X36962Y9117D01*
X36889Y9147D01*
X36811D01*
X36738Y9117D01*
X36697Y9075D01*
X35260D01*
X35209Y9126D01*
X35202Y9129D01*
Y9179D01*
X35212Y9183D01*
X35258Y9230D01*
X36342D01*
X36388Y9183D01*
X36461Y9153D01*
X36539D01*
X36612Y9183D01*
X36667Y9238D01*
X36697Y9311D01*
Y9389D01*
X36667Y9462D01*
X36612Y9517D01*
X36539Y9547D01*
D02*
G37*
G36*
X2967Y8110D02*
X2950D01*
Y7650D01*
X3410D01*
Y7667D01*
X3375Y7797D01*
X3308Y7913D01*
X3213Y8008D01*
X3097Y8075D01*
X2967Y8110D01*
D02*
G37*
G36*
X967D02*
X950D01*
Y7650D01*
X1410D01*
Y7667D01*
X1375Y7797D01*
X1308Y7913D01*
X1213Y8008D01*
X1097Y8075D01*
X967Y8110D01*
D02*
G37*
G36*
X2850D02*
X2833D01*
X2703Y8075D01*
X2587Y8008D01*
X2492Y7913D01*
X2425Y7797D01*
X2390Y7667D01*
Y7650D01*
X2850D01*
Y8110D01*
D02*
G37*
G36*
X850D02*
X833D01*
X703Y8075D01*
X587Y8008D01*
X492Y7913D01*
X425Y7797D01*
X390Y7667D01*
Y7650D01*
X850D01*
Y8110D01*
D02*
G37*
G36*
X3410Y7550D02*
X2950D01*
Y7090D01*
X2967D01*
X3097Y7125D01*
X3213Y7192D01*
X3308Y7287D01*
X3375Y7403D01*
X3410Y7533D01*
Y7550D01*
D02*
G37*
G36*
X2850D02*
X2390D01*
Y7533D01*
X2425Y7403D01*
X2492Y7287D01*
X2587Y7192D01*
X2703Y7125D01*
X2833Y7090D01*
X2850D01*
Y7550D01*
D02*
G37*
G36*
X1410D02*
X950D01*
Y7090D01*
X967D01*
X1097Y7125D01*
X1213Y7192D01*
X1308Y7287D01*
X1375Y7403D01*
X1410Y7533D01*
Y7550D01*
D02*
G37*
G36*
X850D02*
X390D01*
Y7533D01*
X425Y7403D01*
X492Y7287D01*
X587Y7192D01*
X703Y7125D01*
X833Y7090D01*
X850D01*
Y7550D01*
D02*
G37*
G36*
X1958Y7039D02*
X1842D01*
X1731Y7009D01*
X1631Y6951D01*
X1549Y6869D01*
X1491Y6769D01*
X1461Y6658D01*
Y6542D01*
X1491Y6431D01*
X1549Y6331D01*
X1631Y6249D01*
X1731Y6191D01*
X1842Y6161D01*
X1958D01*
X2069Y6191D01*
X2169Y6249D01*
X2251Y6331D01*
X2309Y6431D01*
X2339Y6542D01*
Y6658D01*
X2309Y6769D01*
X2251Y6869D01*
X2169Y6951D01*
X2069Y7009D01*
X1958Y7039D01*
D02*
G37*
G36*
X2967Y6110D02*
X2950D01*
Y5650D01*
X3410D01*
Y5667D01*
X3375Y5797D01*
X3308Y5913D01*
X3213Y6008D01*
X3097Y6075D01*
X2967Y6110D01*
D02*
G37*
G36*
X967D02*
X950D01*
Y5650D01*
X1410D01*
Y5667D01*
X1375Y5797D01*
X1308Y5913D01*
X1213Y6008D01*
X1097Y6075D01*
X967Y6110D01*
D02*
G37*
G36*
X2850D02*
X2833D01*
X2703Y6075D01*
X2587Y6008D01*
X2492Y5913D01*
X2425Y5797D01*
X2390Y5667D01*
Y5650D01*
X2850D01*
Y6110D01*
D02*
G37*
G36*
X850D02*
X833D01*
X703Y6075D01*
X587Y6008D01*
X492Y5913D01*
X425Y5797D01*
X390Y5667D01*
Y5650D01*
X850D01*
Y6110D01*
D02*
G37*
G36*
X3410Y5550D02*
X2950D01*
Y5090D01*
X2967D01*
X3097Y5125D01*
X3213Y5192D01*
X3308Y5287D01*
X3375Y5403D01*
X3410Y5533D01*
Y5550D01*
D02*
G37*
G36*
X2850D02*
X2390D01*
Y5533D01*
X2425Y5403D01*
X2492Y5287D01*
X2587Y5192D01*
X2703Y5125D01*
X2833Y5090D01*
X2850D01*
Y5550D01*
D02*
G37*
G36*
X1410D02*
X950D01*
Y5090D01*
X967D01*
X1097Y5125D01*
X1213Y5192D01*
X1308Y5287D01*
X1375Y5403D01*
X1410Y5533D01*
Y5550D01*
D02*
G37*
G36*
X850D02*
X390D01*
Y5533D01*
X425Y5403D01*
X492Y5287D01*
X587Y5192D01*
X703Y5125D01*
X833Y5090D01*
X850D01*
Y5550D01*
D02*
G37*
%LPD*%
G54D12*
X25800Y21200D02*
X32200D01*
X22651Y10501D02*
X25598D01*
X25599Y10501D01*
X22650Y10500D02*
X22651Y10501D01*
X25497Y12003D02*
Y14747D01*
X25500Y14750D01*
X25494Y12000D02*
X25497Y12003D01*
X25750Y12300D02*
Y15450D01*
X35097Y8566D02*
X35105Y8558D01*
X36142D01*
X36150Y8550D01*
X36845Y8955D02*
X36850Y8950D01*
X35097Y8959D02*
X35102Y8955D01*
X36845D01*
X35100Y9350D02*
X36500D01*
X4650Y12150D02*
Y13450D01*
X5150Y13950D01*
Y12950D02*
Y13053D01*
X5900Y13803D01*
Y14450D01*
X4150Y12950D02*
Y12996D01*
X3650Y13496D02*
Y14800D01*
Y13496D02*
X4150Y12996D01*
X17050Y14850D02*
Y18650D01*
G54D16*
X36531Y25119D02*
X36550Y25100D01*
X36531Y25119D02*
Y25700D01*
X34450Y25100D02*
X36550D01*
X33700Y24350D02*
X34450Y25100D01*
X33700Y19400D02*
Y24350D01*
G54D22*
X28450Y22800D02*
D03*
Y23700D02*
D03*
X36550Y25100D02*
D03*
Y24200D02*
D03*
G54D73*
X21050Y20150D02*
X21550Y20650D01*
Y24750D01*
X19450Y18550D02*
X21050Y20150D01*
X19450Y15250D02*
Y18550D01*
X12750Y9550D02*
X14850D01*
X12300Y10000D02*
Y11500D01*
Y10000D02*
X12750Y9550D01*
G54D76*
X2900Y7600D02*
D03*
Y5600D02*
D03*
X900D02*
D03*
Y7600D02*
D03*
G54D77*
X1900Y6600D02*
D03*
G54D78*
X2150Y12950D02*
D03*
X1000Y10500D02*
D03*
X24550Y24750D02*
D03*
X20300D02*
D03*
X13800D02*
D03*
X12200Y25550D02*
D03*
X11700Y14550D02*
D03*
X11300Y11500D02*
D03*
G54D79*
X3150Y12950D02*
D03*
X4150D02*
D03*
X5150D02*
D03*
X2150Y13950D02*
D03*
X3150D02*
D03*
X4150D02*
D03*
X5150D02*
D03*
X2000Y10500D02*
D03*
X3000D02*
D03*
X4000D02*
D03*
X23550Y24750D02*
D03*
X22550D02*
D03*
X21550D02*
D03*
X18300D02*
D03*
X19300D02*
D03*
X16800D02*
D03*
X15800D02*
D03*
X14800D02*
D03*
X11200Y25550D02*
D03*
X11100Y27350D02*
D03*
X12200Y34050D02*
D03*
X10700Y14550D02*
D03*
X9700D02*
D03*
X8700D02*
D03*
X25450Y19000D02*
D03*
Y20000D02*
D03*
X12300Y11500D02*
D03*
X13300D02*
D03*
X14300D02*
D03*
G54D80*
X30700Y17150D02*
D03*
X29700D02*
D03*
X28700D02*
D03*
X21100Y10750D02*
D03*
X20100D02*
D03*
X19100D02*
D03*
G54D81*
X12150Y17100D02*
D03*
Y19100D02*
D03*
G54D82*
X12350Y21950D02*
D03*
Y22950D02*
D03*
G54D83*
X11100Y28350D02*
D03*
X12200Y33050D02*
D03*
X25450Y18000D02*
D03*
G54D84*
X10900Y37770D02*
D03*
X6400D02*
D03*
X4400D02*
D03*
X12900D02*
D03*
G54D85*
X1650D02*
D03*
Y35770D02*
D03*
G54D86*
X20300Y30250D02*
D03*
X2285Y6172D02*
D03*
X2211Y7067D02*
D03*
X1983Y7153D02*
D03*
X2050Y6050D02*
D03*
X1750D02*
D03*
X1500Y6200D02*
D03*
X1350Y6450D02*
D03*
Y6750D02*
D03*
X1468Y6987D02*
D03*
X1699Y7138D02*
D03*
X2400Y6900D02*
D03*
X25700Y6750D02*
D03*
X25550Y6200D02*
D03*
X25700Y6450D02*
D03*
X25600Y7000D02*
D03*
X23300Y6100D02*
D03*
X23650D02*
D03*
X24000D02*
D03*
X21900D02*
D03*
X22250D02*
D03*
X22600D02*
D03*
X22950D02*
D03*
X20550D02*
D03*
X20900D02*
D03*
X21250D02*
D03*
X21600D02*
D03*
X19200D02*
D03*
X19550D02*
D03*
X19900D02*
D03*
X20250D02*
D03*
X22950Y7100D02*
D03*
X23300D02*
D03*
X23650D02*
D03*
X24000D02*
D03*
X21550D02*
D03*
X21900D02*
D03*
X22250D02*
D03*
X22600D02*
D03*
X21200D02*
D03*
X20850D02*
D03*
X20500D02*
D03*
X20150D02*
D03*
X19800D02*
D03*
X19500D02*
D03*
X19200D02*
D03*
X18900Y7050D02*
D03*
X2509Y6295D02*
D03*
X2863D02*
D03*
X3217D02*
D03*
X3572D02*
D03*
X3926D02*
D03*
X4280D02*
D03*
X4635D02*
D03*
X4989D02*
D03*
X5343D02*
D03*
X5698D02*
D03*
X6052D02*
D03*
X6406D02*
D03*
X6761D02*
D03*
X7115D02*
D03*
X7469D02*
D03*
X7824D02*
D03*
X8178D02*
D03*
X8532D02*
D03*
X8887D02*
D03*
X9241D02*
D03*
X9595D02*
D03*
X9950D02*
D03*
X10304D02*
D03*
X10658D02*
D03*
X11013D02*
D03*
X11367D02*
D03*
X11721D02*
D03*
X12075D02*
D03*
X12430D02*
D03*
X12784D02*
D03*
X13138D02*
D03*
X13493D02*
D03*
X13847D02*
D03*
X14201D02*
D03*
X14556D02*
D03*
X14910D02*
D03*
X15264D02*
D03*
X15619D02*
D03*
X15973D02*
D03*
X16327D02*
D03*
X16682D02*
D03*
X17036D02*
D03*
X17390D02*
D03*
X17745D02*
D03*
X18099D02*
D03*
X18453D02*
D03*
X18808D02*
D03*
X18615Y6905D02*
D03*
X18261D02*
D03*
X17906D02*
D03*
X17552D02*
D03*
X17198D02*
D03*
X16843D02*
D03*
X16489D02*
D03*
X16135D02*
D03*
X15780D02*
D03*
X15426D02*
D03*
X15072D02*
D03*
X14717D02*
D03*
X14363D02*
D03*
X14009D02*
D03*
X13654D02*
D03*
X13300D02*
D03*
X12946D02*
D03*
X12591D02*
D03*
X12237D02*
D03*
X11883D02*
D03*
X11528D02*
D03*
X11174D02*
D03*
X10820D02*
D03*
X10465D02*
D03*
X10111D02*
D03*
X9757D02*
D03*
X9402D02*
D03*
X9048D02*
D03*
X8694D02*
D03*
X8339D02*
D03*
X7985D02*
D03*
X7631D02*
D03*
X7276D02*
D03*
X6922D02*
D03*
X6568D02*
D03*
X6213D02*
D03*
X5859D02*
D03*
X5505D02*
D03*
X5150D02*
D03*
X4796D02*
D03*
X4442D02*
D03*
X4087D02*
D03*
X3733D02*
D03*
X3379D02*
D03*
X3024D02*
D03*
X2670D02*
D03*
X28459Y23650D02*
D03*
X14850Y9550D02*
D03*
X12750D02*
D03*
X24419Y8962D02*
D03*
Y9356D02*
D03*
Y4631D02*
D03*
Y5025D02*
D03*
Y5419D02*
D03*
Y5813D02*
D03*
Y6206D02*
D03*
Y6994D02*
D03*
Y7387D02*
D03*
X23800Y5143D02*
D03*
X21100D02*
D03*
X19193Y3150D02*
D03*
X32850Y1319D02*
D03*
X34981Y3450D02*
D03*
Y7781D02*
D03*
X31275Y11881D02*
D03*
X28913D02*
D03*
X28519D02*
D03*
X28000Y13900D02*
D03*
X20723Y30018D02*
D03*
X21682D02*
D03*
X19832D02*
D03*
X21200Y30234D02*
D03*
X20750Y33650D02*
D03*
X21375Y33025D02*
D03*
X18750Y35000D02*
D03*
X11600Y29250D02*
D03*
X9450Y27450D02*
D03*
X8517Y27448D02*
D03*
X7600Y30200D02*
D03*
X4600Y27700D02*
D03*
X3800D02*
D03*
X3000D02*
D03*
X10684Y18063D02*
D03*
X4600Y25800D02*
D03*
X3800D02*
D03*
X3000D02*
D03*
X10950Y24050D02*
D03*
Y20800D02*
D03*
X16350Y22750D02*
D03*
X15650Y22700D02*
D03*
X21050Y20150D02*
D03*
Y19250D02*
D03*
X19450Y15250D02*
D03*
X18550D02*
D03*
X14272Y13950D02*
D03*
X13850Y13100D02*
D03*
X14000Y18350D02*
D03*
X23450Y17150D02*
D03*
X23000Y15550D02*
D03*
Y14800D02*
D03*
Y14050D02*
D03*
X24900D02*
D03*
Y14800D02*
D03*
Y15550D02*
D03*
X32200Y21200D02*
D03*
X25800D02*
D03*
X25599Y10501D02*
D03*
X22650Y10500D02*
D03*
X25500Y14750D02*
D03*
X25750Y15450D02*
D03*
X25494Y12000D02*
D03*
X25750Y12300D02*
D03*
X36150Y8550D02*
D03*
X36850Y8950D02*
D03*
X36500Y9350D02*
D03*
X35097Y8172D02*
D03*
Y8566D02*
D03*
Y8959D02*
D03*
X35100Y9350D02*
D03*
X36531Y25700D02*
D03*
X33700Y19400D02*
D03*
X34300Y18850D02*
D03*
X36531Y23700D02*
D03*
X3650Y14800D02*
D03*
X4650Y12150D02*
D03*
X5900Y14450D02*
D03*
X17050Y14850D02*
D03*
Y18650D02*
D03*
M02*
