G04*
G04 #@! TF.GenerationSoftware,Altium Limited,Altium Designer,22.2.1 (43)*
G04*
G04 Layer_Color=255*
%FSLAX24Y24*%
%MOIN*%
G70*
G04*
G04 #@! TF.SameCoordinates,AB8B2AD1-1602-442A-A43A-F402AF7CDF0B*
G04*
G04*
G04 #@! TF.FilePolarity,Positive*
G04*
G01*
G75*
%ADD22R,0.0550X0.0500*%
%ADD76C,0.0820*%
%ADD77C,0.0720*%
%ADD78R,0.0591X0.0591*%
%ADD79C,0.0591*%
%ADD80O,0.0660X0.1000*%
%ADD81C,0.0750*%
%ADD82C,0.0787*%
%ADD83R,0.0591X0.0591*%
%ADD84O,0.1000X0.1200*%
%ADD85R,0.0984X0.0984*%
G54D22*
X28450Y22800D02*
D03*
Y23700D02*
D03*
X36550Y25100D02*
D03*
Y24200D02*
D03*
G54D76*
X2900Y7600D02*
D03*
Y5600D02*
D03*
X900D02*
D03*
Y7600D02*
D03*
G54D77*
X1900Y6600D02*
D03*
G54D78*
X2150Y12950D02*
D03*
X1000Y10500D02*
D03*
X24550Y24750D02*
D03*
X20300D02*
D03*
X13800D02*
D03*
X12200Y25550D02*
D03*
X11700Y14550D02*
D03*
X11300Y11500D02*
D03*
G54D79*
X3150Y12950D02*
D03*
X4150D02*
D03*
X5150D02*
D03*
X2150Y13950D02*
D03*
X3150D02*
D03*
X4150D02*
D03*
X5150D02*
D03*
X2000Y10500D02*
D03*
X3000D02*
D03*
X4000D02*
D03*
X23550Y24750D02*
D03*
X22550D02*
D03*
X21550D02*
D03*
X18300D02*
D03*
X19300D02*
D03*
X16800D02*
D03*
X15800D02*
D03*
X14800D02*
D03*
X11200Y25550D02*
D03*
X11100Y27350D02*
D03*
X12200Y34050D02*
D03*
X10700Y14550D02*
D03*
X9700D02*
D03*
X8700D02*
D03*
X25450Y19000D02*
D03*
Y20000D02*
D03*
X12300Y11500D02*
D03*
X13300D02*
D03*
X14300D02*
D03*
G54D80*
X30700Y17150D02*
D03*
X29700D02*
D03*
X28700D02*
D03*
X21100Y10750D02*
D03*
X20100D02*
D03*
X19100D02*
D03*
G54D81*
X12150Y17100D02*
D03*
Y19100D02*
D03*
G54D82*
X12350Y21950D02*
D03*
Y22950D02*
D03*
G54D83*
X11100Y28350D02*
D03*
X12200Y33050D02*
D03*
X25450Y18000D02*
D03*
G54D84*
X10900Y37770D02*
D03*
X6400D02*
D03*
X4400D02*
D03*
X12900D02*
D03*
G54D85*
X1650D02*
D03*
Y35770D02*
D03*
M02*
