G04*
G04 #@! TF.GenerationSoftware,Altium Limited,Altium Designer,22.2.1 (43)*
G04*
G04 Layer_Color=128*
%FSLAX24Y24*%
%MOIN*%
G70*
G04*
G04 #@! TF.SameCoordinates,AB8B2AD1-1602-442A-A43A-F402AF7CDF0B*
G04*
G04*
G04 #@! TF.FilePolarity,Positive*
G04*
G01*
G75*
%ADD88C,0.0020*%
G54D88*
X2675Y7600D02*
X3125D01*
X2900Y7375D02*
Y7825D01*
X2675Y5600D02*
X3125D01*
X2900Y5375D02*
Y5825D01*
X675Y5600D02*
X1125D01*
X900Y5375D02*
Y5825D01*
X675Y7600D02*
X1125D01*
X900Y7375D02*
Y7825D01*
X1675Y6600D02*
X2125D01*
X1900Y6375D02*
Y6825D01*
X1973Y12950D02*
X2327D01*
X2150Y12773D02*
Y13127D01*
X2973Y12950D02*
X3327D01*
X3150Y12773D02*
Y13127D01*
X3973Y12950D02*
X4327D01*
X4150Y12773D02*
Y13127D01*
X4973Y12950D02*
X5327D01*
X5150Y12773D02*
Y13127D01*
X1973Y13950D02*
X2327D01*
X2150Y13773D02*
Y14127D01*
X2973Y13950D02*
X3327D01*
X3150Y13773D02*
Y14127D01*
X3973Y13950D02*
X4327D01*
X4150Y13773D02*
Y14127D01*
X4973Y13950D02*
X5327D01*
X5150Y13773D02*
Y14127D01*
X823Y10500D02*
X1177D01*
X1000Y10323D02*
Y10677D01*
X1823Y10500D02*
X2177D01*
X2000Y10323D02*
Y10677D01*
X2823Y10500D02*
X3177D01*
X3000Y10323D02*
Y10677D01*
X3823Y10500D02*
X4177D01*
X4000Y10323D02*
Y10677D01*
X30540Y17150D02*
X30860D01*
X30700Y16990D02*
Y17310D01*
X29540Y17150D02*
X29860D01*
X29700Y16990D02*
Y17310D01*
X28540Y17150D02*
X28860D01*
X28700Y16990D02*
Y17310D01*
X20940Y10750D02*
X21260D01*
X21100Y10590D02*
Y10910D01*
X19940Y10750D02*
X20260D01*
X20100Y10590D02*
Y10910D01*
X18940Y10750D02*
X19260D01*
X19100Y10590D02*
Y10910D01*
X24373Y24750D02*
X24727D01*
X24550Y24573D02*
Y24927D01*
X23373Y24750D02*
X23727D01*
X23550Y24573D02*
Y24927D01*
X22373Y24750D02*
X22727D01*
X22550Y24573D02*
Y24927D01*
X21373Y24750D02*
X21727D01*
X21550Y24573D02*
Y24927D01*
X18123Y24750D02*
X18477D01*
X18300Y24573D02*
Y24927D01*
X19123Y24750D02*
X19477D01*
X19300Y24573D02*
Y24927D01*
X20123Y24750D02*
X20477D01*
X20300Y24573D02*
Y24927D01*
X16623Y24750D02*
X16977D01*
X16800Y24573D02*
Y24927D01*
X15623Y24750D02*
X15977D01*
X15800Y24573D02*
Y24927D01*
X14623Y24750D02*
X14977D01*
X14800Y24573D02*
Y24927D01*
X13623Y24750D02*
X13977D01*
X13800Y24573D02*
Y24927D01*
X11980Y17100D02*
X12320D01*
X12150Y16930D02*
Y17270D01*
X11980Y19100D02*
X12320D01*
X12150Y18930D02*
Y19270D01*
X12190Y21950D02*
X12510D01*
X12350Y21790D02*
Y22110D01*
X12190Y22950D02*
X12510D01*
X12350Y22790D02*
Y23110D01*
X11023Y25550D02*
X11377D01*
X11200Y25373D02*
Y25727D01*
X12023Y25550D02*
X12377D01*
X12200Y25373D02*
Y25727D01*
X10923Y27350D02*
X11277D01*
X11100Y27173D02*
Y27527D01*
X10923Y28350D02*
X11277D01*
X11100Y28173D02*
Y28527D01*
X12023Y34050D02*
X12377D01*
X12200Y33873D02*
Y34227D01*
X12023Y33050D02*
X12377D01*
X12200Y32873D02*
Y33227D01*
X10650Y37770D02*
X11150D01*
X10900Y37520D02*
Y38020D01*
X6150Y37770D02*
X6650D01*
X6400Y37520D02*
Y38020D01*
X4150Y37770D02*
X4650D01*
X4400Y37520D02*
Y38020D01*
X12650Y37770D02*
X13150D01*
X12900Y37520D02*
Y38020D01*
X1394Y37770D02*
X1906D01*
X1650Y37514D02*
Y38026D01*
X1394Y35770D02*
X1906D01*
X1650Y35514D02*
Y36026D01*
X11523Y14550D02*
X11877D01*
X11700Y14373D02*
Y14727D01*
X10523Y14550D02*
X10877D01*
X10700Y14373D02*
Y14727D01*
X9523Y14550D02*
X9877D01*
X9700Y14373D02*
Y14727D01*
X8523Y14550D02*
X8877D01*
X8700Y14373D02*
Y14727D01*
X25273Y18000D02*
X25627D01*
X25450Y17823D02*
Y18177D01*
X25273Y19000D02*
X25627D01*
X25450Y18823D02*
Y19177D01*
X25273Y20000D02*
X25627D01*
X25450Y19823D02*
Y20177D01*
X11123Y11500D02*
X11477D01*
X11300Y11323D02*
Y11677D01*
X12123Y11500D02*
X12477D01*
X12300Y11323D02*
Y11677D01*
X13123Y11500D02*
X13477D01*
X13300Y11323D02*
Y11677D01*
X14123Y11500D02*
X14477D01*
X14300Y11323D02*
Y11677D01*
X20241Y30250D02*
X20359D01*
X20300Y30191D02*
Y30309D01*
X2226Y6172D02*
X2344D01*
X2285Y6113D02*
Y6232D01*
X2152Y7067D02*
X2270D01*
X2211Y7008D02*
Y7126D01*
X1924Y7153D02*
X2042D01*
X1983Y7094D02*
Y7212D01*
X1991Y6050D02*
X2109D01*
X2050Y5991D02*
Y6109D01*
X1691Y6050D02*
X1809D01*
X1750Y5991D02*
Y6109D01*
X1441Y6200D02*
X1559D01*
X1500Y6141D02*
Y6259D01*
X1291Y6450D02*
X1409D01*
X1350Y6391D02*
Y6509D01*
X1291Y6750D02*
X1409D01*
X1350Y6691D02*
Y6809D01*
X1409Y6987D02*
X1527D01*
X1468Y6928D02*
Y7047D01*
X1640Y7138D02*
X1758D01*
X1699Y7079D02*
Y7197D01*
X2341Y6900D02*
X2459D01*
X2400Y6841D02*
Y6959D01*
X25641Y6750D02*
X25759D01*
X25700Y6691D02*
Y6809D01*
X25491Y6200D02*
X25609D01*
X25550Y6141D02*
Y6259D01*
X25641Y6450D02*
X25759D01*
X25700Y6391D02*
Y6509D01*
X25541Y7000D02*
X25659D01*
X25600Y6941D02*
Y7059D01*
X23241Y6100D02*
X23359D01*
X23300Y6041D02*
Y6159D01*
X23591Y6100D02*
X23709D01*
X23650Y6041D02*
Y6159D01*
X23941Y6100D02*
X24059D01*
X24000Y6041D02*
Y6159D01*
X21841Y6100D02*
X21959D01*
X21900Y6041D02*
Y6159D01*
X22191Y6100D02*
X22309D01*
X22250Y6041D02*
Y6159D01*
X22541Y6100D02*
X22659D01*
X22600Y6041D02*
Y6159D01*
X22891Y6100D02*
X23009D01*
X22950Y6041D02*
Y6159D01*
X20491Y6100D02*
X20609D01*
X20550Y6041D02*
Y6159D01*
X20841Y6100D02*
X20959D01*
X20900Y6041D02*
Y6159D01*
X21191Y6100D02*
X21309D01*
X21250Y6041D02*
Y6159D01*
X21541Y6100D02*
X21659D01*
X21600Y6041D02*
Y6159D01*
X19141Y6100D02*
X19259D01*
X19200Y6041D02*
Y6159D01*
X19491Y6100D02*
X19609D01*
X19550Y6041D02*
Y6159D01*
X19841Y6100D02*
X19959D01*
X19900Y6041D02*
Y6159D01*
X20191Y6100D02*
X20309D01*
X20250Y6041D02*
Y6159D01*
X22891Y7100D02*
X23009D01*
X22950Y7041D02*
Y7159D01*
X23241Y7100D02*
X23359D01*
X23300Y7041D02*
Y7159D01*
X23591Y7100D02*
X23709D01*
X23650Y7041D02*
Y7159D01*
X23941Y7100D02*
X24059D01*
X24000Y7041D02*
Y7159D01*
X21491Y7100D02*
X21609D01*
X21550Y7041D02*
Y7159D01*
X21841Y7100D02*
X21959D01*
X21900Y7041D02*
Y7159D01*
X22191Y7100D02*
X22309D01*
X22250Y7041D02*
Y7159D01*
X22541Y7100D02*
X22659D01*
X22600Y7041D02*
Y7159D01*
X21141Y7100D02*
X21259D01*
X21200Y7041D02*
Y7159D01*
X20791Y7100D02*
X20909D01*
X20850Y7041D02*
Y7159D01*
X20441Y7100D02*
X20559D01*
X20500Y7041D02*
Y7159D01*
X20091Y7100D02*
X20209D01*
X20150Y7041D02*
Y7159D01*
X19741Y7100D02*
X19859D01*
X19800Y7041D02*
Y7159D01*
X19441Y7100D02*
X19559D01*
X19500Y7041D02*
Y7159D01*
X19141Y7100D02*
X19259D01*
X19200Y7041D02*
Y7159D01*
X18841Y7050D02*
X18959D01*
X18900Y6991D02*
Y7109D01*
X2450Y6295D02*
X2568D01*
X2509Y6236D02*
Y6354D01*
X2804Y6295D02*
X2922D01*
X2863Y6236D02*
Y6354D01*
X3158Y6295D02*
X3276D01*
X3217Y6236D02*
Y6354D01*
X3513Y6295D02*
X3631D01*
X3572Y6236D02*
Y6354D01*
X3867Y6295D02*
X3985D01*
X3926Y6236D02*
Y6354D01*
X4221Y6295D02*
X4339D01*
X4280Y6236D02*
Y6354D01*
X4576Y6295D02*
X4694D01*
X4635Y6236D02*
Y6354D01*
X4930Y6295D02*
X5048D01*
X4989Y6236D02*
Y6354D01*
X5284Y6295D02*
X5402D01*
X5343Y6236D02*
Y6354D01*
X5638Y6295D02*
X5757D01*
X5698Y6236D02*
Y6354D01*
X5993Y6295D02*
X6111D01*
X6052Y6236D02*
Y6354D01*
X6347Y6295D02*
X6465D01*
X6406Y6236D02*
Y6354D01*
X6701Y6295D02*
X6820D01*
X6761Y6236D02*
Y6354D01*
X7056Y6295D02*
X7174D01*
X7115Y6236D02*
Y6354D01*
X7410Y6295D02*
X7528D01*
X7469Y6236D02*
Y6354D01*
X7764Y6295D02*
X7883D01*
X7824Y6236D02*
Y6354D01*
X8119Y6295D02*
X8237D01*
X8178Y6236D02*
Y6354D01*
X8473Y6295D02*
X8591D01*
X8532Y6236D02*
Y6354D01*
X8827Y6295D02*
X8946D01*
X8887Y6236D02*
Y6354D01*
X9182Y6295D02*
X9300D01*
X9241Y6236D02*
Y6354D01*
X9536Y6295D02*
X9654D01*
X9595Y6236D02*
Y6354D01*
X9890Y6295D02*
X10009D01*
X9950Y6236D02*
Y6354D01*
X10245Y6295D02*
X10363D01*
X10304Y6236D02*
Y6354D01*
X10599Y6295D02*
X10717D01*
X10658Y6236D02*
Y6354D01*
X10953Y6295D02*
X11072D01*
X11013Y6236D02*
Y6354D01*
X11308Y6295D02*
X11426D01*
X11367Y6236D02*
Y6354D01*
X11662Y6295D02*
X11780D01*
X11721Y6236D02*
Y6354D01*
X12016Y6295D02*
X12135D01*
X12075Y6236D02*
Y6354D01*
X12371Y6295D02*
X12489D01*
X12430Y6236D02*
Y6354D01*
X12725Y6295D02*
X12843D01*
X12784Y6236D02*
Y6354D01*
X13079Y6295D02*
X13198D01*
X13138Y6236D02*
Y6354D01*
X13434Y6295D02*
X13552D01*
X13493Y6236D02*
Y6354D01*
X13788Y6295D02*
X13906D01*
X13847Y6236D02*
Y6354D01*
X14142Y6295D02*
X14261D01*
X14201Y6236D02*
Y6354D01*
X14497Y6295D02*
X14615D01*
X14556Y6236D02*
Y6354D01*
X14851Y6295D02*
X14969D01*
X14910Y6236D02*
Y6354D01*
X15205Y6295D02*
X15324D01*
X15264Y6236D02*
Y6354D01*
X15560Y6295D02*
X15678D01*
X15619Y6236D02*
Y6354D01*
X15914Y6295D02*
X16032D01*
X15973Y6236D02*
Y6354D01*
X16268Y6295D02*
X16387D01*
X16327Y6236D02*
Y6354D01*
X16623Y6295D02*
X16741D01*
X16682Y6236D02*
Y6354D01*
X16977Y6295D02*
X17095D01*
X17036Y6236D02*
Y6354D01*
X17331Y6295D02*
X17450D01*
X17390Y6236D02*
Y6354D01*
X17686Y6295D02*
X17804D01*
X17745Y6236D02*
Y6354D01*
X18040Y6295D02*
X18158D01*
X18099Y6236D02*
Y6354D01*
X18394Y6295D02*
X18512D01*
X18453Y6236D02*
Y6354D01*
X18749Y6295D02*
X18867D01*
X18808Y6236D02*
Y6354D01*
X18556Y6905D02*
X18674D01*
X18615Y6846D02*
Y6964D01*
X18202Y6905D02*
X18320D01*
X18261Y6846D02*
Y6964D01*
X17847Y6905D02*
X17965D01*
X17906Y6846D02*
Y6964D01*
X17493Y6905D02*
X17611D01*
X17552Y6846D02*
Y6964D01*
X17139Y6905D02*
X17257D01*
X17198Y6846D02*
Y6964D01*
X16784Y6905D02*
X16902D01*
X16843Y6846D02*
Y6964D01*
X16430Y6905D02*
X16548D01*
X16489Y6846D02*
Y6964D01*
X16076Y6905D02*
X16194D01*
X16135Y6846D02*
Y6964D01*
X15721Y6905D02*
X15839D01*
X15780Y6846D02*
Y6964D01*
X15367Y6905D02*
X15485D01*
X15426Y6846D02*
Y6964D01*
X15013Y6905D02*
X15131D01*
X15072Y6846D02*
Y6964D01*
X14658Y6905D02*
X14776D01*
X14717Y6846D02*
Y6964D01*
X14304Y6905D02*
X14422D01*
X14363Y6846D02*
Y6964D01*
X13950Y6905D02*
X14068D01*
X14009Y6846D02*
Y6964D01*
X13595Y6905D02*
X13713D01*
X13654Y6846D02*
Y6964D01*
X13241Y6905D02*
X13359D01*
X13300Y6846D02*
Y6964D01*
X12887Y6905D02*
X13005D01*
X12946Y6846D02*
Y6964D01*
X12532Y6905D02*
X12650D01*
X12591Y6846D02*
Y6964D01*
X12178Y6905D02*
X12296D01*
X12237Y6846D02*
Y6964D01*
X11824Y6905D02*
X11942D01*
X11883Y6846D02*
Y6964D01*
X11469Y6905D02*
X11587D01*
X11528Y6846D02*
Y6964D01*
X11115Y6905D02*
X11233D01*
X11174Y6846D02*
Y6964D01*
X10761Y6905D02*
X10879D01*
X10820Y6846D02*
Y6964D01*
X10406Y6905D02*
X10524D01*
X10465Y6846D02*
Y6964D01*
X10052Y6905D02*
X10170D01*
X10111Y6846D02*
Y6964D01*
X9698Y6905D02*
X9816D01*
X9757Y6846D02*
Y6964D01*
X9343Y6905D02*
X9461D01*
X9402Y6846D02*
Y6964D01*
X8989Y6905D02*
X9107D01*
X9048Y6846D02*
Y6964D01*
X8635Y6905D02*
X8753D01*
X8694Y6846D02*
Y6964D01*
X8280Y6905D02*
X8398D01*
X8339Y6846D02*
Y6964D01*
X7926Y6905D02*
X8044D01*
X7985Y6846D02*
Y6964D01*
X7572Y6905D02*
X7690D01*
X7631Y6846D02*
Y6964D01*
X7217Y6905D02*
X7335D01*
X7276Y6846D02*
Y6964D01*
X6863Y6905D02*
X6981D01*
X6922Y6846D02*
Y6964D01*
X6509Y6905D02*
X6627D01*
X6568Y6846D02*
Y6964D01*
X6154Y6905D02*
X6272D01*
X6213Y6846D02*
Y6964D01*
X5800Y6905D02*
X5918D01*
X5859Y6846D02*
Y6964D01*
X5446Y6905D02*
X5564D01*
X5505Y6846D02*
Y6964D01*
X5091Y6905D02*
X5210D01*
X5150Y6846D02*
Y6964D01*
X4737Y6905D02*
X4855D01*
X4796Y6846D02*
Y6964D01*
X4383Y6905D02*
X4501D01*
X4442Y6846D02*
Y6964D01*
X4028Y6905D02*
X4147D01*
X4087Y6846D02*
Y6964D01*
X3674Y6905D02*
X3792D01*
X3733Y6846D02*
Y6964D01*
X3320Y6905D02*
X3438D01*
X3379Y6846D02*
Y6964D01*
X2965Y6905D02*
X3084D01*
X3024Y6846D02*
Y6964D01*
X2611Y6905D02*
X2729D01*
X2670Y6846D02*
Y6964D01*
X28400Y23650D02*
X28518D01*
X28459Y23591D02*
Y23709D01*
X14791Y9550D02*
X14909D01*
X14850Y9491D02*
Y9609D01*
X12691Y9550D02*
X12809D01*
X12750Y9491D02*
Y9609D01*
X24360Y8962D02*
X24478D01*
X24419Y8903D02*
Y9021D01*
X24360Y9356D02*
X24478D01*
X24419Y9297D02*
Y9415D01*
X24360Y4631D02*
X24478D01*
X24419Y4572D02*
Y4691D01*
X24360Y5025D02*
X24478D01*
X24419Y4966D02*
Y5084D01*
X24360Y5419D02*
X24478D01*
X24419Y5360D02*
Y5478D01*
X24360Y5813D02*
X24478D01*
X24419Y5754D02*
Y5872D01*
X24360Y6206D02*
X24478D01*
X24419Y6147D02*
Y6265D01*
X24360Y6994D02*
X24478D01*
X24419Y6935D02*
Y7053D01*
X24360Y7387D02*
X24478D01*
X24419Y7328D02*
Y7446D01*
X23741Y5143D02*
X23859D01*
X23800Y5084D02*
Y5202D01*
X21041Y5143D02*
X21159D01*
X21100Y5084D02*
Y5202D01*
X19134Y3150D02*
X19252D01*
X19193Y3091D02*
Y3209D01*
X32791Y1319D02*
X32909D01*
X32850Y1260D02*
Y1378D01*
X34922Y3450D02*
X35040D01*
X34981Y3391D02*
Y3509D01*
X34922Y7781D02*
X35040D01*
X34981Y7722D02*
Y7840D01*
X31216Y11881D02*
X31334D01*
X31275Y11822D02*
Y11940D01*
X28854Y11881D02*
X28972D01*
X28913Y11822D02*
Y11940D01*
X28460Y11881D02*
X28578D01*
X28519Y11822D02*
Y11940D01*
X27941Y13900D02*
X28059D01*
X28000Y13841D02*
Y13959D01*
X20664Y30018D02*
X20782D01*
X20723Y29959D02*
Y30077D01*
X21623Y30018D02*
X21741D01*
X21682Y29959D02*
Y30077D01*
X19773Y30018D02*
X19891D01*
X19832Y29959D02*
Y30077D01*
X21141Y30234D02*
X21259D01*
X21200Y30175D02*
Y30293D01*
X20691Y33650D02*
X20809D01*
X20750Y33591D02*
Y33709D01*
X21316Y33025D02*
X21434D01*
X21375Y32966D02*
Y33084D01*
X18691Y35000D02*
X18809D01*
X18750Y34941D02*
Y35059D01*
X11541Y29250D02*
X11659D01*
X11600Y29191D02*
Y29309D01*
X9391Y27450D02*
X9509D01*
X9450Y27391D02*
Y27509D01*
X8458Y27448D02*
X8576D01*
X8517Y27389D02*
Y27507D01*
X7541Y30200D02*
X7659D01*
X7600Y30141D02*
Y30259D01*
X4541Y27700D02*
X4659D01*
X4600Y27641D02*
Y27759D01*
X3741Y27700D02*
X3859D01*
X3800Y27641D02*
Y27759D01*
X2941Y27700D02*
X3059D01*
X3000Y27641D02*
Y27759D01*
X10625Y18063D02*
X10743D01*
X10684Y18004D02*
Y18122D01*
X4541Y25800D02*
X4659D01*
X4600Y25741D02*
Y25859D01*
X3741Y25800D02*
X3859D01*
X3800Y25741D02*
Y25859D01*
X2941Y25800D02*
X3059D01*
X3000Y25741D02*
Y25859D01*
X10891Y24050D02*
X11009D01*
X10950Y23991D02*
Y24109D01*
X10891Y20800D02*
X11009D01*
X10950Y20741D02*
Y20859D01*
X16291Y22750D02*
X16409D01*
X16350Y22691D02*
Y22809D01*
X15591Y22700D02*
X15709D01*
X15650Y22641D02*
Y22759D01*
X20991Y20150D02*
X21109D01*
X21050Y20091D02*
Y20209D01*
X20991Y19250D02*
X21109D01*
X21050Y19191D02*
Y19309D01*
X19391Y15250D02*
X19509D01*
X19450Y15191D02*
Y15309D01*
X18491Y15250D02*
X18609D01*
X18550Y15191D02*
Y15309D01*
X14213Y13950D02*
X14331D01*
X14272Y13891D02*
Y14009D01*
X13791Y13100D02*
X13909D01*
X13850Y13041D02*
Y13159D01*
X13941Y18350D02*
X14059D01*
X14000Y18291D02*
Y18409D01*
X23391Y17150D02*
X23509D01*
X23450Y17091D02*
Y17209D01*
X22941Y15550D02*
X23059D01*
X23000Y15491D02*
Y15609D01*
X22941Y14800D02*
X23059D01*
X23000Y14741D02*
Y14859D01*
X22941Y14050D02*
X23059D01*
X23000Y13991D02*
Y14109D01*
X24841Y14050D02*
X24959D01*
X24900Y13991D02*
Y14109D01*
X24841Y14800D02*
X24959D01*
X24900Y14741D02*
Y14859D01*
X24841Y15550D02*
X24959D01*
X24900Y15491D02*
Y15609D01*
X32141Y21200D02*
X32259D01*
X32200Y21141D02*
Y21259D01*
X25741Y21200D02*
X25859D01*
X25800Y21141D02*
Y21259D01*
X25540Y10501D02*
X25658D01*
X25599Y10442D02*
Y10560D01*
X22591Y10500D02*
X22709D01*
X22650Y10441D02*
Y10559D01*
X25441Y14750D02*
X25559D01*
X25500Y14691D02*
Y14809D01*
X25691Y15450D02*
X25809D01*
X25750Y15391D02*
Y15509D01*
X25435Y12000D02*
X25553D01*
X25494Y11941D02*
Y12059D01*
X25691Y12300D02*
X25809D01*
X25750Y12241D02*
Y12359D01*
X36091Y8550D02*
X36209D01*
X36150Y8491D02*
Y8609D01*
X36791Y8950D02*
X36909D01*
X36850Y8891D02*
Y9009D01*
X36441Y9350D02*
X36559D01*
X36500Y9291D02*
Y9409D01*
X35038Y8172D02*
X35156D01*
X35097Y8113D02*
Y8231D01*
X35038Y8566D02*
X35156D01*
X35097Y8507D02*
Y8625D01*
X35038Y8959D02*
X35156D01*
X35097Y8900D02*
Y9018D01*
X35041Y9350D02*
X35159D01*
X35100Y9291D02*
Y9409D01*
X36472Y25700D02*
X36590D01*
X36531Y25641D02*
Y25759D01*
X33641Y19400D02*
X33759D01*
X33700Y19341D02*
Y19459D01*
X34241Y18850D02*
X34359D01*
X34300Y18791D02*
Y18909D01*
X36472Y23700D02*
X36590D01*
X36531Y23641D02*
Y23759D01*
X3591Y14800D02*
X3709D01*
X3650Y14741D02*
Y14859D01*
X4591Y12150D02*
X4709D01*
X4650Y12091D02*
Y12209D01*
X5841Y14450D02*
X5959D01*
X5900Y14391D02*
Y14509D01*
X16991Y14850D02*
X17109D01*
X17050Y14791D02*
Y14909D01*
X16991Y18650D02*
X17109D01*
X17050Y18591D02*
Y18709D01*
M02*
